<svg width="600" height="200" viewBox="0 0 600 200" fill="none" xmlns="http://www.w3.org/2000/svg">
<mask id="mask0_512_30" style="mask-type:luminance" maskUnits="userSpaceOnUse" x="87" y="15" width="427" height="170">
<path d="M87.1875 15.4062H513.188V184.406H87.1875V15.4062Z" fill="white"/>
</mask>
<g mask="url(#mask0_512_30)">
<path d="M271.172 164.693C271.182 164.677 271.193 164.667 271.203 164.646L271.208 164.641L271.172 164.693ZM512.021 104.557C511.641 106.26 511.573 108.094 511.339 110.094C511.13 110.344 510.828 110.74 510.5 111.089C509.698 111.964 508.958 112.885 508.448 114.104C508.016 115.12 507.365 115.828 506.5 116.219C505.682 116.589 504.922 117.161 504.104 117.495C501.063 118.74 498.005 119.932 494.865 120.734C492.333 121.375 489.813 122.151 487.307 122.974C486.49 123.24 485.604 123.516 485.026 124.458C484.495 125.323 483.74 125.547 482.969 125.74C480.682 126.328 478.396 126.891 476.12 127.516C474.516 127.953 472.922 128.464 471.328 128.969C471.198 129.016 471.104 129.281 470.99 129.448C471.01 129.479 471.052 129.62 471.089 129.62C473.151 129.464 475.234 129.51 477.266 129.078C479.677 128.563 482.026 128.281 484.406 129.182C485.151 129.458 485.927 129.599 486.781 129.828C487.063 130.427 487.38 131.078 487.729 131.807C488.271 131.948 488.849 132.104 489.385 132.25C489.859 133.182 489.635 134.271 490.13 135.172C490.474 135.813 489.88 136.974 490.547 137.521C490.13 138.573 489.818 139.474 489.427 140.318C489.073 141.089 488.63 141.786 488.172 142.62C487.016 143.25 485.703 143.135 484.422 143.156C482.776 143.193 481.146 143.25 479.568 143.969C479.323 144.078 479.068 144.208 478.818 144.208C476.391 144.24 474.042 145 471.667 145.479C471.516 145.51 471.344 145.38 471.078 145.286C471.161 145.016 471.214 144.568 471.333 144.542C471.828 144.411 472.354 144.448 472.849 144.318C473.057 144.26 473.219 143.938 473.411 143.724C472.932 142.943 472.297 142.984 471.724 142.984C470.427 142.984 469.135 143.063 467.839 143.172C467.63 143.193 467.438 143.438 467.234 143.604C463.828 143.958 460.396 143.625 456.995 144.208C455.745 144.422 454.448 144.271 453.177 144.286L453.203 144.328C452.146 143.661 451.057 143.703 449.974 143.995C449.74 144.578 449.542 145.063 449.359 145.521C448.349 145.943 447.469 145.948 446.833 144.531C445.495 144.531 444.12 144.521 442.745 144.536C442.24 144.547 442.115 144.938 442.214 146.026C441.76 146.297 441.307 146.573 440.844 146.849C440.969 147.135 441.036 147.427 441.12 147.438C442.927 147.688 444.766 147.901 446.536 147.438C449.078 146.771 451.526 147.255 453.964 147.953C455.25 148.323 456.51 148.453 457.807 148.401C458.151 148.385 458.505 148.313 458.844 148.38C462.859 149.203 466.953 148.677 470.964 149.578C472.141 149.844 473.328 150.036 474.526 150.271C474.484 149.859 474.448 149.563 474.411 149.24C475.661 149.24 476.859 149.224 478.052 149.26C478.156 149.266 478.328 149.568 478.333 149.745C478.339 149.917 478.203 150.156 478.083 150.266C477.88 150.438 477.63 150.526 477.313 150.698C478.286 151.495 479.641 150.49 480.375 152.052C480.354 152.292 480.328 152.62 480.286 153.063C480.88 154.984 482.609 155.943 483.167 158.005C483.125 159.052 483.031 159.948 482.432 160.797C482.016 161.391 481.974 162.432 481.703 163.526C481.396 164.219 480.682 164.62 480.057 165.146C478.901 163.88 477.75 162.75 476.182 162.901C475.589 161.365 474.568 161.302 473.5 161.531C473.188 161.594 472.87 161.901 472.635 162.203C472.276 162.682 471.984 163.25 471.635 163.828C469.76 164.188 467.875 164.255 465.979 164.172C463.469 164.057 460.969 164.198 458.51 164.922C458.297 164.984 458.104 165.167 457.911 165.313C459.188 165.276 460.328 166.104 461.62 166.172C461.656 166.635 461.781 167.031 461.682 167.245C461.125 168.438 461.068 169.557 461.74 170.698C461.828 170.849 461.807 171.115 461.839 171.375C461.448 171.536 461.052 171.693 460.589 171.875C460.448 173.484 460.724 175.26 459.682 176.578C459.073 176.88 458.177 175.359 457.771 177.141C458.047 177.49 458.401 177.807 458.63 178.245C459.297 179.516 458.938 180.776 457.828 181.094C457.5 181.188 457.146 181.281 456.813 181.229C455.964 181.099 455.094 180.979 454.271 180.677C453.583 180.432 452.911 180.266 452.234 180.469C451.094 180.813 450.021 180.589 448.953 180.026C448.651 179.87 448.286 179.818 447.953 179.839C445.729 179.984 443.495 180.104 441.281 180.505C440 180.74 438.729 180.948 437.422 180.938C436.302 180.932 435.193 181.182 434.073 181.266C433.214 181.333 432.354 181.302 431.495 181.328C430.417 181.354 429.307 181.016 428.302 181.906C428.078 182.104 427.583 182.042 427.323 181.844C426.208 181.021 425.016 180.969 423.807 181.13C419.688 181.688 415.557 181.865 411.417 181.901C410.219 181.906 409.026 182.255 407.828 182.354C403.615 182.719 399.396 182.224 395.182 182.526C392.859 182.688 390.536 182.813 388.208 182.917C387.526 182.943 386.833 182.849 386.156 182.781C385.047 182.667 383.922 182.276 382.938 183.333C382.875 183.401 382.776 183.432 382.693 183.432C380.375 183.328 378.057 184.057 375.745 183.432C375.427 183.344 375.115 183.172 374.745 183.016C374.958 182.396 375.13 181.906 375.344 181.313C375.125 181.203 374.901 180.979 374.708 181.021C373.51 181.26 372.323 181.385 371.109 181.099C370.703 181 370.208 181.036 369.844 181.255C368.922 181.797 367.948 181.755 367.047 181.604C365.604 181.37 364.12 181.891 362.714 181.109C362.422 180.948 362.026 181.042 361.688 181.109C359.359 181.557 357.052 181.13 354.74 180.927C354.661 180.917 354.589 180.818 354.438 180.703C354.995 179.938 355.813 180.5 356.365 180C356.385 179.677 356.406 179.349 356.432 179.026C356.578 178.927 356.74 178.719 356.88 178.745C358.068 178.932 359.286 178.573 360.453 179.224C360.818 179.427 361.302 179.281 361.729 179.286C362.411 179.292 363.12 179.177 363.786 179.318C364.771 179.526 365.599 179.443 366.417 178.521C366.964 177.906 367.693 177.979 368.292 178.74C368.526 179.036 368.865 179.203 369 179.307C369.807 179.443 369.646 178.479 370.281 178.151C371.469 178.245 372.911 178.453 374.245 177.563C373.781 177.505 373.271 177.563 373.057 176.797C373.786 176.182 373.786 176.182 376.714 176.281C377.255 176.74 377.828 177.224 378.469 177.771C378.339 178.021 378.203 178.271 378.047 178.563C378.094 178.656 378.146 178.927 378.234 178.948C378.568 179.026 378.932 179.12 379.245 179.021C381.089 178.411 382.969 178.214 384.865 178.026C385.974 177.917 387.109 177.833 388.172 177.448C390.188 176.729 392.266 176.823 394.307 176.458C396.422 176.078 398.589 176.141 400.734 176.083C402.026 176.052 403.307 176.057 404.583 175.698C405.25 175.51 405.953 175.521 406.635 175.49C409.557 175.385 412.479 175.49 415.385 174.823C416.641 174.536 417.958 174.656 419.245 174.609C419.667 174.599 420.073 174.578 420.396 174.172C416.542 174.422 412.682 174.677 408.672 173.948C407.156 175.151 405.474 175.089 403.609 174.578C401.813 174.078 399.932 173.438 398.026 174.125C397.135 174.448 396.141 174.12 395.281 174.807C395.109 174.938 394.792 174.729 394.536 174.667C394.208 174.589 393.859 174.38 393.547 174.448C392.755 174.615 392.005 174.396 391.24 174.328C390.047 174.214 388.818 174.182 387.641 174.417C386.776 174.583 385.943 174.557 385.089 174.526C383.885 174.479 382.677 174.646 381.474 174.745C379.755 174.88 378.047 175.255 376.318 175.13C375.458 175.073 374.594 175.26 373.734 175.307C372.958 175.344 372.182 175.406 371.411 175.323C370.104 175.172 368.839 175.427 367.583 175.823C367.083 175.974 366.578 176.198 366.073 176.219C364.005 176.297 361.943 176.344 359.88 176.344C358.245 176.344 356.609 176.25 354.911 176.198C354.484 175.557 354.047 174.896 353.568 174.167C352.698 174.219 351.854 174.271 350.839 174.333C351.083 175.016 351.255 175.5 351.432 175.984C350.875 177.125 349.818 176.484 349.026 177.135C349.057 177.526 349.089 177.953 349.125 178.417C350.01 178.672 350.682 178.089 351.453 177.833C352.536 177.958 353.599 178.323 354.536 179.203C354.193 179.911 353.573 179.609 353.135 179.927C353.068 180.844 352.375 180.932 351.984 181.422C352.036 181.63 352.083 181.833 352.135 182.042C352.089 182.12 352.021 182.26 351.99 182.255C351.406 182.063 350.797 181.943 350.25 181.63C349.245 181.047 348.25 181.021 347.13 181.521C346.01 180.505 344.594 180.547 343.224 180.24C343.703 178.958 344.88 180 345.401 178.771C345.813 177.786 346.953 178.052 347.594 177.365C347.661 176.625 347.349 176.203 346.932 176.031C346.448 175.833 345.917 175.719 345.406 175.719C342.906 175.714 340.401 175.75 337.901 175.792C337.74 175.797 337.578 175.932 337.422 176.01C337.234 177.016 337.359 177.474 337.885 177.448C338.74 177.417 339.594 177.229 340.443 177.203C340.885 177.188 341.297 177.406 341.219 178.323C339.526 178.594 337.828 178.276 336.172 178.401C335.922 177.719 335.745 177.229 335.521 176.594C334.224 176.344 332.88 175.958 331.505 175.901C330.917 175.88 330.318 176.031 329.719 176.104C329.104 176.177 328.969 176.917 328.557 177.563C327.281 177.375 325.927 177.057 324.573 177.01C323.198 176.964 321.823 177.182 320.25 177.302C319.24 176.193 317.859 176.427 316.526 176.432C316.396 176.828 316.297 177.115 316.177 177.479C315.016 177.818 313.818 177.568 312.62 177.547C312.505 177.406 312.401 177.214 312.271 177.198C310.896 176.995 309.531 176.854 308.219 177.698C307.844 177.943 307.396 178.052 306.969 178.078C306.036 178.135 305.099 178.099 304.151 178.099C304.297 177.281 304.911 177.813 305.203 177.401C305.417 176.823 305.13 176.568 304.766 176.51C304.083 176.411 303.422 176.323 302.844 177.109C302.583 177.464 302.078 177.656 301.682 177.667C300.135 177.734 298.589 177.854 297.047 177.37C296.224 177.109 295.344 177.094 294.484 177.042C293.109 176.958 291.734 177.156 290.385 176.51C289.844 176.25 289.188 176.391 288.583 176.354C286.172 176.214 283.755 176.099 281.344 175.938C280.057 175.854 278.74 175.943 277.552 175.083C275.516 174.714 273.495 174.083 271.286 174.453C271.604 174.865 271.865 175.203 272.13 175.547C272.026 176.281 271.604 175.755 271.344 175.88C271.026 176.036 270.698 176.177 270.385 176.318C270.401 176.49 270.406 176.594 270.411 176.703C271.734 176.411 272.891 177.568 274.198 177.438C274.448 177.417 274.724 177.443 274.964 177.557C275.432 177.781 275.62 178.224 275.37 178.969C275.172 179.026 274.911 179.203 274.703 179.141C272.932 178.573 271.12 178.453 269.313 178.286C267.766 178.146 266.234 177.807 264.688 177.589C264.266 177.526 263.844 177.583 263.417 177.589L263.453 177.641L263.292 177.729L263.406 177.609C262.708 177.193 262.016 176.729 261.313 177.604L261.323 177.609L261.411 177.698L261.318 177.609C260.974 177.604 260.641 177.594 260.302 177.578L260.318 177.604L260.339 177.63C260.297 177.677 260.255 177.729 260.214 177.776C260.234 177.719 260.26 177.667 260.281 177.609C259.635 177.406 258.995 177.089 258.339 177.036C257.141 176.943 255.938 177.01 254.781 177.01C254.401 177.422 254.078 177.766 253.714 178.156C252.453 178.036 251.167 177.922 249.885 177.786C248.646 177.656 247.406 177.51 245.911 177.344C247.073 176.609 248.167 177.542 249.167 176.552C247.859 176.245 246.667 176.411 245.302 176.51C245.151 176.75 244.932 177.078 244.625 177.557C243.156 177.729 241.568 177.755 239.927 177.229C240.354 176.828 240.688 176.51 241.021 176.193C240.411 175.766 239.75 175.635 239.068 175.625C237.604 175.609 236.135 175.589 234.672 175.594C234.37 175.594 234.068 175.703 233.771 176.057C234.448 176.135 235.135 176.146 235.797 176.318C236.453 176.479 237.151 175.833 237.813 176.474C237.693 176.656 237.609 176.906 237.51 176.911C235.104 177.036 232.703 176.943 230.297 177.365C229.146 177.568 227.917 176.99 226.724 176.813C226.255 176.74 225.901 177.005 225.797 177.661C225.844 177.771 225.88 177.948 225.932 177.958C227.026 178.182 228.12 178.391 229.599 178.672C226.203 179.26 223.193 179.339 220.182 178.594C219.849 178.51 219.5 178.411 219.161 178.453C216.229 178.76 213.302 178.208 210.37 178.323C209.766 178.349 209.151 178.333 208.563 178.193C206.161 177.625 203.74 177.839 201.328 177.75C200.12 177.703 198.911 177.698 197.703 177.646C196.672 177.604 195.656 177.641 194.755 177.911C194.328 178.792 195.167 178.839 195.099 179.469C194.604 179.505 194.089 179.49 193.594 179.589C192.448 179.818 191.432 178.578 190.297 179.099C189.104 179.646 187.922 178.979 186.714 179.214C185.63 179.427 184.484 179.135 183.37 179.042C182.583 178.974 181.828 179.031 181.104 179.51C180.375 179.984 179.594 180.057 178.839 179.651C178.161 179.292 177.516 179.224 176.823 179.536C176.583 179.646 176.318 179.635 176.052 179.635C175.208 179.641 174.568 178.797 174.63 177.693C174.656 177.146 174.776 176.594 174.927 176.073C175.193 175.151 175.516 174.255 175.875 173.146C175.229 173.276 174.766 173.37 174.188 173.49C174.234 173.063 174.198 172.635 174.323 172.51C174.661 172.182 175.078 172.01 175.443 171.729C175.583 171.625 175.703 171.411 175.76 171.214C175.823 171.016 175.828 170.76 175.786 170.563C175.75 170.37 175.609 170.214 175.516 170.036C174.74 169.896 174.563 171.38 173.76 171.161C173.734 170.734 173.839 170.125 174.036 169.714C173.943 169.536 173.875 169.24 173.76 169.208C173.26 169.068 172.734 169.052 172.245 168.885C172.198 168.875 172.156 168.839 172.115 168.807C170.891 169.281 169.604 169.047 168.391 169.219C167.984 169.568 167.625 169.87 167.281 170.167C166.073 170.224 164.875 170.292 163.682 170.313C163.547 170.318 163.281 170.078 163.292 169.984C163.313 169.693 163.385 169.266 163.536 169.177C163.917 168.948 164.349 168.76 164.755 168.76C166.661 168.76 168.49 168.354 170.323 167.557C171.073 167.234 171.849 166.917 172.646 166.797C172.688 166.74 172.724 166.688 172.766 166.635C172.724 166.151 172.677 165.604 172.641 165.13C172.495 164.87 172.396 164.682 172.286 164.51C171.177 162.677 169.922 161.307 167.953 161.406C167.625 161.427 167.281 161.271 166.964 161.089C166.859 161.094 166.755 161.099 166.656 161.109C166.146 161.146 165.62 161.354 165.13 161.245C164.047 161.005 162.932 161.396 161.88 160.865C162.031 160.438 162.292 160.12 162.641 160.141C163.729 160.203 164.807 160.203 165.891 160.167C165.682 159.63 165.729 159.094 165.708 158.573C165.682 158.01 165.703 157.448 165.703 156.938C164.938 155.594 163.911 155.13 162.734 155.13C161.786 155.13 160.839 155.214 159.885 155.193C158.943 155.167 158 155.042 157.052 154.979C156.458 154.943 155.854 154.932 155.26 154.932C155.005 154.932 154.745 155.01 154.49 154.979C150.62 154.583 146.745 154.245 142.875 153.745C141.578 153.578 140.24 153.469 139.021 152.802C138.708 152.797 138.391 152.708 138.073 152.536C137.771 152.37 137.38 152.188 137.104 152.313C136.406 152.609 135.792 152.536 135.099 152.234C134.25 151.875 133.422 152.052 132.76 153.047C132.5 153.438 132.052 153.646 131.661 153.859C131.182 154.109 130.635 154.177 130.193 154.495C129.474 155.021 128.76 155.125 127.953 155.047C126.896 154.943 126.844 155.052 125.807 156.417C126 156.979 126.359 157.406 126.797 157.266C128.094 156.865 129.359 157.234 130.635 157.323C131.135 157.354 131.708 157.266 132.141 156.969C133.88 155.755 135.813 155.771 137.672 155.448C139.375 155.151 141.109 155.328 143.406 155.74C140.453 156.281 137.984 155.969 135.688 157.161C135.88 157.781 136.318 157.943 136.745 157.958C137.25 157.984 137.771 157.87 138.281 157.781C140.844 157.359 143.411 156.922 145.948 156.5C146.615 156.906 147.229 157.276 147.839 157.646C147.719 157.776 147.615 157.984 147.479 158.021C145.792 158.443 144.115 158.943 142.37 158.427C141.151 158.063 140 158.854 138.807 159.005C137.875 159.13 136.953 159.422 136.005 159.464C134.807 159.51 133.615 159.589 132.589 160.667C132.203 161.063 131.583 160.953 131.104 160.563C130.745 160.276 130.401 159.958 130.052 159.651C129.052 160.125 128.208 160.875 127.833 161.953C127.141 163.938 125.958 164.026 124.625 163.849C124.292 163.807 123.943 163.677 123.646 163.469C123.307 163.224 123 163.255 122.661 163.38C121.979 163.625 121.521 163.026 121.021 162.609C120.672 162.323 120.656 162.188 120.505 160.339C121.167 158.901 122.76 158.781 123.396 157.203C122.005 155.828 120.854 155.526 119.724 156.682C118.891 157.542 117.828 157.724 117.12 158.703C116.052 158.255 115.672 157.099 115.151 156.125C114.479 156.172 113.995 155.859 113.823 154.813C114.339 154.005 114.922 153.182 115.411 152.276C115.677 151.797 115.625 151.208 115.276 150.734C115.12 150.677 114.948 150.542 114.813 150.589C113.688 150.969 113.276 150.719 113.198 149.458C113.078 147.328 112.802 145.182 113.448 143.057C113.193 142.224 112.943 141.406 112.661 140.49C113.26 139.792 113.818 139.146 114.401 138.464C116.328 138.771 117.969 138.115 119.182 135.885C119.042 135.083 118.896 134.208 118.734 133.292C118.198 132.781 117.661 132.26 117.203 131.828C117.156 131.526 117.099 131.401 117.125 131.313C117.411 130.115 117.729 128.859 118.651 128.297C119.62 127.703 120.339 126.828 121.063 125.823C121.953 124.583 123.156 123.865 124.401 123.323C127.115 122.151 129.896 121.396 132.698 120.74C135.589 120.068 138.479 119.417 141.318 118.417C141.646 118.297 141.969 118.151 142.281 118.021C142.578 117.563 142.865 117.125 143.063 116.635C143.042 116.51 143.021 116.38 143.01 116.234C143.099 116.026 143.208 115.823 143.323 115.62C143.333 115.552 143.344 115.479 143.344 115.411C143.177 115.24 143.052 115.01 142.922 115C141.458 114.885 139.995 114.75 138.531 114.745C135.75 114.74 133.016 114.292 130.286 113.719C129.521 113.557 128.745 113.464 127.979 113.313C126.349 113 124.792 112.516 123.292 111.5C121.427 110.224 119.401 109.74 117.271 110.365C116.438 110.609 115.557 110.635 114.698 110.698C111.068 110.948 107.479 111.578 103.906 112.411C102.385 112.766 100.813 112.802 99.3958 113.776C99.1094 113.979 98.724 113.969 98.3854 114.01C96.849 114.214 95.2656 113.948 93.8698 115.255C93.4427 114.438 93.1302 113.906 92.8802 113.328C92.5313 112.536 92.1146 111.865 91.5313 111.323C90.4427 110.318 89.7136 108.995 89.4011 107.224C89.1719 105.917 88.6823 104.693 88.3438 103.411C87.6406 100.807 87.3698 98.2083 87.9896 95.4531C88.3698 93.75 88.4323 91.9167 88.6719 89.9167C88.875 89.6667 89.1823 89.2708 89.5052 88.9219C90.3073 88.0469 91.0469 87.125 91.5625 85.9062C91.9896 84.8906 92.6406 84.1823 93.5104 83.7865C94.3229 83.4219 95.0833 82.849 95.9063 82.5156C98.9479 81.2708 102 80.0729 105.141 79.276C107.677 78.6354 110.198 77.8594 112.703 77.0365C113.516 76.7708 114.401 76.4948 114.984 75.5469C115.516 74.6875 116.271 74.4635 117.042 74.2656C119.323 73.6823 121.609 73.1146 123.891 72.4948C125.495 72.0521 127.089 71.5469 128.682 71.0365C128.813 70.9948 128.906 70.7292 129.016 70.5625C129 70.5312 128.958 70.3906 128.922 70.3906C126.859 70.5417 124.771 70.5 122.745 70.9323C120.328 71.4479 117.979 71.7292 115.599 70.8281C114.859 70.5469 114.078 70.4115 113.229 70.1823C112.943 69.5833 112.625 68.9323 112.281 68.2031C111.734 68.0625 111.156 67.9063 110.625 67.7604C110.146 66.8229 110.37 65.7396 109.875 64.8333C109.531 64.1979 110.13 63.0365 109.464 62.4844C109.875 61.4375 110.188 60.5312 110.578 59.6927C110.938 58.9219 111.38 58.224 111.839 57.3854C112.995 56.7604 114.302 56.875 115.589 56.8542C117.229 56.8177 118.865 56.7604 120.443 56.0417C120.682 55.9271 120.943 55.7969 121.193 55.7969C123.615 55.7708 125.964 55.0104 128.344 54.5312C128.495 54.5 128.661 54.6302 128.932 54.724C128.849 54.9948 128.797 55.4375 128.682 55.4687C128.182 55.599 127.661 55.5625 127.161 55.6927C126.958 55.75 126.792 56.0729 126.604 56.2865C127.083 57.0677 127.719 57.026 128.292 57.026C129.583 57.026 130.875 56.9427 132.172 56.8437C132.38 56.8229 132.578 56.5781 132.776 56.4115C136.182 56.0573 139.615 56.3906 143.016 55.8073C144.271 55.5937 145.568 55.7448 146.839 55.7292L146.813 55.6875C147.87 56.3542 148.953 56.3125 150.042 56.0156C150.271 55.4375 150.469 54.9531 150.656 54.4948C151.667 54.0677 152.542 54.0625 153.182 55.4844C154.521 55.4844 155.896 55.4948 157.271 55.4792C157.771 55.4687 157.896 55.0781 157.802 53.9844C158.25 53.7135 158.703 53.4427 159.172 53.1667C159.042 52.8802 158.979 52.5885 158.896 52.5781C157.089 52.3281 155.245 52.1146 153.474 52.5781C150.938 53.2448 148.49 52.7604 146.052 52.0625C144.766 51.6927 143.5 51.5625 142.208 51.6146C141.859 51.6302 141.505 51.7031 141.172 51.6302C137.156 50.8125 133.063 51.3385 129.052 50.4323C127.875 50.1667 126.693 49.9792 125.495 49.7448C125.536 50.1562 125.568 50.4531 125.604 50.776C124.359 50.776 123.161 50.7865 121.964 50.75C121.865 50.7448 121.693 50.4427 121.688 50.2708C121.682 50.099 121.813 49.8542 121.932 49.75C122.141 49.5781 122.385 49.4896 122.708 49.3177C121.734 48.5208 120.375 49.526 119.646 47.9635C119.661 47.724 119.693 47.3958 119.729 46.9531C119.135 45.026 117.406 44.0729 116.849 42.0104C116.891 40.9583 116.984 40.0677 117.583 39.2187C118 38.625 118.042 37.5833 118.318 36.4844C118.625 35.7969 119.339 35.3958 119.964 34.8698C121.12 36.1354 122.271 37.2656 123.833 37.1094C124.427 38.651 125.453 38.7135 126.521 38.4844C126.833 38.4219 127.146 38.1146 127.38 37.8073C127.74 37.3333 128.036 36.7656 128.385 36.1875C130.255 35.8229 132.146 35.7604 134.042 35.8437C136.547 35.9583 139.052 35.8125 141.51 35.0937C141.724 35.0312 141.917 34.8437 142.115 34.7031C140.833 34.7396 139.693 33.9115 138.401 33.8437C138.365 33.3802 138.24 32.9792 138.339 32.7656C138.896 31.5781 138.953 30.4531 138.281 29.3125C138.193 29.1667 138.219 28.901 138.182 28.6406C138.578 28.4792 138.974 28.3229 139.432 28.1406C139.573 26.5312 139.297 24.7552 140.344 23.4375C140.948 23.1354 141.849 24.651 142.255 22.875C141.974 22.526 141.615 22.2083 141.391 21.7708C140.724 20.4948 141.089 19.2396 142.193 18.9219C142.521 18.8281 142.875 18.7344 143.208 18.7865C144.063 18.9167 144.927 19.0365 145.755 19.3333C146.438 19.5833 147.109 19.75 147.792 19.5469C148.932 19.2031 150.005 19.4271 151.068 19.9896C151.375 20.1458 151.734 20.1979 152.068 20.1771C154.297 20.0312 156.526 19.9115 158.74 19.5104C160.021 19.276 161.297 19.0677 162.599 19.0729C163.719 19.0781 164.833 18.8333 165.953 18.75C166.807 18.6823 167.672 18.7135 168.526 18.6875C169.604 18.6615 170.714 19 171.719 18.1042C171.943 17.9115 172.438 17.974 172.698 18.1719C173.813 18.9896 175.005 19.0469 176.214 18.8854C180.333 18.3229 184.469 18.151 188.604 18.1146C189.802 18.1042 190.995 17.7604 192.193 17.6562C196.406 17.2969 200.63 17.7865 204.844 17.4896C207.161 17.3281 209.49 17.2031 211.813 17.099C212.5 17.0729 213.188 17.1667 213.875 17.2344C214.979 17.3437 216.104 17.7396 217.089 16.6771C217.151 16.6146 217.25 16.5833 217.339 16.5833C219.651 16.6823 221.969 15.9583 224.281 16.5833C224.604 16.6719 224.911 16.8437 225.281 16.9948C225.068 17.6146 224.896 18.1042 224.688 18.7031C224.906 18.8073 225.13 19.0312 225.318 18.9948C226.516 18.7552 227.703 18.625 228.917 18.9167C229.323 19.0156 229.818 18.9792 230.182 18.7604C231.104 18.2187 232.078 18.2604 232.979 18.4062C234.422 18.6458 235.906 18.125 237.318 18.901C237.604 19.0677 238 18.974 238.339 18.9062C240.667 18.4531 242.979 18.8854 245.286 19.0885C245.37 19.099 245.438 19.1979 245.594 19.3125C245.031 20.0781 244.219 19.5156 243.661 20.0104C243.641 20.3385 243.62 20.6667 243.599 20.9896C243.448 21.0885 243.286 21.2917 243.146 21.2708C241.964 21.0833 240.74 21.4427 239.573 20.7917C239.214 20.5833 238.729 20.7344 238.297 20.7292C237.615 20.724 236.911 20.8385 236.24 20.6979C235.255 20.4896 234.427 20.5729 233.609 21.4948C233.063 22.1094 232.333 22.0365 231.734 21.276C231.5 20.974 231.161 20.8125 231.026 20.7083C230.219 20.5729 230.38 21.5365 229.745 21.8594C228.557 21.7708 227.115 21.5625 225.781 22.4531C226.245 22.5104 226.75 22.4531 226.969 23.2187C226.24 23.8333 226.24 23.8333 223.318 23.7344C222.771 23.276 222.203 22.7917 221.557 22.2448C221.688 21.9948 221.823 21.7448 221.979 21.4531C221.938 21.3594 221.88 21.0885 221.792 21.0625C221.458 20.9896 221.099 20.8906 220.786 20.9948C218.938 21.599 217.057 21.8021 215.167 21.9896C214.057 22.099 212.917 22.1823 211.854 22.5677C209.839 23.2812 207.766 23.1927 205.724 23.5521C203.604 23.9375 201.438 23.875 199.292 23.9323C198 23.9635 196.719 23.9583 195.443 24.3177C194.776 24.5052 194.078 24.4948 193.391 24.5208C190.469 24.6302 187.547 24.5208 184.646 25.1875C183.385 25.4792 182.068 25.3594 180.781 25.4062C180.359 25.4167 179.953 25.4375 179.635 25.8437C183.49 25.5937 187.349 25.3385 191.359 26.0677C192.875 24.8646 194.557 24.9219 196.422 25.4375C198.219 25.9375 200.099 26.5781 202.01 25.8906C202.896 25.5677 203.891 25.8906 204.755 25.2083C204.917 25.0781 205.245 25.2865 205.495 25.349C205.823 25.4271 206.172 25.6302 206.484 25.5677C207.276 25.401 208.026 25.6198 208.792 25.6875C209.984 25.8021 211.214 25.8333 212.391 25.599C213.26 25.4323 214.089 25.4531 214.943 25.4896C216.146 25.5365 217.354 25.3646 218.557 25.2708C220.276 25.1354 221.984 24.7604 223.714 24.8802C224.573 24.9427 225.438 24.75 226.297 24.7083C227.073 24.6719 227.849 24.6094 228.62 24.6927C229.927 24.8385 231.193 24.5885 232.448 24.1927C232.948 24.0365 233.453 23.8125 233.958 23.7969C236.026 23.7187 238.089 23.6719 240.151 23.6719C241.792 23.6719 243.427 23.7656 245.12 23.8125C245.547 24.4583 245.984 25.1198 246.464 25.849C247.333 25.7969 248.177 25.7448 249.193 25.6771C248.948 25 248.776 24.5156 248.599 24.0312C249.156 22.8854 250.214 23.5312 251.005 22.8802C250.974 22.4844 250.943 22.0625 250.911 21.5937C250.026 21.3385 249.349 21.9271 248.578 22.1823C247.495 22.0573 246.432 21.6875 245.495 20.8073C245.839 20.099 246.458 20.401 246.896 20.0885C246.964 19.1719 247.656 19.0833 248.047 18.5885C247.995 18.3854 247.948 18.1823 247.901 17.9687C247.948 17.8958 248.01 17.75 248.042 17.7604C248.625 17.9531 249.234 18.0729 249.781 18.3854C250.786 18.9687 251.781 18.9948 252.906 18.4948C254.021 19.5104 255.438 19.4687 256.807 19.776C256.328 21.0573 255.151 20.0104 254.635 21.2396C254.219 22.224 253.083 21.9635 252.438 22.651C252.375 23.3906 252.688 23.8125 253.099 23.9844C253.583 24.1823 254.115 24.2969 254.625 24.2969C257.125 24.2969 259.63 24.2604 262.13 24.2187C262.297 24.2135 262.453 24.0781 262.609 24.0052C262.797 23 262.672 22.5417 262.146 22.5677C261.292 22.599 260.438 22.7865 259.589 22.8125C259.151 22.8281 258.734 22.6094 258.813 21.6875C260.505 21.4167 262.203 21.7396 263.859 21.6146C264.109 22.2969 264.286 22.7865 264.516 23.4167C265.807 23.6719 267.151 24.0573 268.526 24.1146C269.12 24.1354 269.714 23.9844 270.313 23.9115C270.927 23.8385 271.068 23.099 271.474 22.4531C272.755 22.6406 274.104 22.9583 275.458 23.0052C276.833 23.0521 278.208 22.8333 279.781 22.7135C280.792 23.8177 282.172 23.5885 283.505 23.5833C283.635 23.1875 283.734 22.901 283.854 22.5365C285.016 22.1979 286.219 22.4427 287.417 22.4687C287.526 22.6094 287.635 22.7969 287.76 22.8177C289.135 23.0156 290.5 23.1615 291.813 22.3125C292.188 22.0729 292.641 21.9583 293.063 21.9375C293.995 21.8802 294.932 21.9167 295.88 21.9167C295.734 22.7344 295.125 22.2031 294.828 22.6146C294.615 23.1875 294.901 23.4479 295.266 23.5C295.948 23.6042 296.609 23.6927 297.188 22.9062C297.448 22.5521 297.953 22.3594 298.349 22.349C299.896 22.2812 301.443 22.1615 302.984 22.651C303.807 22.9115 304.693 22.9219 305.547 22.974C306.922 23.0573 308.297 22.8646 309.651 23.5052C310.188 23.7656 310.849 23.6302 311.448 23.6667C313.859 23.8073 316.276 23.9219 318.688 24.0781C319.974 24.1667 321.292 24.0781 322.479 24.9375C324.516 25.3073 326.536 25.9375 328.745 25.5677C328.432 25.151 328.167 24.8177 327.901 24.474C328.005 23.7344 328.432 24.2604 328.688 24.1354C329.01 23.9844 329.333 23.8437 329.646 23.7031C329.63 23.5312 329.63 23.4219 329.62 23.3177C328.302 23.6042 327.141 22.4531 325.833 22.5781C325.583 22.6042 325.307 22.5729 325.068 22.4635C324.599 22.2396 324.411 21.7969 324.667 21.0521C324.859 20.9948 325.12 20.8125 325.333 20.8802C327.104 21.4479 328.911 21.5677 330.719 21.7292C332.266 21.8698 333.797 22.2135 335.344 22.4323C335.766 22.4896 336.188 22.4375 336.615 22.4323L336.578 22.3802L336.74 22.2917L336.63 22.4115C337.323 22.8281 338.016 23.2865 338.719 22.4167L338.708 22.4062L338.625 22.3177L338.714 22.4062C339.057 22.4167 339.391 22.4271 339.729 22.4375L339.714 22.4115L339.693 22.3906C339.734 22.3437 339.776 22.2917 339.818 22.2448C339.797 22.3021 339.776 22.349 339.75 22.4062C340.396 22.6146 341.036 22.9271 341.693 22.9792C342.891 23.0781 344.094 23.0104 345.25 23.0104C345.63 22.599 345.953 22.2552 346.318 21.8594C347.578 21.9844 348.865 22.099 350.146 22.2344C351.385 22.3646 352.625 22.5104 354.12 22.6719C352.958 23.4115 351.865 22.4792 350.865 23.4635C352.177 23.7708 353.365 23.6094 354.729 23.5052C354.88 23.2708 355.099 22.9375 355.406 22.4635C356.875 22.2917 358.469 22.2604 360.104 22.7917C359.677 23.1927 359.344 23.5052 359.01 23.8229C359.62 24.2552 360.281 24.3854 360.964 24.3906C362.427 24.4115 363.896 24.4323 365.359 24.4271C365.661 24.4271 365.964 24.3125 366.26 23.9635C365.583 23.8854 364.896 23.8698 364.234 23.7031C363.573 23.5417 362.88 24.1875 362.219 23.5469C362.339 23.3646 362.422 23.1094 362.521 23.1042C364.927 22.9792 367.328 23.0781 369.734 22.6562C370.885 22.4531 372.115 23.0312 373.307 23.2083C373.776 23.2812 374.13 23.0156 374.234 22.3542C374.188 22.25 374.151 22.0729 374.104 22.0625C373.005 21.8385 371.911 21.6302 370.432 21.349C373.828 20.7552 376.839 20.6823 379.849 21.4219C380.182 21.5052 380.531 21.6042 380.87 21.5677C383.807 21.2604 386.729 21.8125 389.661 21.6927C390.266 21.6719 390.88 21.6823 391.469 21.8229C393.87 22.3958 396.292 22.1771 398.703 22.2656C399.911 22.3125 401.125 22.3229 402.328 22.375C403.359 22.4167 404.375 22.3802 405.276 22.1094C405.703 21.2292 404.865 21.1823 404.938 20.5521C405.427 20.5156 405.943 20.5312 406.443 20.4323C407.583 20.2031 408.599 21.4427 409.734 20.9219C410.927 20.3698 412.109 21.0417 413.318 20.8021C414.401 20.5885 415.547 20.8854 416.661 20.974C417.448 21.0469 418.203 20.9844 418.932 20.5104C419.656 20.0365 420.438 19.9583 421.193 20.3646C421.87 20.7292 422.521 20.7969 423.208 20.4844C423.448 20.375 423.719 20.3854 423.979 20.3854C424.823 20.3802 425.464 21.224 425.401 22.3281C425.375 22.875 425.255 23.4271 425.104 23.9427C424.839 24.8698 424.516 25.7604 424.156 26.8698C424.802 26.7396 425.266 26.6458 425.844 26.5312C425.797 26.9583 425.833 27.3854 425.708 27.5104C425.37 27.8385 424.953 28.0104 424.589 28.2865C424.448 28.3958 424.328 28.6042 424.271 28.8073C424.208 29 424.203 29.2604 424.245 29.4583C424.281 29.651 424.422 29.8021 424.516 29.9792C425.292 30.125 425.469 28.6406 426.271 28.8594C426.297 29.2865 426.193 29.8958 425.995 30.3073C426.089 30.4844 426.156 30.776 426.271 30.8073C426.776 30.9479 427.297 30.9687 427.792 31.1302C427.833 31.1458 427.875 31.1771 427.917 31.2083C429.141 30.7344 430.427 30.974 431.641 30.8021C432.047 30.4531 432.401 30.1458 432.755 29.849C433.958 29.7917 435.156 29.7292 436.349 29.7031C436.484 29.7031 436.75 29.9375 436.74 30.0365C436.719 30.3229 436.646 30.7552 436.495 30.8437C436.12 31.0729 435.682 31.2552 435.281 31.2552C433.37 31.2552 431.542 31.6667 429.708 32.4583C428.953 32.7865 428.182 33.1042 427.385 33.224C427.349 33.2812 427.307 33.3333 427.266 33.3802C427.307 33.8646 427.354 34.4167 427.396 34.8854C427.536 35.151 427.635 35.3333 427.745 35.5052C428.854 37.3437 430.109 38.7135 432.078 38.6094C432.406 38.5937 432.75 38.7448 433.068 38.9271C433.172 38.9219 433.276 38.9167 433.375 38.9115C433.885 38.8698 434.411 38.6667 434.901 38.776C435.984 39.0104 437.099 38.6198 438.151 39.1562C438 39.5833 437.74 39.8958 437.391 39.8802C436.302 39.8177 435.224 39.8177 434.141 39.849C434.349 40.3854 434.302 40.9271 434.323 41.4427C434.349 42.0104 434.328 42.5729 434.328 43.0781C435.094 44.4271 436.12 44.8906 437.297 44.8906C438.25 44.8906 439.193 44.8073 440.146 44.8281C441.089 44.8542 442.031 44.9792 442.979 45.0365C443.573 45.0729 444.177 45.0833 444.771 45.0885C445.026 45.0885 445.292 45.0104 445.542 45.0365C449.411 45.4323 453.286 45.776 457.156 46.2708C458.453 46.4427 459.792 46.5469 461.01 47.2187C461.323 47.224 461.641 47.3125 461.958 47.4844C462.26 47.6458 462.656 47.8281 462.927 47.7083C463.63 47.4115 464.24 47.4844 464.932 47.7812C465.781 48.1406 466.609 47.9635 467.271 46.974C467.531 46.5781 467.979 46.3698 468.37 46.1615C468.849 45.9115 469.396 45.8437 469.839 45.5208C470.557 45 471.271 44.8958 472.078 44.974C473.135 45.0729 473.188 44.9687 474.224 43.6042C474.031 43.0365 473.672 42.6146 473.234 42.7552C471.938 43.1562 470.672 42.7812 469.396 42.6979C468.901 42.6667 468.328 42.7552 467.891 43.0521C466.156 44.2656 464.219 44.25 462.359 44.5729C460.661 44.8646 458.922 44.6927 456.63 44.276C459.578 43.7396 462.047 44.0521 464.344 42.8594C464.151 42.2396 463.714 42.0781 463.286 42.0625C462.781 42.0365 462.26 42.151 461.75 42.2344C459.188 42.6562 456.62 43.0885 454.083 43.5156C453.417 43.1094 452.802 42.7396 452.193 42.3698C452.313 42.2396 452.422 42.026 452.557 41.9948C454.24 41.5729 455.922 41.0729 457.661 41.5885C458.88 41.9531 460.031 41.1615 461.224 41.0052C462.156 40.8854 463.078 40.5937 464.031 40.5521C465.224 40.5052 466.417 40.4219 467.443 39.349C467.828 38.9531 468.448 39.0625 468.927 39.4479C469.286 39.7396 469.63 40.0573 469.979 40.3646C470.979 39.8906 471.828 39.1406 472.198 38.0625C472.891 36.0781 474.073 35.9896 475.411 36.1667C475.74 36.2083 476.089 36.3385 476.385 36.5469C476.724 36.7917 477.031 36.7552 477.37 36.6354C478.052 36.3906 478.516 36.9896 479.01 37.4062C479.359 37.6927 479.375 37.8281 479.531 39.6719C478.87 41.1146 477.276 41.2344 476.635 42.8125C478.026 44.1875 479.177 44.4896 480.307 43.3333C481.141 42.474 482.203 42.2865 482.911 41.3073C483.979 41.7552 484.359 42.9167 484.88 43.8906C485.557 43.8437 486.036 44.1562 486.208 45.2031C485.693 46.0052 485.115 46.8333 484.62 47.7344C484.354 48.2187 484.406 48.8073 484.755 49.2812C484.911 49.3333 485.083 49.474 485.219 49.4271C486.344 49.0469 486.755 49.2969 486.828 50.5573C486.948 52.6875 487.224 54.8333 486.578 56.9531C486.839 57.7865 487.083 58.6094 487.365 59.5208C486.766 60.224 486.208 60.8698 485.625 61.5521C483.698 61.2448 482.057 61.901 480.844 64.125C480.984 64.9323 481.13 65.8073 481.292 66.724C481.828 67.2344 482.37 67.7552 482.823 68.1875C482.875 68.4896 482.927 68.6146 482.901 68.7031C482.615 69.901 482.297 71.1563 481.375 71.7187C480.406 72.3125 479.688 73.1875 478.964 74.1927C478.073 75.4323 476.875 76.151 475.625 76.6927C472.911 77.8594 470.13 78.6198 467.328 79.2708C464.438 79.9427 461.547 80.599 458.714 81.599C458.38 81.7135 458.057 81.8646 457.745 81.9948C457.448 82.4531 457.161 82.8906 456.964 83.3802C456.984 83.5052 457.005 83.6354 457.016 83.7812C456.927 83.9896 456.818 84.1875 456.703 84.3958C456.693 84.4635 456.682 84.5365 456.682 84.6042C456.854 84.776 456.974 85.0052 457.104 85.0156C458.568 85.125 460.036 85.2656 461.5 85.2708C464.276 85.276 467.01 85.724 469.745 86.2969C470.505 86.4531 471.286 86.5521 472.052 86.7031C473.682 87.0156 475.24 87.5 476.74 88.5156C478.604 89.7917 480.63 90.276 482.76 89.651C483.594 89.4063 484.474 89.375 485.339 89.3177C488.964 89.0625 492.552 88.4375 496.125 87.599C497.646 87.2448 499.219 87.2083 500.635 86.2344C500.927 86.0365 501.307 86.0469 501.646 86.0052C503.182 85.8021 504.766 86.0677 506.161 84.7604C506.589 85.5781 506.901 86.1094 507.151 86.6875C507.5 87.4792 507.917 88.151 508.505 88.6927C509.589 89.6979 510.323 91.0208 510.63 92.7917C510.859 94.099 511.349 95.3229 511.693 96.599C512.359 99.2031 512.641 101.802 512.021 104.557ZM484.385 44.099C484.411 44.1719 484.443 44.2448 484.474 44.3177C484.568 44.2031 484.667 44.099 484.76 43.9844C484.63 44.0208 484.505 44.0625 484.385 44.099ZM224.448 22.8125C224.953 23.1771 225.339 23.0208 225.646 22.4635C225.224 22.401 224.786 22.2604 224.448 22.8125ZM214.047 19.5104C215.182 19.5469 216.172 19.5885 217.161 19.599C217.255 19.599 217.354 19.4167 217.448 19.3177C216.365 19.8021 215.25 18.1823 214.047 19.5104ZM192.526 21.2604C193.948 21.1875 195.229 20.9844 196.49 21.0833C199.401 21.3021 202.292 20.8437 205.198 20.8021C205.536 20.7969 205.891 20.7812 206.219 20.6823C207.995 20.1667 209.797 20.1042 211.604 20.2083C211.911 20.224 212.333 20.1094 211.958 19.3385C210.167 20.1771 208.469 18.9948 206.464 18.9219C205.609 19.7344 204.38 19.9375 203.219 19.5104C201.542 18.8958 200.005 19.1615 198.453 20C197.891 20.3125 197.26 20.6042 196.703 20.2604C195.401 19.4531 194.177 20.2448 192.927 20.4479C192.802 20.4687 192.708 20.8854 192.526 21.2604ZM184.13 21.4635C186.375 21.5625 188.573 21.8542 190.755 21.2292C189.427 20.3385 189.396 20.2396 188.875 20.5C187.651 21.1094 186.375 21.099 185.104 21.1927C184.938 21.2031 184.76 21.1875 184.599 21.2344C184.438 21.2812 184.292 21.3854 184.13 21.4635ZM180.932 22C181.057 22.0365 181.172 22.099 181.292 22.1146C181.458 22.1302 181.63 22.1198 181.802 22.1198C181.802 22.0833 181.807 22.0573 181.807 22.026C181.599 22.0104 181.396 21.9896 181.188 21.9792C181.104 21.9792 181.016 21.9948 180.932 22ZM144.339 34.974C144.292 34.9271 144.245 34.8385 144.193 34.8333C144.135 34.8229 144.073 34.8802 144.016 34.9115C144.12 34.9271 144.229 34.9531 144.339 34.974ZM156.828 42.4635L156.651 42.3281L156.609 42.5104L156.828 42.4635ZM132.234 70.2344C132.172 70.2135 132.109 70.1719 132.047 70.1719C131.979 70.1719 131.922 70.2135 131.854 70.2344C131.917 70.2604 131.979 70.2812 132.042 70.3073C132.109 70.2812 132.172 70.2604 132.234 70.2344ZM115.646 155.885C115.62 155.818 115.589 155.74 115.557 155.672C115.464 155.781 115.365 155.891 115.276 156C115.401 155.964 115.526 155.922 115.646 155.885ZM162.161 54.6458C161.958 54.5156 161.839 54.3802 161.729 54.3802C161.505 54.3854 161.286 54.4635 160.984 54.5365C161.182 54.6719 161.302 54.8177 161.417 54.8177C161.63 54.8073 161.849 54.724 162.161 54.6458ZM168.542 48.0417C168.813 48.0937 169.057 48.1719 169.318 48.1823C170.875 48.25 172.432 48.3125 173.995 48.375C173.927 48.0677 173.844 47.7917 173.839 47.5156C172.375 47.5156 170.911 47.5052 169.453 47.5104C169.276 47.5104 169.099 47.5 168.938 47.5625C168.776 47.6302 168.453 47.5312 168.542 48.0417ZM174.625 54.6823C174.464 54.6198 174.307 54.526 174.146 54.4896C173.526 54.3437 172.906 54.2656 172.286 54.2031C172.26 54.2031 172.24 54.2083 172.219 54.2083C172.219 54.2031 172.214 54.2031 172.214 54.1979C171.245 54.1094 170.276 54.0521 169.318 53.875C167.682 53.5781 166.089 53.8906 164.38 53.8906C164.859 54.1302 165.266 54.2812 165.635 54.5312C166.005 54.7865 166.344 55.151 166.776 55.5469C168.698 55.4844 170.672 55.4531 172.646 55.349C173.156 55.3177 173.661 55.0937 174.161 54.9375C174.323 54.8906 174.474 54.7708 174.625 54.6823ZM179.464 25.8802C178.75 25.9375 178.036 26.0052 177.323 26.0677C178.073 26.3437 178.792 26.3281 179.464 25.8802ZM186.417 46.9635C185.255 46.974 184.083 46.9896 182.917 47.0208C183.375 47.1979 183.844 47.2344 184.339 47.1875C185.036 47.1146 185.724 47.026 186.417 46.9635ZM379.339 22.7812C381.958 23.5 384.432 23.6979 386.922 23.6927C387.776 23.6927 388.635 23.875 389.484 24.0104C390.745 24.2083 392 24.3854 393.354 24.2083C392.177 23.4167 391.021 23.2552 389.802 23.2292C387.828 23.1875 385.854 22.9531 383.88 22.7917C383.365 22.7448 382.854 22.625 382.344 22.6094C381.828 22.5885 381.313 22.651 380.792 22.6667C380.37 22.6823 379.922 22.4479 379.339 22.7812ZM375.995 56.901C378.401 56.8958 380.802 56.8854 383.214 56.8958C384.417 56.901 385.682 56.724 386.807 57.1458C388.318 57.7135 389.656 57.651 391.052 56.8125C391.885 56.3073 392.729 56.4115 393.516 57.099C393.667 57.2292 393.839 57.3073 394.036 57.4062C394.208 57.3646 394.391 57.3177 394.568 57.276C394.677 57.1875 394.786 57.099 394.896 57.0104C394.453 56.9792 394.073 56.9687 393.74 56.7969C392.396 56.1146 391.068 56.1094 389.698 56.5885C389.385 56.7031 389.026 56.6198 388.688 56.5885C388.005 56.5208 387.307 56.2812 386.641 56.3698C385.406 56.5469 384.245 56.2083 382.88 55.7812C381.328 56.6094 379.771 56.3281 378.24 56.1979C377.401 56.125 376.688 56.4479 375.995 56.901ZM378.115 152.12C378.161 152.094 378.208 152.057 378.25 152.026C377.964 152.109 377.677 152.198 377.391 152.292C377.094 152.385 376.797 152.458 376.495 152.526C377.057 152.974 377.651 153.057 378.276 152.729C378.224 152.505 378.172 152.318 378.115 152.12ZM375.021 152.708C375.161 152.719 375.302 152.74 375.443 152.755C375.677 152.776 375.917 152.677 376.151 152.583C375.776 152.651 375.396 152.693 375.021 152.708ZM374.13 154.078C374.234 154.146 374.328 154.245 374.443 154.281C374.51 154.307 374.599 154.24 374.682 154.214C374.578 154.135 374.474 154.063 374.37 153.984C374.286 154.016 374.208 154.042 374.13 154.078ZM372.495 26.2656C373.052 26.2656 373.63 26.2656 374.203 26.2656C374.177 26.1562 374.151 26.0573 374.12 25.9479C373.708 25.8385 373.302 25.6979 372.885 25.6302C372.62 25.5937 372.385 25.724 372.495 26.2656ZM368.036 152.318C368.172 152.432 368.307 152.557 368.448 152.708C369.219 153.536 370.156 153.719 371.151 153.474C371.411 153.177 371.677 152.87 371.979 152.521C371.214 152.448 370.448 152.385 369.677 152.359C369.135 152.344 368.589 152.328 368.036 152.318ZM365.167 25.5C365.234 25.5 365.302 25.5052 365.37 25.4948C365.38 25.4948 365.38 25.4219 365.391 25.3802C365.328 25.3646 365.255 25.3542 365.193 25.3542C365.182 25.3542 365.172 25.4479 365.167 25.5ZM362.719 52.9792C363.339 53.0781 363.958 53.2031 364.573 53.3802C365.396 53.6198 366.266 53.6719 367.141 53.4687C367.38 53.4115 367.63 53.3802 367.875 53.3646C366.161 53.1927 364.448 53.0417 362.719 52.9792ZM364.792 152.38C363.115 152.479 361.438 152.781 359.755 152.87C361.318 153.125 362.917 153.052 364.505 153.13C364.729 152.948 364.958 152.792 365.167 152.594C365.266 152.505 365.359 152.427 365.453 152.349C365.234 152.359 365.01 152.37 364.792 152.38ZM359.995 56.6302C360.786 56.6979 361.266 56.7865 361.745 56.7656C361.901 56.7656 362.057 56.8125 362.214 56.8646C362.568 56.8646 362.922 56.8646 363.271 56.8594C363.313 56.8229 363.354 56.7812 363.401 56.7292C362.375 56.0625 362.375 56.0625 359.995 56.6302ZM357.052 24.3542C357.667 24.1719 358.146 24.0312 358.599 23.8958C358.125 23.8854 357.609 23.6562 357.052 24.3542ZM339.516 37.7865C339.609 37.9375 339.682 38.1615 339.786 38.2083C340.219 38.3802 340.667 38.6198 341.141 38.2604C341.109 38.25 341.083 38.2292 341.057 38.2135C341.026 38.25 340.995 38.2865 340.964 38.2917C340.839 38.3125 340.693 38.1354 340.557 38.0469C340.578 38.0104 340.604 37.974 340.625 37.9375C340.286 37.7187 339.943 37.5521 339.516 37.7865ZM338.797 52.4427C338.87 52.4792 338.938 52.5573 339.016 52.5521C339.255 52.5365 339.307 52.4167 339.146 52.2656C339.094 52.2187 338.984 52.2448 338.911 52.2708C338.865 52.2917 338.833 52.3854 338.797 52.4427ZM337.021 36.2083C337.198 36.4167 337.339 36.5833 337.5 36.7187C337.578 36.7865 337.781 36.6458 337.911 36.5625C337.943 36.5417 337.948 36.3333 337.911 36.2656C337.818 36.1042 337.724 35.9479 337.599 35.8229C337.401 35.9531 337.203 36.0729 337.021 36.2083ZM331.583 33.9219C331.818 33.9844 332.052 34.0729 332.281 34.151C332.531 34.2344 332.776 34.4219 333.021 34.4115C333.208 34.4062 333.385 34.1615 333.568 34.0208C333.448 33.8646 333.349 33.599 333.219 33.5729C332.844 33.5104 332.469 33.4635 332.099 33.4167C332.104 33.4219 332.104 33.4323 332.109 33.4375C331.943 33.6719 331.766 33.8333 331.583 33.9219ZM332.651 35.5365C332.323 35.5365 331.99 35.5365 331.661 35.5365C331.661 35.625 331.667 35.7135 331.667 35.7969C332 35.7708 332.333 35.7396 332.667 35.7135C332.656 35.6562 332.651 35.5937 332.651 35.5365ZM331.021 51.4687C329.563 51.3177 328.109 51.1875 326.651 51.0573C325.703 50.974 324.755 50.8698 323.813 50.8333C323.021 50.8073 322.224 50.7865 321.432 50.8333C321.109 50.901 320.781 50.8958 320.479 50.9167C319.635 51.0156 318.797 51.1771 317.958 51.3125C318.047 52.0937 318.776 51.9531 319.016 52.5208C318.589 52.6042 318.156 52.6406 317.74 52.7708C316.052 53.3021 314.365 53.6146 312.615 53.474C311.594 53.3906 310.516 53.4896 309.526 53.8229C307.547 54.4896 305.573 54.3021 303.615 53.9323C302.578 53.7292 301.557 53.6667 300.526 53.7031C296.995 53.8229 293.464 54.0104 289.932 54.1146C288.214 54.1667 286.484 54.4323 284.797 53.7031C284.484 53.5677 284.109 53.651 283.766 53.6458C279.885 53.6094 276.005 53.5781 272.125 53.5365C267.813 53.4896 263.495 53.4687 259.188 53.3594C257.557 53.3177 255.922 52.9115 254.292 52.9479C252.656 52.9792 251.031 52.8802 249.417 52.6458C248.552 52.5156 247.682 52.401 246.875 52.6927C244.943 53.3958 242.969 53.4219 241 53.625C240.172 53.7135 239.339 53.7865 238.51 53.849C239.625 53.8854 240.75 53.9271 241.87 53.9635C243.073 54.0052 244.281 54.0833 245.49 54.1146C249.026 54.2187 252.563 54.276 256.099 54.401C260.318 54.5521 264.547 54.7344 268.766 54.9427C272.464 55.1198 276.161 55.3906 279.854 55.526C281.661 55.599 283.51 55.724 285.286 55.3542C287.87 54.8229 290.438 54.8646 293.026 55C293.031 55.0052 293.036 55.0104 293.042 55.0156C293.839 54.2396 294.755 54.1979 295.698 54.2969C297.25 54.4583 298.802 54.7604 300.339 54.6719C301.573 54.5937 302.719 54.7969 303.896 55.2031C304.469 55.401 305.12 55.5729 305.672 55.4062C307.057 54.9896 308.401 55.0833 309.771 55.4323C310.271 55.5573 310.802 55.5052 311.323 55.5104C313.651 55.5417 315.984 55.5833 318.313 55.5781C318.76 55.5781 319.255 55.75 319.688 55.3073C319.036 54.7448 318.115 55.5521 317.411 54.1719C319.401 54.4271 321.177 53.9323 322.979 54.1094C324.953 54.2969 326.927 54.599 328.901 54.8333C329.411 54.8958 329.948 55.0156 330.438 54.875C331.146 54.6771 331.807 54.8021 332.484 54.9844C335.641 55.8333 338.844 55.5365 342.031 55.6979C344.781 55.8385 347.552 55.6406 350.302 55.8698C351.125 55.9375 351.958 55.9896 352.786 56.0833C353.146 56.0885 353.505 56.0937 353.865 56.1042C355.797 56.1927 357.646 55.724 359.479 55.0625C359.672 54.9948 359.807 54.6198 360.172 54.099C358.234 53.9323 356.568 55.2604 354.87 54.5052C353.078 55.0417 351.266 54.6562 349.578 54.8594C348.974 54.3594 348.318 54.2396 348.083 53.3958C348.161 53.2031 348.24 53.026 348.37 52.7344C349.323 53.1562 350.302 53.4844 351.302 52.6875C351.615 52.4375 352.177 52.5 352.563 52.6667C353.74 53.1771 354.885 53.276 356.078 52.7292C356.474 52.5469 356.932 52.6042 357.359 52.6198C357.432 52.6198 357.5 52.625 357.568 52.625C356.969 52.5573 356.37 52.4948 355.766 52.4479C354.651 52.3646 353.474 52.5833 352.422 52.2083C352.313 52.1719 352.203 52.151 352.089 52.1146C351.667 52.1146 351.245 52.1146 350.818 52.1146C349.745 52.1042 348.656 52.2865 347.594 51.8958C347.063 51.8854 346.536 51.849 346.01 51.8073C345.474 51.875 344.943 51.9531 344.411 52.0573C344.323 52.0729 344.25 52.2656 344.167 52.3802C344.76 52.9167 345.589 52.2135 346.083 53.1094C345.953 53.224 345.833 53.4271 345.708 53.4323C344.589 53.4844 343.469 53.5312 342.349 53.526C341.057 53.5104 339.771 53.3906 338.479 53.401C336.318 53.4115 334.161 53.4948 332.005 53.5312C330.797 53.5469 329.589 53.5469 328.38 53.4948C328.193 53.4896 328.016 53.1406 327.828 52.9479C328.432 51.9844 329.167 52.5573 329.813 52.4896C330.474 52.4271 331.182 52.6146 331.776 51.6979C331.458 51.6042 331.245 51.4948 331.021 51.4687ZM306.656 144.656C306.63 144.641 306.557 144.724 306.505 144.76C306.641 144.802 306.771 144.839 306.906 144.88C306.823 144.802 306.74 144.724 306.656 144.656ZM293.13 55.1042C293.208 55.1823 293.292 55.2604 293.375 55.3281C293.401 55.349 293.474 55.2604 293.526 55.224C293.396 55.1823 293.26 55.1458 293.13 55.1042ZM240.276 47.1094C238.714 46.8542 237.115 46.9323 235.526 46.849C235.302 47.0312 235.073 47.1927 234.865 47.3854C234.766 47.474 234.672 47.5521 234.578 47.6354C234.797 47.625 235.021 47.6198 235.24 47.6042C236.922 47.5052 238.599 47.2031 240.276 47.1094ZM263.318 51.1979C263.724 51.1823 264.135 51.0365 264.526 50.875C264.646 50.8281 264.703 50.5365 264.786 50.3594C264.729 50.3125 264.667 50.2187 264.604 50.2187C263.182 50.2083 261.755 50.2135 260.25 50.2135C260.25 50.5312 260.25 50.8125 260.25 51.2135C261.307 51.2135 262.313 51.2396 263.318 51.1979ZM317.792 51.2552C317.563 51.1042 317.359 50.7708 317.052 51.0885C317.271 51.3906 317.536 51.2708 317.792 51.2552ZM329.599 37.0885C329.672 37.1094 329.755 37.125 329.823 37.099C329.88 37.0833 329.927 37.0104 329.974 36.9583C329.833 36.9583 329.693 36.9583 329.557 36.9583C329.568 36.9896 329.578 37.0833 329.599 37.0885ZM324.443 33.276C324.552 33.2917 324.667 33.2969 324.776 33.2917C325.375 33.2865 325.885 33.8229 326.323 34.4115C326.677 34.8854 327.068 35.349 327.505 35.6823C327.984 36.0365 328.479 35.974 328.833 35.3333C329.224 35.1562 329.682 35.151 329.932 34.5937C330.172 34.0417 330.547 33.8802 330.953 33.8594C330.938 33.849 330.922 33.8385 330.911 33.8281C330.146 33.1198 329.328 33.0365 328.448 33.0885C327.115 33.1615 325.776 33.2031 324.443 33.276ZM322.156 33.4375C321.505 33.5 320.849 33.5677 320.193 33.6667C318.5 33.9167 316.766 33.7344 315.047 33.7344C314.792 33.7344 314.484 33.5312 314.297 33.6562C313.563 34.1562 312.818 34.0573 312.083 33.9219C312.401 34.0104 312.568 34.2552 312.542 34.625C312.516 35.0885 312.198 35.4271 311.859 35.3594C311.495 35.2812 311.255 35.0156 311.182 34.5312C311.12 34.1354 311.427 33.8594 311.88 33.8906C311.891 33.8906 311.901 33.8958 311.911 33.8958C311.776 33.8698 311.635 33.8437 311.5 33.8229C310.813 33.724 310.177 33.4219 309.5 33.9219C309.297 34.0729 308.974 34.0781 308.745 33.9844C307.823 33.6198 306.896 33.6302 305.974 33.7448C305.938 34.3802 305.641 34.7969 305.25 35.0521C304.979 35.2292 304.599 35.2292 304.286 35.1562C304.099 35.1146 303.839 34.7969 303.818 34.5729C303.807 34.4219 303.854 34.2187 303.938 34.0417C302.188 34.2292 300.469 34.0417 298.734 33.7344C297.495 33.5104 296.25 33.4687 294.99 33.6719C295.198 33.8333 295.297 34 295.552 34.4323C294.938 34.9271 294.323 34.9323 293.484 34.3073C293.656 34.1302 293.792 33.9896 293.917 33.8646C292.599 34.1146 291.276 34.3542 289.984 34.2031C289.448 34.1354 288.906 34.1094 288.365 34.0937C288.505 34.0937 288.641 34.1927 288.797 34.2604C288.661 34.3281 288.547 34.4375 288.427 34.4375C288.286 34.4375 288.151 34.3385 288.01 34.2865C288.125 34.2187 288.24 34.099 288.354 34.099C286.75 34.0677 285.151 34.2083 283.547 34.1667C282.807 34.1458 282.094 34.1927 281.365 34.3125C281.313 34.4375 281.255 34.5573 281.208 34.6771C281.151 34.5729 281.094 34.4687 281.036 34.3646C280.5 34.4427 279.958 34.474 279.411 34.4948C279.589 34.75 279.813 34.9635 280.135 35.0885C280.417 35 280.828 34.875 281.245 34.7448L281.198 34.7031C281.203 34.6927 281.203 34.6875 281.208 34.6771C281.214 34.6875 281.219 34.7031 281.224 34.7083C281.703 34.9167 282.161 35.1927 282.651 35.2917C283.417 35.4479 284.193 35.4948 284.969 35.5469C285.911 35.6094 286.854 35.6667 287.802 35.6719C288.229 35.6719 288.708 35.3229 289.073 35.4844C290.453 36.0885 291.807 35.5729 293.172 35.5104C293.865 35.4844 294.516 35.5469 295.203 35.651C296.823 35.8958 298.469 35.8802 300.104 35.9479C300.703 35.9792 301.323 35.8385 301.906 35.9792C304.047 36.4948 306.203 36.4635 308.365 36.5625C309.917 36.6302 311.469 36.7448 313.01 37.0156C314.135 37.2187 315.234 37.2187 316.359 37.026C317.469 36.8385 318.646 36.4635 319.703 36.7396C321.349 37.1562 322.958 36.8906 324.578 36.9062C325.427 36.9115 326.266 37.4792 327.141 37.026C327.073 36.9062 327.042 36.7708 326.979 36.7448C326.177 36.4271 325.365 36.125 324.536 35.8073C324.536 35.276 324.536 34.75 324.536 34.2135C323.766 33.8594 322.88 33.9896 322.156 33.4375ZM318.188 31.276C318.245 31.3594 318.307 31.4427 318.37 31.526C318.911 31.5469 319.458 31.526 320.005 31.5156C320.474 31.5052 320.948 31.5156 321.411 31.5365C320.427 31.3177 319.448 31.0781 318.474 30.8125C318.411 30.7969 318.292 31.099 318.188 31.276ZM289.375 28.8125L289.38 29.0469L289.568 28.9323L289.375 28.8125ZM259.193 27.4479C260.188 28.3854 260.313 28.5312 260.99 28.276C262.078 27.8646 263.172 27.7552 264.292 27.7708C267.036 27.8021 269.776 27.7812 272.516 27.7604C272.708 27.7604 273.052 27.9531 273.021 27.3385C272.813 27.1979 272.604 26.9844 272.37 26.9115C271.047 26.4844 269.688 27.6771 268.359 26.7552C268.182 26.6354 267.87 26.8333 267.615 26.901C267.531 26.9219 267.458 27 267.375 27.0156C266.958 27.1146 266.542 27.2708 266.12 27.276C264.068 27.2969 262.01 27.2656 259.953 27.2656C259.714 27.2656 259.464 27.3802 259.193 27.4479ZM255.943 27.9115C256.042 28.0365 256.125 28.1823 256.234 28.2708C256.276 28.3021 256.38 28.2031 256.458 28.1667C256.359 28.0312 256.255 27.901 256.151 27.7656C256.083 27.8177 256.01 27.8646 255.943 27.9115ZM243.823 24.875C243.901 24.8958 243.984 24.9427 244.063 24.9323C244.37 24.8906 244.385 24.7812 244.099 24.651C244.026 24.6146 243.927 24.6406 243.854 24.6719C243.828 24.6823 243.828 24.8073 243.823 24.875ZM230.266 28.224L230.401 28.3281L230.411 28.1562L230.266 28.224ZM226.12 28.8021C226.224 28.8594 226.323 28.9167 226.422 28.9792C226.484 28.9427 226.552 28.901 226.609 28.8594C226.505 28.8021 226.417 28.724 226.307 28.6927C226.255 28.6823 226.188 28.7656 226.12 28.8021ZM218.792 28.9479C219.813 29.5677 220.63 28.9896 221.453 28.8698C220.641 28.8698 219.807 28.2969 218.792 28.9479ZM215.12 32.0625C215.161 32.6875 215.443 32.9479 215.74 33.0573C216.151 33.2031 216.594 33.3281 217.016 33.276C218.646 33.0677 220.266 32.9792 221.901 33.1302C222.406 33.1771 222.927 33.026 223.432 32.8802C224.182 32.6562 224.917 32.3542 225.547 32.125C226.589 32.4375 227.505 32.7135 228.188 32.9219C229.438 32.6458 230.448 32.4219 231.49 32.1927C232.875 33.1406 234.292 33.0885 235.766 32.6406C237.302 32.1771 238.87 32.5365 240.396 32.7917C241.344 32.9531 242.229 33.3594 243.12 32.5573C243.297 32.3958 243.656 32.3958 243.87 32.5156C244.875 33.1042 245.891 32.8437 246.922 32.7292C247.599 32.6562 248.302 32.6771 248.979 32.8125C250.698 33.1562 252.406 33.2552 254.068 32.5312C254.911 32.9583 255.714 33.2292 256.609 33.1042C257.547 32.974 258.505 33.0885 259.453 33.0937C260.911 33.099 262.375 33.0937 263.62 33.0937C265.901 31.3854 265.901 31.3854 267.417 32.151C267.104 32.4583 266.818 32.7344 266.49 33.0573C267.344 33.4167 268.198 33.0677 268.995 33.599C268.422 34.2187 267.672 33.7083 267.24 34.4479C267.724 34.5104 268.203 34.5625 268.688 34.6094C268.766 34.401 268.833 34.25 268.927 34.2083C270.146 33.625 271.438 33.6198 272.714 33.5625C273.458 33.5312 274.198 33.5417 274.932 33.526C274.557 33.3177 273.958 33.6302 273.745 32.875C274.495 31.3802 275.745 32.026 276.776 31.6458C277.078 31.974 277.313 32.349 277.609 32.526C277.885 32.6875 278.229 32.6406 278.458 32.6719C278.516 32.75 278.568 32.8333 278.62 32.9167C279.734 32.7604 280.854 32.7917 281.974 32.8385C283.188 32.8854 284.385 33 285.583 32.6406C285.917 32.5417 286.302 32.3906 286.604 32.5156C287.813 33.026 288.995 32.3646 290.161 32.4583C292.328 32.625 294.453 32.0469 296.599 32.2031C298.667 32.3594 300.729 32.5 302.786 32.7031C303.911 32.8125 305.016 32.75 306.141 32.5625C308.531 32.1562 310.938 31.8906 313.339 31.5625C313.854 31.4896 314.359 31.3646 314.88 31.2969C315.234 31.25 315.615 31.1458 315.969 31.1458C314.688 30.5104 313.354 30.375 312.042 30.4323C311.557 30.8542 311.141 31.2292 310.943 31.401C309.813 31.401 308.948 31.4635 308.089 31.3854C306.38 31.2448 304.646 31.2865 303.073 30.1458C302.891 30.0156 302.604 30.1406 302.359 30.1458C302.193 30.1458 302.021 30.1354 301.854 30.125C301.771 30.1458 301.698 30.1406 301.625 30.1146C301.365 30.1042 301.104 30.1146 300.859 30.1979C300.375 30.3594 299.943 30.7812 299.521 31.0729C298.958 30.6719 298.469 30.0469 297.943 29.9896C296.141 29.7969 294.318 29.6146 292.521 29.8021C291.318 29.9271 290.172 30.0156 288.964 29.8281C287.776 29.6406 286.557 29.9062 285.349 29.974C283.896 30.0573 282.411 30.4427 280.995 30.1667C279.177 29.8177 277.385 29.9948 275.583 30.0417C274.036 30.0833 272.474 30.4062 270.938 30.2344C269.391 30.0625 267.854 30.1667 266.313 30.026C265.458 29.9531 264.568 29.9115 263.74 30.1302C262.453 30.4687 261.177 30.474 259.885 30.3958C257.563 30.2552 255.24 30.2396 252.932 29.9375C251.271 29.7187 249.672 29.7969 248.125 30.4062C247.422 30.0885 246.776 29.7917 246.172 29.5208C245.38 29.8906 244.661 30.2344 243.87 30.6042C243.01 29.9948 242.094 29.901 241.13 30.2083C240.286 30.4792 239.438 30.5052 238.578 30.1927C237.557 29.8229 236.563 29.875 235.536 30.3385C234.651 30.7448 233.698 30.9062 232.917 31.1406C231.458 30.7552 230.115 30.3958 228.969 30.0937C228.229 30.5 227.682 31.0417 227.135 31.0521C225.609 31.0781 224.094 31.4219 222.563 31.3542C221.276 31.2969 219.995 31.5625 218.693 31.4219C218.125 31.3594 217.531 31.7656 216.938 31.875C216.339 31.9896 215.74 32.0052 215.12 32.0625ZM221.917 47.8646C221.87 47.8958 221.823 47.9271 221.781 47.9583C222.068 47.875 222.354 47.7865 222.641 47.6927C222.938 47.599 223.234 47.526 223.536 47.4635C222.974 47.0156 222.385 46.9323 221.755 47.2552C221.813 47.4792 221.859 47.6719 221.917 47.8646ZM204.083 32.8906C204.609 33.3281 205.167 33.2448 205.63 33.0625C206.484 32.7187 207.318 32.849 208.156 33.0156C209.344 33.2448 210.516 33.4219 211.688 32.7917C212.042 32.6042 212.531 32.8802 212.953 32.8802C213.083 32.8802 213.214 32.6719 213.344 32.5625C213.224 32.4167 213.125 32.1823 212.995 32.151C212.656 32.0729 212.307 32.0208 211.974 32.0677C211.109 32.1823 210.281 32.0521 209.417 31.901C207.813 31.6042 206.182 31.9687 204.578 32.2396C204.401 32.2708 204.25 32.6615 204.083 32.8906ZM191.547 178.052C190.005 177.339 190.005 177.328 189.031 178.229C189.609 178.255 190.182 178.307 190.76 178.292C191 178.286 191.24 178.151 191.547 178.052ZM207.26 48.375C208.542 48.4844 209.813 48.8437 211.099 48.9531C211.859 49.0156 212.641 48.8437 213.406 48.7031C214.604 48.4792 215.786 48.3437 217.016 48.5312C218.432 48.7552 219.833 48.5104 221.214 48.1302C220.875 48.1302 220.526 48.1198 220.188 48.0677C219.766 48.0052 219.313 47.6823 218.938 47.8021C217.359 48.3125 215.911 47.6823 214.411 47.2344C213.427 46.9375 212.37 46.875 211.354 46.9844C209.922 47.1458 208.5 47.5573 207.234 47.8281C204.984 46.6615 202.891 46.625 200.771 47.474L200.797 47.5104C200.651 47.3958 200.516 47.1979 200.365 47.1719C198.234 46.8229 196.052 47.2812 193.948 46.5C193.797 46.4427 193.615 46.5833 193.443 46.6042C192.589 46.7135 191.734 46.8802 190.885 46.8958C190.401 46.9062 189.911 46.9167 189.427 46.9219C189.781 46.9583 190.135 47.0156 190.49 47.099C191.432 46.7969 192.276 46.9792 193.219 47.4635C194.036 47.875 195.078 47.6406 196.01 47.5521C196.781 47.4792 197.542 47.25 198.313 47.599C199.891 48.3073 201.568 47.7083 203.167 48.1771C204.547 47.625 205.901 48.2604 207.26 48.375ZM220.693 177.208C218.073 176.49 215.599 176.286 213.109 176.292C212.255 176.292 211.401 176.109 210.547 175.974C209.286 175.781 208.031 175.604 206.677 175.776C207.854 176.568 209.01 176.729 210.229 176.76C212.203 176.802 214.177 177.036 216.151 177.198C216.667 177.24 217.177 177.359 217.693 177.38C218.203 177.396 218.719 177.339 219.24 177.318C219.661 177.302 220.109 177.536 220.693 177.208ZM224.036 143.083C221.635 143.094 219.224 143.104 216.818 143.094C215.615 143.089 214.349 143.266 213.224 142.839C211.714 142.271 210.375 142.339 208.979 143.177C208.146 143.677 207.302 143.573 206.516 142.885C206.365 142.755 206.193 142.677 205.995 142.578C205.823 142.62 205.641 142.667 205.464 142.708C205.354 142.797 205.245 142.885 205.135 142.974C205.578 143.01 205.958 143.016 206.292 143.193C207.635 143.87 208.964 143.875 210.339 143.396C210.646 143.281 211.005 143.37 211.344 143.401C212.026 143.464 212.724 143.708 213.391 143.615C214.625 143.443 215.786 143.776 217.151 144.208C218.708 143.375 220.26 143.661 221.792 143.786C222.63 143.859 223.344 143.542 224.036 143.083ZM225.01 47.2812C224.87 47.2656 224.734 47.2448 224.589 47.2344C224.354 47.2083 224.115 47.3073 223.88 47.401C224.255 47.3333 224.635 47.2917 225.01 47.2812ZM225.901 45.9115C225.797 45.8385 225.703 45.7396 225.589 45.7031C225.521 45.6823 225.432 45.7448 225.354 45.776C225.453 45.849 225.557 45.9219 225.661 46C225.745 45.9687 225.823 45.9427 225.901 45.9115ZM227.536 173.719C226.979 173.719 226.401 173.719 225.828 173.719C225.854 173.828 225.885 173.932 225.911 174.036C226.323 174.151 226.729 174.286 227.146 174.354C227.411 174.391 227.646 174.26 227.536 173.719ZM231.995 47.6667C231.859 47.5521 231.724 47.4271 231.583 47.2812C230.813 46.4479 229.875 46.2708 228.88 46.5104C228.62 46.8073 228.354 47.1146 228.052 47.4635C228.818 47.5365 229.583 47.599 230.354 47.6302C230.896 47.6406 231.448 47.6562 231.995 47.6667ZM234.865 174.484C234.797 174.484 234.729 174.479 234.661 174.49C234.656 174.49 234.651 174.563 234.641 174.604C234.703 174.62 234.776 174.635 234.839 174.635C234.849 174.635 234.859 174.536 234.865 174.484ZM237.313 147.005C236.693 146.911 236.073 146.781 235.458 146.604C234.635 146.37 233.771 146.313 232.891 146.516C232.651 146.573 232.401 146.604 232.156 146.62C233.87 146.792 235.589 146.948 237.313 147.005ZM240.036 143.359C239.245 143.286 238.766 143.198 238.286 143.219C238.13 143.224 237.974 143.177 237.818 143.12C237.464 143.12 237.109 143.12 236.76 143.125C236.719 143.161 236.677 143.203 236.63 143.255C237.656 143.922 237.656 143.922 240.036 143.359ZM242.979 175.63C242.365 175.813 241.885 175.953 241.432 176.089C241.906 176.104 242.422 176.328 242.979 175.63ZM260.516 162.198C260.422 162.052 260.349 161.828 260.245 161.781C259.813 161.609 259.365 161.365 258.891 161.724C258.922 161.74 258.948 161.755 258.974 161.771C259.005 161.734 259.036 161.703 259.068 161.698C259.198 161.672 259.339 161.849 259.474 161.938C259.453 161.974 259.427 162.016 259.406 162.052C259.745 162.271 260.089 162.432 260.516 162.198ZM261.234 147.542C261.161 147.505 261.094 147.432 261.016 147.438C260.776 147.448 260.724 147.573 260.885 147.719C260.938 147.766 261.047 147.745 261.12 147.714C261.167 147.693 261.198 147.599 261.234 147.542ZM263.01 163.781C262.833 163.568 262.693 163.401 262.531 163.266C262.453 163.198 262.255 163.344 262.12 163.427C262.089 163.443 262.083 163.656 262.12 163.719C262.214 163.88 262.307 164.042 262.432 164.161C262.63 164.031 262.828 163.917 263.01 163.781ZM268.448 166.063C268.214 166.005 267.979 165.917 267.75 165.833C267.5 165.75 267.26 165.563 267.01 165.573C266.823 165.578 266.646 165.828 266.464 165.964C266.583 166.12 266.682 166.391 266.818 166.411C267.188 166.479 267.563 166.526 267.932 166.573C267.927 166.563 267.927 166.552 267.922 166.547C268.089 166.313 268.266 166.151 268.448 166.063ZM267.38 164.453C267.708 164.453 268.042 164.453 268.37 164.453C268.37 164.365 268.365 164.276 268.365 164.188C268.031 164.219 267.698 164.245 267.365 164.276C267.375 164.328 267.38 164.391 267.38 164.453ZM269.01 148.516C270.469 148.667 271.922 148.797 273.38 148.927C274.328 149.01 275.276 149.12 276.219 149.151C277.01 149.177 277.807 149.198 278.599 149.156C278.922 149.083 279.25 149.089 279.552 149.073C280.396 148.969 281.234 148.813 282.073 148.677C281.984 147.891 281.255 148.031 281.016 147.464C281.443 147.385 281.88 147.349 282.292 147.219C283.979 146.688 285.667 146.375 287.417 146.516C288.438 146.599 289.516 146.495 290.505 146.161C292.484 145.495 294.458 145.682 296.417 146.057C297.453 146.255 298.474 146.318 299.505 146.286C303.036 146.161 306.568 145.979 310.099 145.87C311.818 145.818 313.552 145.552 315.234 146.286C315.547 146.422 315.922 146.339 316.266 146.339C320.151 146.38 324.026 146.406 327.906 146.448C332.219 146.495 336.536 146.516 340.844 146.625C342.479 146.667 344.115 147.073 345.74 147.042C347.375 147.005 349 147.104 350.615 147.344C351.479 147.469 352.349 147.583 353.156 147.292C355.089 146.594 357.063 146.563 359.031 146.359C359.859 146.271 360.693 146.203 361.526 146.135C360.406 146.099 359.281 146.063 358.161 146.026C356.958 145.984 355.75 145.901 354.542 145.87C351.005 145.766 347.469 145.714 343.938 145.583C339.714 145.438 335.484 145.25 331.266 145.047C327.568 144.87 323.87 144.599 320.177 144.458C318.37 144.385 316.521 144.26 314.745 144.63C312.161 145.161 309.594 145.12 307.005 144.984C307 144.979 306.995 144.974 306.995 144.969C306.193 145.745 305.276 145.786 304.333 145.688C302.786 145.531 301.234 145.229 299.693 145.318C298.458 145.391 297.313 145.188 296.141 144.786C295.568 144.583 294.911 144.411 294.359 144.578C292.974 145 291.63 144.906 290.26 144.557C289.76 144.432 289.229 144.479 288.708 144.474C286.38 144.443 284.047 144.401 281.719 144.406C281.271 144.406 280.776 144.24 280.344 144.677C280.995 145.24 281.917 144.432 282.62 145.813C280.63 145.557 278.854 146.052 277.052 145.88C275.078 145.688 273.104 145.385 271.13 145.151C270.62 145.094 270.083 144.969 269.594 145.109C268.885 145.313 268.224 145.182 267.547 145.005C264.391 144.156 261.188 144.448 258 144.292C255.25 144.151 252.479 144.344 249.729 144.12C248.906 144.047 248.078 143.995 247.245 143.901C246.885 143.901 246.526 143.896 246.167 143.88C244.24 143.797 242.385 144.26 240.552 144.922C240.359 144.995 240.224 145.365 239.859 145.891C241.802 146.052 243.464 144.729 245.161 145.479C246.953 144.943 248.766 145.328 250.453 145.125C251.057 145.625 251.714 145.75 251.948 146.594C251.87 146.781 251.792 146.958 251.667 147.255C250.708 146.828 249.729 146.505 248.729 147.302C248.417 147.547 247.859 147.49 247.469 147.318C246.292 146.807 245.146 146.708 243.953 147.26C243.563 147.438 243.099 147.38 242.672 147.365C242.599 147.365 242.531 147.359 242.464 147.359C243.068 147.432 243.661 147.49 244.266 147.536C245.38 147.62 246.557 147.401 247.609 147.776C247.724 147.813 247.828 147.839 247.943 147.87C248.365 147.87 248.786 147.87 249.214 147.875C250.286 147.885 251.375 147.703 252.438 148.094C252.969 148.104 253.495 148.135 254.021 148.182C254.557 148.109 255.089 148.031 255.62 147.932C255.708 147.911 255.786 147.719 255.865 147.604C255.271 147.068 254.443 147.771 253.948 146.875C254.078 146.76 254.198 146.557 254.323 146.557C255.443 146.505 256.563 146.453 257.682 146.464C258.974 146.474 260.26 146.599 261.552 146.589C263.714 146.573 265.87 146.49 268.026 146.458C269.234 146.438 270.448 146.438 271.651 146.49C271.839 146.5 272.016 146.844 272.203 147.042C271.599 148.005 270.865 147.432 270.219 147.495C269.557 147.563 268.849 147.37 268.255 148.286C268.573 148.38 268.786 148.495 269.01 148.516ZM336.719 148.786C336.307 148.807 335.896 148.948 335.505 149.115C335.391 149.161 335.328 149.448 335.245 149.625C335.302 149.672 335.365 149.766 335.427 149.766C336.849 149.776 338.276 149.771 339.781 149.771C339.781 149.453 339.781 149.172 339.781 148.771C338.724 148.771 337.719 148.745 336.719 148.786ZM282.24 148.729C282.469 148.88 282.677 149.214 282.984 148.901C282.76 148.594 282.495 148.719 282.24 148.729ZM270.432 162.901C270.359 162.875 270.276 162.859 270.208 162.885C270.151 162.901 270.104 162.979 270.057 163.031C270.198 163.031 270.339 163.031 270.474 163.031C270.464 162.995 270.453 162.901 270.432 162.901ZM275.589 166.714C275.479 166.698 275.365 166.688 275.255 166.693C274.656 166.703 274.146 166.161 273.708 165.573C273.354 165.099 272.964 164.635 272.526 164.307C272.047 163.948 271.557 164.01 271.203 164.651C270.807 164.828 270.349 164.833 270.099 165.391C269.859 165.943 269.484 166.104 269.078 166.13C269.094 166.135 269.109 166.146 269.12 166.156C269.885 166.865 270.703 166.948 271.583 166.896C272.917 166.823 274.255 166.781 275.589 166.714ZM277.875 166.547C278.526 166.49 279.182 166.417 279.839 166.318C281.531 166.068 283.266 166.255 284.984 166.255C285.24 166.255 285.547 166.453 285.734 166.328C286.464 165.828 287.214 165.927 287.948 166.063C287.635 165.974 287.464 165.734 287.495 165.359C287.521 164.896 287.839 164.557 288.182 164.63C288.547 164.703 288.786 164.974 288.859 165.458C288.922 165.849 288.609 166.13 288.161 166.094C288.151 166.094 288.141 166.094 288.13 166.094C288.266 166.115 288.406 166.141 288.542 166.161C289.229 166.266 289.865 166.563 290.542 166.063C290.74 165.917 291.068 165.911 291.297 166.005C292.219 166.365 293.146 166.359 294.063 166.24C294.104 165.604 294.401 165.188 294.792 164.938C295.063 164.76 295.443 164.76 295.755 164.828C295.943 164.87 296.203 165.188 296.224 165.411C296.234 165.563 296.188 165.766 296.104 165.943C297.854 165.755 299.573 165.948 301.307 166.255C302.547 166.474 303.792 166.521 305.052 166.313C304.844 166.151 304.745 165.99 304.49 165.557C305.109 165.057 305.719 165.052 306.552 165.682C306.385 165.859 306.25 166 306.125 166.125C307.438 165.87 308.766 165.635 310.052 165.781C310.594 165.849 311.135 165.875 311.672 165.891C311.531 165.891 311.396 165.792 311.24 165.729C311.375 165.656 311.49 165.552 311.609 165.552C311.75 165.552 311.891 165.651 312.026 165.698C311.911 165.766 311.792 165.885 311.682 165.885C313.286 165.917 314.885 165.781 316.49 165.823C317.229 165.839 317.943 165.792 318.672 165.672C318.724 165.552 318.776 165.427 318.828 165.307C318.885 165.417 318.943 165.516 319 165.62C319.536 165.542 320.078 165.516 320.625 165.49C320.448 165.24 320.224 165.026 319.901 164.896C319.62 164.984 319.208 165.115 318.792 165.245L318.833 165.286C318.828 165.297 318.828 165.297 318.823 165.307C318.823 165.297 318.813 165.286 318.807 165.276C318.333 165.073 317.87 164.792 317.38 164.693C316.615 164.542 315.839 164.495 315.063 164.443C314.125 164.375 313.177 164.323 312.229 164.318C311.802 164.318 311.323 164.667 310.958 164.5C309.578 163.896 308.224 164.411 306.865 164.474C306.167 164.5 305.516 164.438 304.828 164.333C303.208 164.094 301.563 164.104 299.927 164.036C299.328 164.01 298.708 164.146 298.125 164.01C295.984 163.49 293.828 163.526 291.667 163.427C290.12 163.354 288.563 163.24 287.021 162.969C285.896 162.771 284.797 162.771 283.672 162.958C282.563 163.146 281.391 163.526 280.328 163.25C278.688 162.828 277.073 163.094 275.453 163.078C274.604 163.078 273.766 162.505 272.891 162.958C272.958 163.078 272.99 163.214 273.052 163.24C273.859 163.563 274.667 163.865 275.495 164.182C275.495 164.714 275.495 165.234 275.495 165.776C276.266 166.13 277.151 166 277.875 166.547ZM281.844 168.708C281.786 168.625 281.724 168.542 281.661 168.458C281.12 168.443 280.573 168.458 280.026 168.474C279.557 168.484 279.089 168.474 278.62 168.448C279.604 168.667 280.583 168.906 281.557 169.172C281.62 169.193 281.74 168.885 281.844 168.708ZM310.656 171.172L310.651 170.938L310.464 171.052L310.656 171.172ZM340.839 172.536C339.844 171.599 339.719 171.453 339.042 171.714C337.958 172.12 336.859 172.229 335.74 172.214C332.995 172.182 330.255 172.203 327.51 172.224C327.323 172.224 326.974 172.031 327.005 172.651C327.214 172.786 327.422 173.005 327.656 173.078C328.979 173.5 330.339 172.307 331.667 173.229C331.844 173.354 332.156 173.151 332.411 173.089C332.495 173.063 332.568 172.99 332.651 172.969C333.068 172.87 333.484 172.714 333.906 172.708C335.964 172.693 338.016 172.724 340.073 172.719C340.318 172.719 340.568 172.604 340.839 172.536ZM344.089 172.073C343.99 171.948 343.906 171.807 343.797 171.719C343.755 171.682 343.651 171.781 343.578 171.818C343.677 171.953 343.781 172.083 343.885 172.219C343.948 172.167 344.021 172.12 344.089 172.073ZM356.208 175.109C356.13 175.089 356.047 175.042 355.969 175.052C355.661 175.094 355.646 175.208 355.932 175.339C356.005 175.37 356.104 175.349 356.177 175.313C356.203 175.307 356.203 175.177 356.208 175.109ZM369.766 171.76L369.63 171.661L369.62 171.828L369.766 171.76ZM373.911 171.188C373.807 171.125 373.708 171.068 373.609 171.01C373.547 171.047 373.484 171.089 373.422 171.125C373.526 171.188 373.62 171.266 373.724 171.292C373.776 171.302 373.844 171.224 373.911 171.188ZM381.24 171.042C380.219 170.417 379.401 171 378.578 171.115C379.391 171.115 380.224 171.688 381.24 171.042ZM384.911 167.922C384.87 167.297 384.589 167.036 384.292 166.932C383.88 166.781 383.438 166.661 383.016 166.714C381.385 166.917 379.766 167.01 378.13 166.854C377.625 166.807 377.104 166.958 376.599 167.109C375.849 167.333 375.115 167.635 374.484 167.865C373.443 167.552 372.526 167.271 371.844 167.068C370.594 167.339 369.583 167.563 368.542 167.792C367.156 166.844 365.74 166.896 364.266 167.344C362.729 167.813 361.161 167.453 359.635 167.198C358.688 167.031 357.802 166.625 356.917 167.427C356.74 167.594 356.375 167.594 356.167 167.469C355.156 166.885 354.141 167.146 353.109 167.255C352.432 167.333 351.729 167.307 351.052 167.172C349.333 166.833 347.625 166.729 345.964 167.458C345.125 167.026 344.318 166.755 343.422 166.885C342.484 167.016 341.526 166.896 340.578 166.891C339.12 166.891 337.656 166.891 336.411 166.891C334.13 168.604 334.13 168.604 332.615 167.833C332.927 167.526 333.214 167.25 333.542 166.932C332.688 166.573 331.839 166.917 331.036 166.385C331.609 165.771 332.359 166.276 332.792 165.536C332.307 165.474 331.828 165.427 331.344 165.38C331.266 165.583 331.198 165.74 331.104 165.781C329.885 166.359 328.594 166.365 327.318 166.422C326.573 166.453 325.833 166.448 325.099 166.458C325.474 166.667 326.073 166.359 326.286 167.109C325.536 168.609 324.286 167.958 323.255 168.344C322.953 168.01 322.719 167.641 322.422 167.464C322.146 167.297 321.802 167.344 321.573 167.313C321.516 167.24 321.464 167.156 321.411 167.068C320.297 167.224 319.177 167.198 318.057 167.151C316.844 167.104 315.646 166.984 314.448 167.344C314.115 167.443 313.729 167.599 313.427 167.469C312.224 166.958 311.036 167.62 309.87 167.526C307.703 167.359 305.578 167.943 303.432 167.781C301.37 167.63 299.302 167.484 297.245 167.286C296.12 167.172 295.016 167.24 293.891 167.422C291.5 167.828 289.094 168.094 286.693 168.427C286.177 168.495 285.672 168.62 285.156 168.688C284.797 168.734 284.417 168.839 284.063 168.839C285.344 169.474 286.677 169.609 287.99 169.552C288.474 169.13 288.891 168.755 289.089 168.583C290.219 168.583 291.083 168.526 291.943 168.599C293.651 168.745 295.391 168.703 296.958 169.839C297.141 169.969 297.427 169.849 297.672 169.844C297.839 169.839 298.01 169.854 298.177 169.859C298.26 169.844 298.333 169.849 298.406 169.87C298.667 169.88 298.932 169.87 299.172 169.786C299.656 169.63 300.089 169.203 300.51 168.917C301.073 169.318 301.563 169.943 302.089 169.995C303.896 170.188 305.714 170.37 307.51 170.182C308.714 170.057 309.859 169.969 311.068 170.161C312.255 170.344 313.474 170.078 314.682 170.01C316.135 169.927 317.625 169.547 319.036 169.818C320.859 170.167 322.646 169.99 324.448 169.948C326 169.901 327.557 169.583 329.094 169.75C330.641 169.922 332.177 169.818 333.719 169.958C334.573 170.036 335.464 170.078 336.297 169.859C337.583 169.516 338.859 169.51 340.151 169.594C342.474 169.729 344.797 169.745 347.104 170.047C348.766 170.266 350.359 170.188 351.911 169.583C352.615 169.901 353.26 170.193 353.865 170.469C354.656 170.094 355.375 169.755 356.167 169.38C357.026 169.99 357.943 170.083 358.906 169.776C359.75 169.505 360.599 169.479 361.458 169.792C362.479 170.167 363.474 170.115 364.5 169.646C365.385 169.24 366.339 169.078 367.12 168.844C368.578 169.234 369.922 169.594 371.068 169.896C371.807 169.484 372.354 168.943 372.901 168.932C374.427 168.906 375.943 168.568 377.474 168.63C378.76 168.688 380.042 168.427 381.344 168.568C381.911 168.625 382.505 168.219 383.099 168.109C383.693 167.995 384.292 167.984 384.911 167.922ZM395.948 167.094C395.422 166.661 394.865 166.745 394.401 166.927C393.547 167.266 392.714 167.135 391.875 166.974C390.688 166.745 389.521 166.568 388.344 167.198C387.99 167.38 387.5 167.109 387.078 167.109C386.953 167.109 386.818 167.313 386.688 167.422C386.807 167.568 386.906 167.802 387.042 167.833C387.375 167.911 387.724 167.964 388.057 167.917C388.922 167.807 389.75 167.932 390.615 168.083C392.224 168.38 393.849 168.016 395.453 167.745C395.635 167.714 395.781 167.328 395.948 167.094ZM410.609 153.063C410.255 153.026 409.901 152.969 409.547 152.885C408.604 153.188 407.76 153 406.818 152.521C406 152.104 404.958 152.344 404.026 152.432C403.255 152.5 402.495 152.729 401.724 152.385C400.146 151.677 398.469 152.271 396.87 151.802C395.49 152.365 394.135 151.729 392.781 151.609C391.495 151.505 390.229 151.141 388.943 151.031C388.182 150.969 387.396 151.141 386.635 151.286C385.438 151.51 384.25 151.646 383.026 151.453C381.609 151.229 380.208 151.474 378.828 151.859C379.167 151.854 379.51 151.87 379.854 151.917C380.276 151.979 380.729 152.307 381.104 152.182C382.682 151.672 384.13 152.307 385.63 152.755C386.615 153.047 387.672 153.115 388.682 153C390.12 152.844 391.542 152.427 392.802 152.156C395.057 153.328 397.151 153.365 399.271 152.51L399.245 152.474C399.391 152.589 399.526 152.792 399.677 152.813C401.807 153.161 403.99 152.708 406.094 153.484C406.245 153.542 406.427 153.401 406.599 153.38C407.453 153.276 408.302 153.109 409.156 153.089C409.635 153.073 410.125 153.068 410.609 153.063ZM411 21.7604C410.422 21.7292 409.849 21.6823 409.271 21.6927C409.031 21.6979 408.792 21.8333 408.484 21.9375C410.026 22.651 410.026 22.6562 411 21.7604ZM417.115 152.964C416.656 152.786 416.188 152.755 415.693 152.802C414.995 152.87 414.307 152.958 413.615 153.026C414.776 153.016 415.943 152.995 417.115 152.964ZM375.583 177.172C375.078 176.813 374.688 176.964 374.385 177.521C374.807 177.583 375.245 177.724 375.583 177.172ZM385.979 180.479C384.844 180.443 383.854 180.401 382.87 180.385C382.771 180.385 382.672 180.573 382.578 180.667C383.667 180.182 384.781 181.807 385.979 180.479ZM407.505 178.724C406.083 178.802 404.802 179 403.542 178.901C400.63 178.682 397.74 179.146 394.839 179.182C394.495 179.188 394.141 179.203 393.813 179.302C392.036 179.823 390.234 179.88 388.427 179.781C388.12 179.76 387.703 179.875 388.073 180.646C389.865 179.807 391.563 180.99 393.568 181.068C394.422 180.25 395.651 180.047 396.813 180.474C398.49 181.089 400.026 180.823 401.578 179.984C402.146 179.677 402.771 179.38 403.328 179.729C404.63 180.531 405.854 179.74 407.104 179.536C407.229 179.516 407.328 179.104 407.505 178.724ZM415.901 178.521C413.656 178.422 411.458 178.135 409.276 178.76C410.604 179.646 410.635 179.745 411.156 179.484C412.38 178.88 413.656 178.891 414.927 178.797C415.094 178.781 415.271 178.802 415.432 178.755C415.594 178.708 415.745 178.599 415.901 178.521ZM419.099 177.984C418.979 177.948 418.859 177.885 418.74 177.875C418.573 177.854 418.401 177.87 418.229 177.87C418.229 177.901 418.224 177.927 418.224 177.964C418.432 177.974 418.635 178 418.844 178.01C418.927 178.01 419.016 177.995 419.099 177.984ZM422.703 173.922C421.958 173.641 421.24 173.661 420.568 174.109C421.281 174.047 421.99 173.979 422.703 173.922ZM431.49 151.943C431.219 151.891 430.974 151.813 430.719 151.802C429.156 151.74 427.599 151.672 426.036 151.609C426.104 151.917 426.188 152.193 426.198 152.469C427.661 152.469 429.12 152.484 430.583 152.479C430.755 152.479 430.938 152.49 431.094 152.422C431.255 152.359 431.578 152.453 431.49 151.943ZM435.646 146.094C435.167 145.854 434.76 145.708 434.396 145.453C434.021 145.198 433.688 144.833 433.25 144.438C431.333 144.5 429.354 144.531 427.38 144.641C426.87 144.667 426.37 144.891 425.865 145.052C425.708 145.099 425.557 145.219 425.406 145.302C425.568 145.365 425.724 145.458 425.891 145.495C426.505 145.641 427.125 145.719 427.75 145.781C427.771 145.781 427.792 145.776 427.813 145.776C427.813 145.781 427.818 145.781 427.818 145.786C428.786 145.88 429.755 145.938 430.719 146.115C432.344 146.411 433.938 146.094 435.646 146.094ZM439.047 145.453C438.849 145.318 438.734 145.177 438.615 145.177C438.396 145.182 438.177 145.271 437.865 145.344C438.073 145.474 438.188 145.609 438.297 145.609C438.526 145.599 438.745 145.521 439.047 145.453ZM455.693 165.01C455.745 165.063 455.786 165.146 455.839 165.156C455.896 165.161 455.958 165.109 456.016 165.073C455.911 165.057 455.802 165.031 455.693 165.01ZM443.208 157.521L443.385 157.656L443.422 157.474L443.208 157.521ZM468.177 129.75C468.115 129.724 468.052 129.703 467.99 129.682C467.927 129.703 467.865 129.724 467.797 129.75C467.859 129.771 467.927 129.813 467.984 129.813C468.047 129.813 468.109 129.771 468.177 129.75ZM446.365 39.0573C446.531 39.0208 446.708 39.0677 446.875 39.1198C447.818 39.4375 448.745 39.1406 449.682 39.0312C451.37 38.8281 453.042 38.5521 454.76 38.651C456.547 38.75 458.375 38.6615 460.135 38.2812C461.776 37.9271 463.365 37.7812 464.964 38.4323C466.167 37.7187 467.354 37.1042 468.667 37.0104C468.844 37 469.005 36.599 469.172 36.349C468.104 35.8229 467.021 35.8333 465.917 36.1458C464.474 36.5521 463.01 36.5208 461.547 36.4219C461.203 36.3958 460.807 36.2083 460.531 36.3646C459.12 37.1615 457.625 36.6823 456.188 36.9427C454.917 37.1771 453.62 37.4167 452.354 37.3125C451.052 37.1979 449.786 37.3281 448.495 37.5104C446.87 37.7396 445.224 37.7656 443.589 37.9219C442.047 38.0729 440.505 38.2604 438.958 38.4531C438.625 38.4948 438.323 38.6562 438.198 39.1198C440.906 39.0052 443.641 39.6562 446.365 39.0573ZM438.182 39.125C438.167 39.125 438.151 39.125 438.135 39.125C438.13 39.1354 438.125 39.1458 438.12 39.1615C438.135 39.1719 438.151 39.1719 438.161 39.1823C438.172 39.1562 438.177 39.1406 438.182 39.125ZM464.729 145.052C463.536 145.193 462.354 145.453 461.167 145.677C459.813 145.932 458.453 146.167 457.109 146.464C456.745 146.542 456.542 146.891 456.807 147.552C458.354 147.948 459.953 147.88 461.568 147.484C463.068 147.115 464.526 146.432 466.083 146.406C466.583 146.396 467.083 146.104 467.573 145.911C468.109 145.703 468.771 146.156 469.266 145.344C468.682 144.552 468.125 143.75 467.203 143.656C466.484 144.432 465.693 144.943 464.729 145.052ZM467.208 143.651C467.219 143.635 467.234 143.62 467.255 143.604C467.255 143.604 467.255 143.604 467.25 143.604C467.229 143.62 467.219 143.635 467.198 143.651C467.203 143.651 467.203 143.651 467.208 143.651ZM288.724 180.417C287.891 180.177 287.052 179.969 286.208 179.802C286.073 179.776 285.906 179.964 285.76 180.057C285.776 180.172 285.755 180.339 285.802 180.38C286.698 181.12 287.708 181.125 288.714 181.172C288.776 181.177 288.896 181.01 288.885 180.948C288.859 180.755 288.807 180.443 288.724 180.417ZM310.604 178.729C311.542 178.807 312.307 179.354 313.115 178.969C313.318 178.208 312.719 178.063 312.625 177.583C312.063 177.651 311.495 177.682 310.943 177.823C310.818 177.849 310.76 178.297 310.604 178.729ZM312.625 177.578C312.641 177.578 312.656 177.573 312.667 177.573C312.656 177.557 312.641 177.536 312.62 177.521C312.62 177.521 312.62 177.521 312.615 177.521C312.62 177.542 312.62 177.563 312.625 177.578ZM198.984 179.13C200.99 179.823 200.99 179.823 202.125 179.203C201.099 178.599 200.161 178.958 198.984 179.13ZM462.276 35.4115C460.583 34.6615 460.583 34.6615 459.865 35.6302C460.708 36.125 461.495 35.7708 462.276 35.4115ZM366.729 182.88C367.969 182.927 369.036 182.964 370.104 183C369.036 182.219 368.344 182.182 366.729 182.88ZM370.104 183C370.13 183.016 370.156 183.036 370.182 183.057C370.208 183.057 370.224 183.047 370.25 183.047C370.24 183.031 370.224 183.016 370.214 183.005C370.172 183.005 370.141 183.005 370.104 183ZM335.536 179C335.047 179.036 334.51 178.714 334 179.339C334.771 179.708 335.469 179.823 336.375 179.313C335.979 179.156 335.755 178.984 335.536 179ZM438.438 30.6094C438.573 30.4323 438.776 30.2344 438.885 29.9687C438.927 29.875 438.797 29.5312 438.688 29.4583C438.385 29.2604 438.036 29.5312 437.943 30.0365C437.917 30.1875 438.042 30.4115 438.125 30.5729C438.161 30.6302 438.286 30.5937 438.438 30.6094ZM482.234 152.771C482.417 153.38 482.854 153.406 483.245 153.495C483.365 153.521 483.573 153.396 483.63 153.255C483.682 153.141 483.609 152.828 483.521 152.745C483.104 152.365 482.661 152.188 482.234 152.771ZM370.245 183.047C370.359 183.188 370.474 183.385 370.604 183.406C371.604 183.542 371.641 183.51 373.01 182.49C371.938 182.042 371.13 182.917 370.245 183.047ZM330.474 180.135C330.911 180.193 331.302 180.25 331.693 180.281C331.755 180.286 331.885 180.141 331.875 180.099C331.839 179.911 331.797 179.646 331.698 179.583C331.245 179.328 330.771 179.156 330.474 180.135ZM310.792 183.969C311.26 184.531 311.755 184.583 312.344 184.167C311.839 183.479 311.328 183.604 310.792 183.969ZM468.724 30.5729C467.609 30.4948 467.609 30.5 467.276 31.3542C467.646 31.3698 467.958 31.4115 468.266 31.3906C468.646 31.3594 468.901 31.1615 468.724 30.5729ZM446.969 31.5885C447.078 31.5625 447.161 31.3021 447.26 31.1562C447.141 31.0312 447.016 30.8073 446.896 30.8125C446.578 30.8385 446.271 30.9427 445.958 31.026C446.13 31.6875 446.547 31.6875 446.969 31.5885ZM255.552 178.036C255.901 178.036 256.193 178.036 256.583 178.036C256.188 177.583 255.896 177.51 255.552 178.036ZM449.219 34.3073C449.448 34.3021 449.677 34.2344 449.901 34.1562C449.932 34.1458 449.927 33.9531 449.938 33.8542C449.885 33.7708 449.823 33.6094 449.776 33.6198C449.542 33.6667 449.323 33.75 449.094 33.8229C449.135 33.9948 449.177 34.3073 449.219 34.3073ZM314.693 179.307C315.401 179.646 315.401 179.646 315.766 179.068C315.365 178.927 314.979 178.672 314.693 179.307ZM283.448 179.813C283.359 179.885 283.286 179.99 283.208 180.078C283.276 180.109 283.339 180.135 283.406 180.172C283.469 180.115 283.526 180.063 283.583 180.005C283.536 179.943 283.458 179.802 283.448 179.813ZM335.943 180.573C335.979 180.661 336.01 180.823 336.052 180.828C336.203 180.839 336.354 180.797 336.5 180.771C336.448 180.62 336.396 180.464 336.339 180.313C336.203 180.401 336.073 180.49 335.943 180.573ZM355.724 181.875C355.724 181.875 355.724 182.042 355.724 182.13C355.87 182.13 356.016 182.13 356.161 182.12C356.167 182.12 356.161 181.953 356.167 181.865C356.021 181.865 355.87 181.859 355.724 181.875ZM469.891 36.5729C469.953 36.5365 469.984 36.4271 470.031 36.3437C469.911 36.2552 469.786 36.0781 469.672 36.0937C469.526 36.1146 469.391 36.25 469.25 36.349C469.385 36.4323 469.516 36.526 469.651 36.5937C469.724 36.625 469.828 36.6146 469.891 36.5729ZM469.25 36.349C469.229 36.3385 469.214 36.3281 469.193 36.3125C469.182 36.3229 469.177 36.3385 469.167 36.349C469.188 36.3594 469.203 36.3646 469.219 36.375C469.229 36.3646 469.24 36.3594 469.25 36.349ZM330.719 177.12C330.661 177.078 330.573 177.104 330.51 177.125C330.469 177.141 330.432 177.214 330.396 177.255C330.474 177.286 330.536 177.339 330.604 177.333C330.828 177.323 330.87 177.229 330.719 177.12ZM441.792 31.2604L441.781 31.4167L441.932 31.3594L441.792 31.2604ZM430.922 29.9219L430.766 30.0052L430.922 30.0833V29.9219ZM345.271 176.422L345.26 176.641L345.458 176.552L345.271 176.422ZM322.453 177.844C322.469 177.911 322.484 178.021 322.5 178.021C322.563 178.031 322.63 177.995 322.693 177.969C322.677 177.906 322.661 177.786 322.641 177.786C322.583 177.786 322.516 177.823 322.453 177.844ZM334.219 177.771C334.177 177.719 334.094 177.724 334.021 177.703C334.036 177.833 334.052 177.964 334.063 178.094C334.12 178.063 334.182 178.031 334.24 178.005C334.24 177.922 334.255 177.813 334.219 177.771ZM231.818 178.693L231.844 178.5L231.651 178.563L231.818 178.693ZM233.37 178.714L233.531 178.646L233.385 178.531L233.37 178.714ZM292.807 181.307L293.031 181.417V181.198L292.807 181.307ZM294.948 181.401L295.13 181.328L294.964 181.219L294.948 181.401ZM445.906 31.0365C445.922 31.0312 445.938 31.0312 445.953 31.026C445.953 31.0104 445.948 31 445.943 30.9844C445.875 30.9479 445.807 30.9167 445.74 30.8802C445.797 30.9323 445.854 30.9844 445.906 31.0365ZM464.37 34.6615L464.234 34.7135L464.349 34.8177L464.37 34.6615ZM287.151 146.042C287.01 145.964 286.875 145.833 286.734 145.813C286.578 145.797 286.422 145.885 285.932 146.021C286.448 146.177 286.609 146.271 286.755 146.26C286.891 146.25 287.016 146.12 287.151 146.042ZM284.516 146.115C284.557 146.099 284.578 145.984 284.609 145.922C284.536 145.88 284.469 145.786 284.406 145.797C284.177 145.828 284.13 145.964 284.292 146.115C284.344 146.161 284.448 146.151 284.516 146.115ZM325.776 52.0781C324.854 52.0833 323.943 52.224 323.031 52.3073C322.995 52.5677 322.969 52.8229 322.938 53.0885C324.156 53.5156 325.391 53.5885 326.682 53.1615C326.589 52.349 326.177 52.0781 325.776 52.0781ZM342.297 55.0417C342.234 55.0208 342.167 54.974 342.109 54.9792C342.083 54.9792 342.068 55.0885 342.047 55.1562C342.109 55.1771 342.172 55.2187 342.234 55.2187C342.255 55.2187 342.271 55.1042 342.297 55.0417ZM282.943 165.25C283.719 165.74 284.615 165.583 285.438 165.12C285.26 164.188 284.698 164.182 284.208 164.161C282.234 164.089 280.25 164.057 278.276 164.031C278.115 164.031 277.948 164.146 277.672 164.255C277.849 164.516 277.984 164.891 278.146 164.911C278.646 164.979 279.161 164.964 279.661 164.891C280.771 164.719 281.844 164.563 282.943 165.25ZM292.578 165.771C291.984 164.365 291.234 164.818 290.406 164.885C291.047 165.458 291.547 165.99 292.578 165.771ZM312.901 167.781C313.547 168.057 313.547 168.057 314.135 167.792C313.51 167.51 313.51 167.51 312.901 167.781ZM350.979 168.521L351.161 168.427L350.99 168.307L350.979 168.521ZM360.234 168.411L360.417 168.505V168.318L360.234 168.411ZM271.625 165.292C271.495 165.12 271.365 164.948 271.234 164.776C271.286 165.052 271.417 165.219 271.625 165.292ZM271.208 164.641L271.172 164.693C271.198 164.719 271.214 164.75 271.24 164.776C271.224 164.729 271.214 164.693 271.208 164.641ZM271.797 165.474L271.719 165.328C271.688 165.323 271.656 165.302 271.625 165.297C271.646 165.323 271.661 165.344 271.688 165.375L271.797 165.474ZM328.823 35.3437C328.828 35.3437 328.833 35.3385 328.833 35.3385C328.839 35.3229 328.849 35.3125 328.859 35.2917L328.823 35.3437ZM153.667 160.927C153.505 160.964 153.323 160.917 153.156 160.865C152.214 160.552 151.292 160.844 150.349 160.953C148.661 161.156 146.99 161.438 145.271 161.339C143.484 161.234 141.656 161.323 139.896 161.708C138.255 162.063 136.672 162.203 135.068 161.552C133.865 162.266 132.677 162.88 131.365 162.974C131.188 162.99 131.026 163.391 130.859 163.635C131.927 164.161 133.01 164.151 134.115 163.839C135.557 163.432 137.021 163.469 138.484 163.568C138.828 163.589 139.224 163.781 139.505 163.62C140.911 162.823 142.406 163.302 143.849 163.042C145.115 162.813 146.411 162.568 147.677 162.677C148.984 162.786 150.245 162.656 151.536 162.474C153.161 162.245 154.813 162.219 156.443 162.063C157.984 161.917 159.526 161.724 161.073 161.531C161.406 161.49 161.708 161.328 161.833 160.865C159.125 160.984 156.391 160.333 153.667 160.927ZM161.849 160.865C161.865 160.865 161.88 160.865 161.896 160.865C161.901 160.849 161.906 160.839 161.911 160.823C161.896 160.818 161.88 160.818 161.87 160.807C161.859 160.828 161.854 160.844 161.849 160.865ZM135.302 54.9323C136.495 54.7917 137.677 54.5312 138.865 54.3073C140.219 54.0573 141.578 53.8177 142.922 53.526C143.286 53.4427 143.495 53.099 143.224 52.4323C141.677 52.0365 140.078 52.1094 138.464 52.5052C136.964 52.8698 135.505 53.5521 133.948 53.5781C133.448 53.5885 132.948 53.8854 132.464 54.0729C131.922 54.2865 131.26 53.8333 130.766 54.6406C131.349 55.4375 131.906 56.2344 132.828 56.3281C133.547 55.5573 134.339 55.0417 135.302 54.9323ZM132.823 56.3333C132.813 56.349 132.797 56.3698 132.776 56.3802C132.776 56.3802 132.776 56.3802 132.781 56.3802C132.802 56.3698 132.818 56.349 132.833 56.3333C132.828 56.3333 132.828 56.3333 132.823 56.3333ZM311.307 19.5677C312.141 19.8073 312.979 20.0156 313.823 20.1823C313.958 20.2135 314.125 20.0208 314.271 19.9271C314.26 19.8177 314.276 19.6458 314.229 19.6042C313.333 18.8646 312.323 18.8594 311.318 18.8125C311.255 18.8073 311.135 18.9792 311.146 19.0365C311.172 19.2292 311.224 19.5469 311.307 19.5677ZM287.406 22.4062C287.391 22.4062 287.375 22.4115 287.365 22.4115C287.375 22.4323 287.391 22.4479 287.411 22.4687C287.417 22.4687 287.417 22.4687 287.417 22.4687C287.417 22.4427 287.411 22.4271 287.406 22.4062ZM289.427 21.2552C288.49 21.1771 287.724 20.6302 286.917 21.0208C286.714 21.776 287.313 21.9219 287.406 22.401C287.969 22.3385 288.536 22.3021 289.089 22.1667C289.214 22.1354 289.276 21.6875 289.427 21.2552ZM401.047 20.8542C399.042 20.1615 399.042 20.1615 397.906 20.7865C398.932 21.3854 399.87 21.026 401.047 20.8542ZM137.755 164.578C139.448 165.323 139.448 165.323 140.172 164.359C139.323 163.859 138.536 164.219 137.755 164.578ZM233.302 17.1042C232.063 17.0625 230.995 17.026 229.932 16.9896C230.995 17.7708 231.688 17.8021 233.302 17.1042ZM229.927 16.9896C229.901 16.9687 229.875 16.9479 229.849 16.9323C229.828 16.9323 229.807 16.9427 229.786 16.9427C229.797 16.9531 229.807 16.9687 229.823 16.9844C229.859 16.9844 229.891 16.9844 229.927 16.9896ZM264.495 20.9844C264.984 20.9479 265.521 21.276 266.031 20.651C265.266 20.276 264.563 20.1667 263.656 20.6719C264.052 20.8333 264.276 21.0052 264.495 20.9844ZM161.594 169.375C161.458 169.552 161.255 169.75 161.146 170.016C161.104 170.115 161.234 170.453 161.344 170.526C161.646 170.724 161.995 170.453 162.089 169.948C162.115 169.797 161.99 169.578 161.906 169.417C161.875 169.359 161.745 169.391 161.594 169.375ZM117.797 47.2135C117.615 46.6042 117.177 46.5781 116.786 46.4896C116.667 46.4635 116.458 46.5885 116.401 46.7292C116.354 46.8437 116.422 47.1562 116.51 47.2448C116.927 47.6198 117.37 47.7969 117.797 47.2135ZM229.786 16.9427C229.672 16.8021 229.557 16.599 229.432 16.5833C228.427 16.4479 228.391 16.474 227.021 17.4948C228.094 17.9479 228.901 17.0729 229.786 16.9427ZM269.557 19.849C269.12 19.7917 268.729 19.7344 268.339 19.7031C268.276 19.6979 268.146 19.8437 268.156 19.8854C268.193 20.0729 268.234 20.3437 268.333 20.401C268.786 20.6615 269.26 20.8333 269.557 19.849ZM289.24 16.0156C288.771 15.4531 288.276 15.401 287.688 15.8229C288.193 16.5052 288.703 16.3802 289.24 16.0156ZM131.307 169.417C132.422 169.495 132.422 169.484 132.755 168.63C132.385 168.62 132.073 168.573 131.766 168.594C131.385 168.625 131.13 168.823 131.307 169.417ZM153.063 168.396C152.953 168.427 152.87 168.682 152.771 168.833C152.891 168.953 153.016 169.182 153.135 169.172C153.453 169.151 153.76 169.042 154.073 168.964C153.901 168.302 153.484 168.302 153.063 168.396ZM344.479 21.9479C344.13 21.9479 343.839 21.9479 343.448 21.9479C343.844 22.401 344.135 22.4792 344.479 21.9479ZM150.813 165.682C150.583 165.688 150.354 165.75 150.13 165.828C150.099 165.839 150.104 166.031 150.094 166.135C150.146 166.219 150.214 166.375 150.255 166.365C150.49 166.318 150.714 166.234 150.938 166.161C150.896 165.995 150.854 165.682 150.813 165.682ZM285.339 20.6771C284.63 20.3385 284.63 20.3385 284.271 20.9219C284.667 21.0625 285.052 21.3177 285.339 20.6771ZM316.583 20.1771C316.672 20.099 316.745 20 316.828 19.9115C316.755 19.875 316.693 19.849 316.625 19.8177C316.563 19.8698 316.505 19.9219 316.448 19.9792C316.495 20.0417 316.573 20.1823 316.583 20.1771ZM264.089 19.4167C264.052 19.3281 264.021 19.1615 263.979 19.1562C263.828 19.151 263.677 19.1927 263.531 19.2135C263.583 19.3698 263.635 19.5208 263.693 19.6771C263.828 19.5885 263.958 19.5 264.089 19.4167ZM243.87 18.1302C244.01 18.1302 244.156 18.1302 244.302 18.1094C244.307 18.1094 244.302 17.9479 244.302 17.8594C244.156 17.8594 244.01 17.8542 243.87 17.8698C243.87 17.875 243.87 18.0417 243.87 18.1302ZM130.141 163.411C130.078 163.448 130.047 163.563 130 163.641C130.12 163.734 130.25 163.906 130.359 163.891C130.505 163.875 130.646 163.74 130.781 163.635C130.646 163.552 130.516 163.458 130.38 163.391C130.307 163.359 130.203 163.37 130.141 163.411ZM130.781 163.635C130.802 163.651 130.823 163.656 130.839 163.672C130.849 163.661 130.854 163.651 130.865 163.635C130.844 163.625 130.828 163.62 130.813 163.615C130.802 163.62 130.792 163.625 130.781 163.635ZM269.313 22.8698C269.37 22.9062 269.458 22.8802 269.521 22.8594C269.563 22.8437 269.599 22.776 269.635 22.7292C269.563 22.7031 269.495 22.651 269.432 22.6562C269.203 22.6615 269.161 22.7552 269.313 22.8698ZM158.24 168.724L158.25 168.573L158.099 168.625L158.24 168.724ZM169.109 170.068L169.266 169.984L169.109 169.901V170.068ZM254.76 23.5625L254.771 23.3437L254.573 23.4323L254.76 23.5625ZM277.583 22.1406C277.563 22.0781 277.547 21.9635 277.531 21.9635C277.469 21.9531 277.406 21.9948 277.339 22.0156C277.359 22.0833 277.37 22.1979 277.391 22.1979C277.448 22.2031 277.516 22.1667 277.583 22.1406ZM265.813 22.2135C265.854 22.2656 265.938 22.2604 266.01 22.2812C265.995 22.151 265.979 22.026 265.974 21.8958C265.911 21.9219 265.849 21.9531 265.792 21.9844C265.792 22.0625 265.776 22.1719 265.813 22.2135ZM368.214 21.2917L368.188 21.4844L368.38 21.4219L368.214 21.2917ZM366.661 21.276L366.5 21.3385L366.646 21.4583L366.661 21.276ZM307.224 18.6771L307 18.5729V18.7917L307.224 18.6771ZM305.083 18.5833L304.901 18.6615L305.068 18.7656L305.083 18.5833ZM154.125 168.948C154.109 168.953 154.094 168.958 154.078 168.964C154.078 168.974 154.083 168.984 154.089 169C154.156 169.036 154.224 169.068 154.292 169.104C154.234 169.057 154.177 169.005 154.125 168.948ZM135.661 165.323L135.797 165.271L135.682 165.167L135.661 165.323ZM312.885 53.9427C313.021 54.0208 313.156 54.151 313.297 54.1719C313.453 54.1927 313.609 54.1042 314.099 53.9687C313.583 53.8073 313.422 53.7135 313.276 53.724C313.141 53.7396 313.016 53.8646 312.885 53.9427ZM315.516 53.8698C315.474 53.8854 315.453 54 315.422 54.0625C315.495 54.1094 315.563 54.1979 315.625 54.1927C315.854 54.1562 315.901 54.0208 315.74 53.8698C315.688 53.8229 315.583 53.8385 315.516 53.8698ZM274.26 147.906C275.177 147.901 276.089 147.76 277.005 147.677C277.036 147.417 277.063 147.161 277.094 146.901C275.875 146.469 274.641 146.396 273.349 146.823C273.443 147.635 273.854 147.906 274.26 147.906ZM257.734 144.943C257.797 144.964 257.865 145.01 257.922 145.005C257.948 145.005 257.964 144.896 257.984 144.828C257.922 144.807 257.859 144.766 257.797 144.766C257.781 144.771 257.76 144.88 257.734 144.943ZM317.094 34.7344C316.313 34.2448 315.417 34.401 314.594 34.8646C314.771 35.7969 315.333 35.8073 315.823 35.8229C317.802 35.901 319.781 35.9271 321.755 35.9531C321.922 35.9531 322.083 35.8385 322.359 35.7292C322.182 35.4687 322.047 35.099 321.885 35.0729C321.391 35.0104 320.87 35.0208 320.37 35.099C319.26 35.2708 318.188 35.4219 317.094 34.7344ZM307.453 34.2187C308.047 35.6198 308.797 35.1667 309.625 35.1042C308.984 34.5312 308.484 34 307.453 34.2187ZM287.13 32.2031C286.484 31.9271 286.484 31.9271 285.896 32.1927C286.521 32.4792 286.521 32.4792 287.13 32.2031ZM249.052 31.4687L248.87 31.5625L249.042 31.6823L249.052 31.4687ZM239.797 31.5729L239.62 31.4792V31.6667L239.797 31.5729ZM328.823 35.3437L328.859 35.2917C328.833 35.2656 328.818 35.2396 328.792 35.2083C328.802 35.2552 328.818 35.2917 328.823 35.3437ZM328.406 34.6979C328.536 34.8698 328.667 35.0365 328.797 35.2083C328.745 34.9323 328.615 34.7656 328.406 34.6979ZM328.234 34.5156L328.313 34.6615C328.344 34.6615 328.375 34.6823 328.406 34.6927C328.391 34.6615 328.37 34.6406 328.344 34.6146L328.234 34.5156Z" fill="#E6E9F5"/>
</g>
<line x1="217.042" y1="99.5018" x2="371.042" y2="112.502" stroke="#E6E9F5"/>
</svg>

