<svg width="426" height="365" viewBox="0 0 426 365" fill="none" xmlns="http://www.w3.org/2000/svg">
<mask id="mask0_523_49" style="mask-type:luminance" maskUnits="userSpaceOnUse" x="0" y="0" width="426" height="365">
<path d="M0 0H426V365H0V0Z" fill="white"/>
</mask>
<g mask="url(#mask0_523_49)">
<path d="M183.984 322.424C183.995 322.39 184.005 322.367 184.016 322.322L184.021 322.311L183.984 322.424ZM424.833 192.545C424.453 196.224 424.385 200.183 424.151 204.503C423.943 205.043 423.641 205.898 423.313 206.651C422.51 208.541 421.771 210.532 421.26 213.164C420.828 215.358 420.177 216.888 419.313 217.731C418.495 218.53 417.734 219.767 416.917 220.487C413.875 223.176 410.818 225.752 407.677 227.484C405.146 228.868 402.625 230.544 400.12 232.321C399.302 232.895 398.417 233.491 397.839 235.527C397.307 237.394 396.552 237.878 395.781 238.294C393.495 239.565 391.208 240.78 388.932 242.13C387.328 243.075 385.734 244.177 384.141 245.268C384.01 245.369 383.917 245.943 383.802 246.303C383.823 246.371 383.865 246.674 383.901 246.674C385.964 246.337 388.047 246.438 390.078 245.504C392.49 244.391 394.839 243.783 397.219 245.729C397.964 246.326 398.74 246.629 399.594 247.124C399.875 248.418 400.193 249.824 400.542 251.399C401.083 251.703 401.661 252.04 402.198 252.355C402.672 254.368 402.448 256.719 402.943 258.665C403.286 260.049 402.693 262.558 403.359 263.739C402.943 266.011 402.63 267.957 402.24 269.779C401.885 271.444 401.443 272.951 400.984 274.751C399.828 276.112 398.516 275.865 397.234 275.91C395.589 275.989 393.958 276.112 392.38 277.665C392.135 277.901 391.88 278.182 391.63 278.182C389.203 278.25 386.854 279.892 384.479 280.927C384.328 280.994 384.156 280.713 383.891 280.511C383.974 279.926 384.026 278.958 384.146 278.902C384.641 278.621 385.167 278.7 385.661 278.418C385.87 278.295 386.031 277.597 386.224 277.136C385.745 275.449 385.109 275.539 384.536 275.539C383.24 275.539 381.948 275.707 380.651 275.944C380.443 275.989 380.25 276.517 380.047 276.877C376.641 277.642 373.208 276.922 369.807 278.182C368.557 278.643 367.26 278.317 365.99 278.351L366.016 278.441C364.958 277.001 363.87 277.091 362.786 277.721C362.552 278.981 362.354 280.027 362.172 281.017C361.161 281.928 360.281 281.939 359.646 278.88C358.307 278.88 356.932 278.857 355.557 278.891C355.052 278.913 354.927 279.757 355.026 282.108C354.573 282.693 354.12 283.289 353.656 283.885C353.781 284.504 353.849 285.134 353.932 285.156C355.74 285.696 357.578 286.157 359.349 285.156C361.891 283.716 364.339 284.763 366.776 286.27C368.063 287.069 369.323 287.35 370.62 287.237C370.964 287.204 371.318 287.046 371.656 287.192C375.672 288.97 379.766 287.834 383.776 289.78C384.953 290.353 386.141 290.769 387.339 291.276C387.297 290.387 387.26 289.746 387.224 289.048C388.474 289.048 389.672 289.015 390.865 289.093C390.969 289.105 391.141 289.757 391.146 290.14C391.151 290.511 391.016 291.028 390.896 291.264C390.693 291.636 390.443 291.827 390.125 292.198C391.099 293.919 392.453 291.748 393.188 295.123C393.167 295.64 393.141 296.349 393.099 297.305C393.693 301.456 395.422 303.526 395.979 307.98C395.938 310.241 395.844 312.176 395.245 314.009C394.828 315.292 394.786 317.542 394.516 319.904C394.208 321.4 393.495 322.266 392.87 323.402C391.714 320.669 390.563 318.228 388.995 318.554C388.401 315.236 387.38 315.101 386.313 315.596C386 315.73 385.682 316.394 385.448 317.047C385.089 318.081 384.797 319.308 384.448 320.556C382.573 321.332 380.688 321.479 378.792 321.299C376.281 321.051 373.781 321.355 371.323 322.918C371.109 323.053 370.917 323.447 370.724 323.762C372 323.683 373.141 325.472 374.432 325.618C374.469 326.619 374.594 327.474 374.495 327.935C373.938 330.511 373.88 332.93 374.552 335.393C374.641 335.72 374.62 336.293 374.651 336.856C374.26 337.204 373.865 337.542 373.401 337.936C373.26 341.411 373.536 345.247 372.495 348.093C371.885 348.746 370.99 345.461 370.583 349.308C370.859 350.062 371.214 350.748 371.443 351.693C372.109 354.438 371.75 357.16 370.641 357.846C370.313 358.048 369.958 358.251 369.625 358.138C368.776 357.857 367.906 357.598 367.083 356.946C366.396 356.417 365.724 356.057 365.047 356.496C363.906 357.238 362.833 356.755 361.766 355.54C361.464 355.202 361.099 355.09 360.766 355.135C358.542 355.45 356.307 355.709 354.094 356.575C352.813 357.081 351.542 357.531 350.234 357.508C349.115 357.497 348.005 358.037 346.885 358.217C346.026 358.363 345.167 358.296 344.307 358.352C343.229 358.408 342.12 357.677 341.115 359.601C340.891 360.028 340.396 359.893 340.135 359.466C339.021 357.688 337.828 357.576 336.62 357.925C332.5 359.128 328.37 359.511 324.229 359.589C323.031 359.601 321.839 360.354 320.641 360.568C316.427 361.355 312.208 360.287 307.995 360.939C305.672 361.288 303.349 361.558 301.021 361.783C300.339 361.839 299.646 361.637 298.969 361.49C297.859 361.243 296.734 360.399 295.75 362.683C295.688 362.829 295.589 362.897 295.505 362.897C293.188 362.672 290.87 364.246 288.557 362.897C288.24 362.705 287.927 362.334 287.557 361.997C287.771 360.658 287.943 359.601 288.156 358.318C287.938 358.082 287.714 357.598 287.521 357.688C286.323 358.206 285.135 358.476 283.922 357.857C283.516 357.643 283.021 357.722 282.656 358.195C281.734 359.364 280.76 359.274 279.859 358.948C278.417 358.442 276.932 359.567 275.526 357.88C275.234 357.531 274.839 357.733 274.5 357.88C272.172 358.847 269.865 357.925 267.552 357.486C267.474 357.463 267.401 357.25 267.25 357.002C267.807 355.349 268.625 356.564 269.177 355.484C269.198 354.786 269.219 354.078 269.245 353.38C269.391 353.166 269.552 352.716 269.693 352.773C270.88 353.178 272.099 352.401 273.266 353.808C273.63 354.246 274.115 353.931 274.542 353.943C275.224 353.954 275.932 353.706 276.599 354.01C277.583 354.46 278.411 354.28 279.229 352.289C279.776 350.962 280.505 351.119 281.104 352.761C281.339 353.403 281.677 353.763 281.813 353.988C282.62 354.28 282.458 352.199 283.094 351.49C284.281 351.693 285.724 352.143 287.057 350.219C286.594 350.095 286.083 350.219 285.87 348.566C286.599 347.238 286.599 347.238 289.526 347.452C290.068 348.442 290.641 349.488 291.281 350.669C291.151 351.209 291.016 351.749 290.859 352.379C290.906 352.581 290.958 353.166 291.047 353.211C291.38 353.38 291.745 353.583 292.057 353.369C293.901 352.053 295.781 351.625 297.677 351.22C298.786 350.984 299.922 350.804 300.984 349.972C303 348.419 305.078 348.622 307.12 347.834C309.234 347.013 311.401 347.148 313.547 347.025C314.839 346.957 316.12 346.968 317.396 346.192C318.063 345.787 318.766 345.81 319.448 345.742C322.37 345.517 325.292 345.742 328.198 344.302C329.453 343.684 330.771 343.942 332.057 343.841C332.479 343.819 332.885 343.774 333.208 342.896C329.354 343.436 325.495 343.987 321.484 342.413C319.969 345.011 318.286 344.876 316.422 343.774C314.625 342.694 312.745 341.31 310.839 342.795C309.948 343.492 308.953 342.784 308.094 344.269C307.922 344.55 307.604 344.1 307.349 343.965C307.021 343.796 306.672 343.346 306.359 343.492C305.568 343.852 304.818 343.38 304.052 343.234C302.859 342.986 301.63 342.919 300.453 343.425C299.589 343.785 298.755 343.729 297.901 343.661C296.698 343.56 295.49 343.92 294.286 344.134C292.568 344.426 290.859 345.236 289.13 344.966C288.271 344.842 287.406 345.247 286.547 345.348C285.771 345.427 284.995 345.562 284.224 345.382C282.917 345.056 281.651 345.607 280.396 346.462C279.896 346.788 279.391 347.272 278.885 347.317C276.818 347.486 274.755 347.587 272.693 347.587C271.057 347.587 269.422 347.385 267.724 347.272C267.297 345.888 266.859 344.46 266.38 342.885C265.51 342.998 264.667 343.11 263.651 343.245C263.896 344.719 264.068 345.765 264.245 346.811C263.688 349.274 262.63 347.891 261.839 349.297C261.87 350.14 261.901 351.063 261.938 352.064C262.823 352.615 263.495 351.355 264.266 350.804C265.349 351.074 266.411 351.862 267.349 353.763C267.005 355.292 266.385 354.64 265.948 355.326C265.88 357.306 265.188 357.497 264.797 358.555C264.849 359.005 264.896 359.443 264.948 359.893C264.901 360.062 264.833 360.366 264.802 360.354C264.219 359.938 263.609 359.679 263.063 359.005C262.057 357.745 261.063 357.688 259.943 358.768C258.823 356.575 257.406 356.665 256.036 356.001C256.516 353.234 257.693 355.484 258.214 352.829C258.625 350.703 259.766 351.277 260.406 349.792C260.474 348.194 260.161 347.283 259.745 346.912C259.26 346.485 258.729 346.237 258.219 346.237C255.719 346.226 253.214 346.305 250.714 346.395C250.552 346.406 250.391 346.698 250.234 346.867C250.047 349.038 250.172 350.028 250.698 349.972C251.552 349.904 252.406 349.499 253.255 349.443C253.698 349.409 254.109 349.882 254.031 351.862C252.339 352.446 250.641 351.76 248.984 352.03C248.734 350.557 248.557 349.499 248.333 348.127C247.036 347.587 245.693 346.755 244.318 346.631C243.729 346.586 243.13 346.912 242.531 347.07C241.917 347.227 241.781 348.824 241.37 350.219C240.094 349.814 238.74 349.128 237.385 349.027C236.01 348.926 234.635 349.398 233.063 349.657C232.052 347.261 230.672 347.767 229.339 347.778C229.208 348.633 229.109 349.252 228.99 350.039C227.828 350.77 226.63 350.23 225.432 350.185C225.318 349.882 225.214 349.466 225.083 349.432C223.708 348.993 222.344 348.689 221.031 350.512C220.656 351.04 220.208 351.277 219.781 351.333C218.849 351.457 217.911 351.378 216.964 351.378C217.109 349.612 217.724 350.759 218.016 349.871C218.229 348.622 217.943 348.071 217.578 347.947C216.896 347.733 216.234 347.542 215.656 349.241C215.396 350.005 214.891 350.422 214.495 350.444C212.948 350.59 211.401 350.849 209.859 349.803C209.036 349.241 208.156 349.207 207.297 349.094C205.922 348.914 204.547 349.342 203.198 347.947C202.656 347.385 202 347.688 201.396 347.61C198.984 347.306 196.568 347.058 194.156 346.71C192.87 346.53 191.552 346.721 190.365 344.865C188.328 344.066 186.307 342.705 184.099 343.504C184.417 344.392 184.677 345.124 184.943 345.866C184.839 347.452 184.417 346.316 184.156 346.586C183.839 346.923 183.51 347.227 183.198 347.531C183.214 347.902 183.219 348.127 183.224 348.363C184.547 347.733 185.703 350.23 187.01 349.949C187.26 349.904 187.536 349.96 187.776 350.208C188.245 350.692 188.432 351.648 188.182 353.256C187.984 353.38 187.724 353.763 187.516 353.628C185.745 352.401 183.932 352.143 182.125 351.783C180.578 351.479 179.047 350.748 177.5 350.275C177.078 350.14 176.656 350.264 176.229 350.275L176.266 350.388L176.104 350.579L176.219 350.32C175.521 349.421 174.828 348.419 174.125 350.309L174.135 350.32L174.224 350.512L174.13 350.32C173.786 350.309 173.453 350.287 173.115 350.253L173.13 350.309L173.151 350.365C173.109 350.467 173.068 350.579 173.026 350.68C173.047 350.557 173.073 350.444 173.094 350.32C172.448 349.882 171.807 349.196 171.151 349.083C169.953 348.881 168.75 349.027 167.594 349.027C167.214 349.915 166.891 350.658 166.526 351.502C165.266 351.243 163.979 350.995 162.698 350.703C161.458 350.422 160.219 350.107 158.724 349.747C159.885 348.161 160.979 350.174 161.979 348.037C160.672 347.373 159.479 347.733 158.115 347.947C157.964 348.464 157.745 349.173 157.438 350.208C155.969 350.579 154.38 350.635 152.74 349.499C153.167 348.633 153.5 347.947 153.833 347.261C153.224 346.338 152.563 346.057 151.88 346.035C150.417 346.001 148.948 345.956 147.484 345.967C147.182 345.967 146.88 346.203 146.583 346.968C147.26 347.137 147.948 347.16 148.609 347.531C149.266 347.879 149.964 346.485 150.625 347.868C150.505 348.262 150.422 348.802 150.323 348.813C147.917 349.083 145.516 348.881 143.109 349.792C141.958 350.23 140.729 348.982 139.536 348.599C139.068 348.442 138.714 349.016 138.609 350.433C138.656 350.669 138.693 351.052 138.745 351.074C139.839 351.558 140.932 352.008 142.411 352.615C139.016 353.886 136.005 354.055 132.995 352.446C132.661 352.266 132.313 352.053 131.974 352.143C129.042 352.806 126.115 351.614 123.182 351.862C122.578 351.918 121.964 351.884 121.375 351.58C118.974 350.354 116.552 350.815 114.141 350.624C112.932 350.523 111.724 350.512 110.516 350.399C109.484 350.309 108.469 350.388 107.568 350.973C107.141 352.874 107.979 352.975 107.911 354.336C107.417 354.415 106.901 354.381 106.406 354.595C105.26 355.09 104.245 352.413 103.109 353.538C101.917 354.719 100.734 353.279 99.5261 353.785C98.4427 354.246 97.2969 353.616 96.1823 353.414C95.3958 353.268 94.6406 353.391 93.9167 354.426C93.1875 355.45 92.4063 355.607 91.6511 354.73C90.974 353.954 90.3281 353.808 89.6354 354.482C89.3958 354.719 89.1302 354.696 88.8646 354.696C88.0208 354.707 87.3802 352.885 87.4427 350.5C87.4688 349.319 87.5886 348.127 87.7396 347.002C88.0052 345.011 88.3281 343.076 88.6875 340.68C88.0417 340.961 87.5781 341.164 87 341.423C87.0469 340.5 87.0104 339.578 87.1354 339.308C87.474 338.599 87.8906 338.228 88.2552 337.621C88.3958 337.396 88.5156 336.934 88.5729 336.507C88.6354 336.08 88.6406 335.528 88.599 335.101C88.5625 334.685 88.4219 334.347 88.3281 333.965C87.5521 333.661 87.375 336.867 86.5729 336.394C86.5469 335.472 86.6511 334.156 86.849 333.267C86.7552 332.885 86.6875 332.244 86.5729 332.176C86.0729 331.872 85.5469 331.839 85.0573 331.479C85.0104 331.456 84.9688 331.378 84.9271 331.31C83.7031 332.334 82.4167 331.827 81.2031 332.199C80.7969 332.952 80.4375 333.605 80.0938 334.246C78.8854 334.37 77.6875 334.516 76.4948 334.561C76.3594 334.572 76.0938 334.055 76.1042 333.852C76.125 333.222 76.1979 332.3 76.349 332.109C76.7292 331.614 77.1615 331.209 77.5677 331.209C79.474 331.209 81.3021 330.331 83.1354 328.61C83.8854 327.913 84.6615 327.227 85.4583 326.968C85.5 326.844 85.5365 326.732 85.5781 326.619C85.5365 325.573 85.4896 324.392 85.4531 323.368C85.3073 322.806 85.2083 322.401 85.099 322.03C83.9896 318.07 82.7344 315.112 80.7656 315.326C80.4375 315.371 80.0938 315.033 79.7761 314.639C79.6719 314.651 79.5677 314.662 79.4688 314.684C78.9583 314.763 78.4323 315.213 77.9427 314.977C76.8594 314.459 75.7448 315.303 74.6927 314.156C74.8438 313.233 75.1042 312.547 75.4531 312.592C76.5417 312.727 77.6198 312.727 78.7031 312.648C78.4948 311.49 78.5417 310.331 78.5208 309.206C78.4948 307.991 78.5156 306.776 78.5156 305.674C77.75 302.772 76.724 301.771 75.5469 301.771C74.599 301.771 73.6511 301.951 72.6979 301.906C71.7552 301.85 70.8125 301.58 69.8646 301.445C69.2708 301.366 68.6667 301.343 68.0729 301.343C67.8177 301.343 67.5573 301.512 67.3021 301.445C63.4323 300.59 59.5573 299.858 55.6875 298.779C54.3906 298.419 53.0521 298.182 51.8333 296.743C51.5208 296.731 51.2031 296.54 50.8854 296.169C50.5833 295.809 50.1927 295.415 49.9167 295.685C49.2188 296.326 48.6042 296.169 47.9115 295.516C47.0625 294.74 46.2344 295.123 45.5729 297.271C45.3125 298.115 44.8646 298.565 44.474 299.026C43.9948 299.566 43.4479 299.712 43.0052 300.398C42.2865 301.535 41.5729 301.76 40.7656 301.591C39.7083 301.366 39.6563 301.602 38.6198 304.549C38.8125 305.764 39.1719 306.686 39.6094 306.383C40.9063 305.517 42.1719 306.315 43.4479 306.507C43.9479 306.574 44.5208 306.383 44.9531 305.742C46.6927 303.121 48.625 303.154 50.4844 302.457C52.1875 301.816 53.9219 302.198 56.2188 303.087C53.2656 304.257 50.7969 303.582 48.5 306.158C48.6927 307.496 49.1302 307.845 49.5573 307.879C50.0625 307.935 50.5833 307.688 51.0938 307.496C53.6563 306.585 56.224 305.64 58.7604 304.729C59.4271 305.607 60.0417 306.405 60.6511 307.204C60.5313 307.485 60.4271 307.935 60.2917 308.014C58.6042 308.925 56.9271 310.005 55.1823 308.891C53.9636 308.104 52.8125 309.814 51.6198 310.14C50.6875 310.41 49.7656 311.04 48.8177 311.13C47.6198 311.231 46.4271 311.4 45.4011 313.728C45.0156 314.583 44.3958 314.347 43.9167 313.503C43.5573 312.885 43.2136 312.198 42.8646 311.535C41.8646 312.558 41.0208 314.178 40.6458 316.507C39.9531 320.792 38.7708 320.984 37.4375 320.601C37.1042 320.511 36.7552 320.23 36.4583 319.78C36.1198 319.251 35.8125 319.319 35.474 319.589C34.7917 320.118 34.3333 318.824 33.8333 317.924C33.4844 317.305 33.4688 317.013 33.3177 313.02C33.9792 309.915 35.5729 309.656 36.2083 306.248C34.8177 303.278 33.6667 302.626 32.5365 305.123C31.7031 306.979 30.6406 307.373 29.9323 309.487C28.8646 308.52 28.4844 306.023 27.9636 303.919C27.2917 304.021 26.8073 303.346 26.6354 301.085C27.1511 299.341 27.7344 297.564 28.224 295.606C28.4896 294.572 28.4375 293.3 28.0886 292.277C27.9323 292.153 27.7604 291.861 27.625 291.962C26.5 292.783 26.0886 292.243 26.0104 289.521C25.8906 284.92 25.6146 280.286 26.2604 275.696C26.0052 273.896 25.7552 272.13 25.474 270.15C26.0729 268.643 26.6302 267.248 27.2136 265.775C29.1406 266.438 30.7813 265.021 31.9948 260.207C31.8542 258.474 31.7083 256.584 31.5469 254.605C31.0104 253.502 30.474 252.377 30.0156 251.444C29.9688 250.791 29.9115 250.521 29.9375 250.33C30.224 247.743 30.5417 245.032 31.4636 243.817C32.4323 242.535 33.1511 240.645 33.875 238.474C34.7656 235.797 35.9688 234.244 37.2136 233.075C39.9271 230.544 42.7083 228.912 45.5104 227.495C48.4011 226.044 51.2917 224.638 54.1302 222.478C54.4583 222.219 54.7813 221.905 55.0938 221.623C55.3906 220.633 55.6771 219.689 55.875 218.631C55.8542 218.361 55.8333 218.08 55.8229 217.765C55.9115 217.315 56.0208 216.876 56.1354 216.438C56.1458 216.291 56.1563 216.134 56.1563 215.988C55.9896 215.616 55.8646 215.122 55.7344 215.099C54.2708 214.852 52.8073 214.559 51.3438 214.548C48.5625 214.537 45.8281 213.569 43.099 212.332C42.3333 211.983 41.5573 211.781 40.7917 211.454C39.1615 210.779 37.6042 209.733 36.1042 207.54C34.2396 204.784 32.2136 203.738 30.0833 205.088C29.25 205.616 28.3698 205.673 27.5104 205.808C23.8802 206.347 20.2917 207.709 16.7188 209.508C15.1979 210.273 13.625 210.352 12.2083 212.456C11.9219 212.894 11.5365 212.872 11.1979 212.962C9.66147 213.4 8.07814 212.827 6.6823 215.65C6.25522 213.884 5.94272 212.737 5.69272 211.488C5.34376 209.778 4.9271 208.327 4.34376 207.157C3.25522 204.986 2.52605 202.129 2.21355 198.305C1.98439 195.481 1.49481 192.838 1.15626 190.071C0.453139 184.446 0.182304 178.833 0.802096 172.882C1.1823 169.204 1.2448 165.244 1.48439 160.925C1.68751 160.385 1.9948 159.53 2.31772 158.776C3.1198 156.887 3.85939 154.896 4.37501 152.263C4.8021 150.07 5.45314 148.54 6.32293 147.685C7.13543 146.898 7.89585 145.66 8.71876 144.94C11.7604 142.252 14.8125 139.665 17.9531 137.944C20.4896 136.56 23.0104 134.884 25.5156 133.107C26.3281 132.533 27.2136 131.937 27.7969 129.89C28.3281 128.034 29.0833 127.55 29.8542 127.122C32.1354 125.863 34.4219 124.636 36.7031 123.298C38.3073 122.342 39.9011 121.251 41.4948 120.148C41.625 120.058 41.7188 119.484 41.8281 119.125C41.8125 119.057 41.7708 118.753 41.7344 118.753C39.6719 119.08 37.5833 118.99 35.5573 119.923C33.1406 121.037 30.7917 121.644 28.4115 119.698C27.6719 119.091 26.8906 118.798 26.0417 118.303C25.7552 117.01 25.4375 115.604 25.0938 114.029C24.5469 113.725 23.9688 113.388 23.4375 113.073C22.9583 111.048 23.1823 108.708 22.6875 106.751C22.3438 105.379 22.9427 102.87 22.2761 101.678C22.6875 99.4167 23 97.4594 23.3906 95.6483C23.75 93.9835 24.1927 92.4762 24.6511 90.6651C25.8073 89.3153 27.1146 89.5627 28.4011 89.5178C30.0417 89.439 31.6771 89.3153 33.2552 87.7629C33.4948 87.5155 33.7552 87.2343 34.0052 87.2343C36.4271 87.178 38.7761 85.5357 41.1563 84.5008C41.3073 84.4333 41.474 84.7145 41.7448 84.917C41.6615 85.5019 41.6094 86.4581 41.4948 86.5256C40.9948 86.8068 40.474 86.7281 39.974 87.0093C39.7708 87.133 39.6042 87.8304 39.4167 88.2916C39.8958 89.979 40.5313 89.889 41.1042 89.889C42.3958 89.889 43.6875 89.709 44.9844 89.4953C45.1927 89.4503 45.3906 88.9216 45.5886 88.5616C48.9948 87.7967 52.4271 88.5166 55.8281 87.2568C57.0833 86.7956 58.3802 87.1218 59.6511 87.088L59.625 86.998C60.6823 88.4379 61.7656 88.3479 62.8542 87.7067C63.0833 86.4581 63.2813 85.412 63.4688 84.4221C64.4792 83.4997 65.3542 83.4884 65.9948 86.5593C67.3333 86.5593 68.7083 86.5818 70.0833 86.5481C70.5833 86.5256 70.7083 85.6819 70.6146 83.3197C71.0625 82.7347 71.5156 82.1498 71.9844 81.5536C71.8542 80.9349 71.7917 80.305 71.7083 80.2825C69.9011 79.7426 68.0573 79.2814 66.2865 80.2825C63.75 81.7224 61.3021 80.6762 58.8646 79.1689C57.5781 78.3702 56.3125 78.089 55.0208 78.2015C54.6719 78.2352 54.3177 78.3927 53.9844 78.2352C49.9688 76.4692 45.875 77.6053 41.8646 75.648C40.6875 75.0743 39.5052 74.6694 38.3073 74.1632C38.349 75.0518 38.3802 75.693 38.4167 76.3904C37.1719 76.3904 35.974 76.4129 34.7761 76.3342C34.6771 76.323 34.5052 75.6705 34.5 75.2993C34.4948 74.9281 34.625 74.3994 34.7448 74.1744C34.9531 73.8032 35.1979 73.612 35.5208 73.2408C34.5469 71.5197 33.1875 73.6907 32.4583 70.3161C32.474 69.7987 32.5052 69.09 32.5417 68.1338C31.9479 63.9718 30.2188 61.9133 29.6615 57.4588C29.7031 55.1865 29.7969 53.263 30.3958 51.4294C30.8125 50.1471 30.8542 47.8973 31.1302 45.5238C31.4375 44.039 32.1511 43.1728 32.7761 42.0367C33.9323 44.7702 35.0833 47.2111 36.6458 46.8737C37.2396 50.2033 38.2656 50.3383 39.3333 49.8433C39.6458 49.7084 39.9583 49.0447 40.1927 48.381C40.5521 47.3574 40.849 46.1313 41.1979 44.8826C43.0677 44.0952 44.9583 43.9602 46.8542 44.1402C49.3594 44.3877 51.8646 44.0727 54.3229 42.5204C54.5365 42.3854 54.7292 41.9805 54.9271 41.6767C53.6458 41.7555 52.5052 39.9669 51.2136 39.8207C51.1771 38.8196 51.0521 37.9534 51.1511 37.4922C51.7083 34.9275 51.7656 32.4978 51.0938 30.0343C51.0052 29.7193 51.0313 29.1456 50.9948 28.5832C51.3906 28.2345 51.7865 27.897 52.2448 27.5033C52.3854 24.0274 52.1094 20.1916 53.1563 17.3457C53.7604 16.6932 54.6615 19.9666 55.0677 16.1308C54.7865 15.3771 54.4271 14.691 54.2031 13.7461C53.5365 10.9901 53.9011 8.27915 55.0052 7.59298C55.3333 7.3905 55.6875 7.18802 56.0208 7.30051C56.875 7.58173 57.7396 7.84045 58.5677 8.48163C59.25 9.02157 59.9219 9.38153 60.6042 8.94283C61.7448 8.20041 62.8177 8.68411 63.8802 9.89898C64.1875 10.2364 64.5469 10.3489 64.8802 10.3039C67.1094 9.98896 69.3386 9.73024 71.5521 8.86409C72.8333 8.35789 74.1094 7.90794 75.4115 7.91919C76.5313 7.93044 77.6458 7.40175 78.7656 7.22177C79.6198 7.07553 80.4844 7.14303 81.3386 7.08678C82.4167 7.03054 83.5261 7.76171 84.5313 5.82692C84.7552 5.41072 85.25 5.5457 85.5104 5.97315C86.625 7.73921 87.8177 7.86295 89.0261 7.51423C93.1458 6.29937 97.2813 5.92816 101.417 5.84942C102.615 5.82692 103.807 5.0845 105.005 4.85953C109.219 4.08336 113.443 5.14075 117.656 4.49957C119.974 4.15086 122.302 3.88088 124.625 3.65591C125.313 3.59967 126 3.80214 126.688 3.94838C127.792 4.1846 128.917 5.03951 129.901 2.74476C129.964 2.60977 130.063 2.54228 130.151 2.54228C132.464 2.75601 134.781 1.19243 137.094 2.54228C137.417 2.73351 137.724 3.10472 138.094 3.43093C137.88 4.76954 137.708 5.82692 137.5 7.12053C137.719 7.3455 137.943 7.8292 138.13 7.75046C139.328 7.23302 140.516 6.9518 141.729 7.58173C142.135 7.79546 142.63 7.71671 142.995 7.24426C143.917 6.07439 144.891 6.16438 145.792 6.47935C147.234 6.99679 148.719 5.87192 150.13 7.54798C150.417 7.90794 150.813 7.70547 151.151 7.55923C153.479 6.58059 155.792 7.51424 158.099 7.95294C158.182 7.97544 158.25 8.18916 158.406 8.43663C157.844 10.0902 157.031 8.87534 156.474 9.94397C156.453 10.6526 156.432 11.3613 156.411 12.0587C156.26 12.2725 156.099 12.7112 155.958 12.6662C154.776 12.2612 153.552 13.0374 152.385 11.6313C152.026 11.1813 151.542 11.5075 151.109 11.4963C150.427 11.4851 149.724 11.7325 149.052 11.4288C148.068 10.9789 147.24 11.1588 146.422 13.1499C145.875 14.4772 145.146 14.3197 144.547 12.6774C144.313 12.025 143.974 11.6763 143.839 11.4513C143.031 11.1588 143.193 13.2399 142.557 13.9373C141.37 13.7461 139.927 13.2961 138.594 15.2196C139.057 15.3434 139.563 15.2196 139.781 16.8732C139.052 18.2006 139.052 18.2006 136.13 17.9868C135.583 16.9969 135.016 15.9508 134.37 14.7697C134.5 14.2298 134.635 13.6898 134.792 13.0599C134.75 12.8574 134.693 12.2725 134.604 12.2162C134.271 12.0587 133.911 11.845 133.599 12.07C131.75 13.3748 129.87 13.8135 127.979 14.2185C126.87 14.4547 125.729 14.6347 124.667 15.4671C122.651 17.0082 120.578 16.817 118.536 17.5931C116.417 18.4255 114.25 18.2906 112.104 18.4143C110.813 18.4818 109.531 18.4705 108.255 19.2467C107.589 19.6517 106.891 19.6292 106.203 19.6854C103.281 19.9216 100.359 19.6854 97.4583 21.1252C96.1979 21.7552 94.8802 21.4965 93.5938 21.5977C93.1719 21.6202 92.7656 21.6652 92.4479 22.5426C96.3021 22.0027 100.161 21.4515 104.172 23.0263C105.688 20.4278 107.37 20.5516 109.234 21.6652C111.031 22.7451 112.911 24.1287 114.823 22.6438C115.708 21.9464 116.703 22.6438 117.568 21.1702C117.729 20.889 118.057 21.339 118.307 21.474C118.635 21.6427 118.984 22.0814 119.297 21.9464C120.089 21.5864 120.839 22.0589 121.604 22.2051C122.797 22.4526 124.026 22.5201 125.203 22.0139C126.073 21.6539 126.901 21.6989 127.755 21.7777C128.958 21.8789 130.167 21.5077 131.37 21.3052C133.089 21.0128 134.797 20.2028 136.526 20.4616C137.385 20.5966 138.25 20.1803 139.109 20.0904C139.885 20.0116 140.661 19.8766 141.432 20.0566C142.74 20.3716 144.005 19.8316 145.26 18.9767C145.76 18.6393 146.266 18.1556 146.771 18.1218C148.839 17.9531 150.901 17.8519 152.964 17.8519C154.604 17.8519 156.24 18.0543 157.932 18.1556C158.359 19.5504 158.797 20.979 159.276 22.5538C160.146 22.4414 160.99 22.3289 162.005 22.1826C161.76 20.7203 161.589 19.6742 161.411 18.628C161.969 16.1533 163.026 17.5481 163.818 16.142C163.786 15.2871 163.755 14.376 163.724 13.3636C162.839 12.8124 162.161 14.0835 161.391 14.6347C160.307 14.3647 159.245 13.5661 158.307 11.665C158.651 10.1352 159.271 10.7876 159.708 10.1127C159.776 8.13292 160.469 7.94169 160.859 6.87306C160.807 6.43435 160.76 5.99565 160.714 5.53445C160.76 5.37697 160.823 5.062 160.854 5.0845C161.438 5.50071 162.047 5.75943 162.594 6.43435C163.599 7.69421 164.594 7.75046 165.719 6.67058C166.833 8.86409 168.25 8.7741 169.62 9.43778C169.141 12.205 167.964 9.94397 167.448 12.5987C167.031 14.7247 165.896 14.1623 165.25 15.6471C165.188 17.2444 165.5 18.1556 165.911 18.5268C166.396 18.9542 166.927 19.2017 167.438 19.2017C169.938 19.2017 172.443 19.123 174.943 19.033C175.109 19.0217 175.266 18.7293 175.422 18.5718C175.609 16.4008 175.484 15.4109 174.958 15.4671C174.104 15.5346 173.25 15.9396 172.401 15.9958C171.964 16.0296 171.547 15.5571 171.625 13.5661C173.318 12.9811 175.016 13.6786 176.672 13.4086C176.922 14.8822 177.099 15.9396 177.328 17.3007C178.62 17.8519 179.964 18.6843 181.339 18.808C181.932 18.853 182.526 18.5268 183.125 18.3693C183.74 18.2118 183.88 16.6145 184.286 15.2196C185.568 15.6246 186.917 16.3108 188.271 16.412C189.646 16.5133 191.021 16.0408 192.594 15.7821C193.604 18.1668 194.984 17.6719 196.318 17.6606C196.448 16.8057 196.547 16.187 196.667 15.3996C197.828 14.6685 199.031 15.1971 200.229 15.2534C200.339 15.5571 200.448 15.9621 200.573 16.0071C201.948 16.4345 203.313 16.7495 204.625 14.9159C205 14.3985 205.453 14.151 205.875 14.106C206.807 13.9823 207.745 14.061 208.693 14.061C208.547 15.8271 207.938 14.6797 207.641 15.5684C207.427 16.8057 207.714 17.3682 208.078 17.4806C208.76 17.7056 209.422 17.8968 210 16.1983C210.26 15.4334 210.766 15.0172 211.161 14.9947C212.708 14.8484 214.255 14.5897 215.797 15.6471C216.62 16.2095 217.505 16.232 218.359 16.3445C219.734 16.5245 221.109 16.1083 222.464 17.4919C223 18.0543 223.661 17.7619 224.26 17.8406C226.672 18.1443 229.089 18.3918 231.5 18.7293C232.786 18.9205 234.104 18.7293 235.292 20.5853C237.328 21.384 239.349 22.7451 241.557 21.9464C241.245 21.0465 240.979 20.3266 240.714 19.5842C240.818 17.9868 241.245 19.123 241.5 18.853C241.823 18.5268 242.146 18.2231 242.458 17.9193C242.443 17.5481 242.443 17.3119 242.432 17.0869C241.115 17.7056 239.953 15.2196 238.646 15.4896C238.396 15.5459 238.12 15.4784 237.88 15.2421C237.411 14.7584 237.224 13.8023 237.479 12.1937C237.672 12.07 237.932 11.6763 238.146 11.8225C239.917 13.0486 241.724 13.3074 243.531 13.6561C245.078 13.9598 246.609 14.7022 248.156 15.1746C248.578 15.2984 249 15.1859 249.427 15.1746L249.391 15.0622L249.552 14.8709L249.443 15.1297C250.135 16.0296 250.828 17.0194 251.531 15.1409L251.521 15.1184L251.438 14.9272L251.526 15.1184C251.87 15.1409 252.203 15.1634 252.542 15.1859L252.526 15.1297L252.505 15.0847C252.547 14.9834 252.589 14.8709 252.63 14.7697C252.609 14.8934 252.589 14.9947 252.563 15.1184C253.208 15.5684 253.849 16.2433 254.505 16.3558C255.703 16.5695 256.906 16.4233 258.063 16.4233C258.443 15.5346 258.766 14.7922 259.13 13.9373C260.391 14.2073 261.677 14.4547 262.958 14.7472C264.198 15.0284 265.438 15.3434 266.932 15.6921C265.771 17.2894 264.677 15.2759 263.677 17.4019C264.99 18.0656 266.177 17.7169 267.542 17.4919C267.693 16.9857 267.911 16.2658 268.219 15.2421C269.688 14.8709 271.281 14.8034 272.917 15.9508C272.49 16.817 272.156 17.4919 271.823 18.1781C272.432 19.1117 273.094 19.3929 273.776 19.4042C275.24 19.4492 276.708 19.4942 278.172 19.4829C278.474 19.4829 278.776 19.2355 279.073 18.4818C278.396 18.3131 277.708 18.2793 277.047 17.9193C276.385 17.5706 275.693 18.9655 275.031 17.5819C275.151 17.1882 275.234 16.637 275.333 16.6257C277.74 16.3558 280.141 16.5695 282.547 15.6583C283.698 15.2196 284.927 16.4683 286.12 16.8507C286.589 17.0082 286.943 16.4345 287.047 15.0059C287 14.7809 286.964 14.3985 286.917 14.376C285.818 13.8923 284.724 13.4423 283.245 12.8349C286.641 11.5525 289.651 11.3951 292.661 12.9924C292.995 13.1724 293.344 13.3861 293.682 13.3074C296.62 12.6437 299.542 13.836 302.474 13.5773C303.078 13.5323 303.693 13.5548 304.281 13.8585C306.682 15.0959 309.104 14.6235 311.516 14.8147C312.724 14.9159 313.938 14.9384 315.141 15.0509C316.172 15.1409 317.188 15.0622 318.089 14.4772C318.516 12.5762 317.677 12.4749 317.75 11.1138C318.24 11.0351 318.755 11.0688 319.255 10.8551C320.396 10.3602 321.411 13.0374 322.547 11.9125C323.74 10.7201 324.922 12.1712 326.13 11.6538C327.214 11.1926 328.359 11.8338 329.474 12.025C330.26 12.1825 331.016 12.0475 331.745 11.0238C332.469 10.0002 333.25 9.83148 334.005 10.7089C334.682 11.4963 335.333 11.6425 336.021 10.9676C336.26 10.7314 336.531 10.7539 336.792 10.7539C337.635 10.7426 338.276 12.5649 338.214 14.9497C338.188 16.1308 338.068 17.3232 337.917 18.4368C337.651 20.4391 337.328 22.3626 336.969 24.7586C337.615 24.4774 338.078 24.2749 338.656 24.0274C338.609 24.9498 338.646 25.8722 338.521 26.1422C338.182 26.8509 337.766 27.2221 337.401 27.8183C337.26 28.0545 337.141 28.5044 337.083 28.9431C337.021 29.3593 337.016 29.9218 337.057 30.3492C337.094 30.7654 337.234 31.0917 337.328 31.4741C338.104 31.7891 338.281 28.5832 339.083 29.0556C339.109 29.978 339.005 31.2941 338.807 32.1828C338.901 32.5652 338.969 33.1952 339.083 33.2627C339.589 33.5664 340.109 33.6114 340.604 33.9601C340.646 33.9938 340.688 34.0613 340.729 34.1288C341.953 33.1052 343.24 33.6226 344.453 33.2514C344.859 32.4978 345.214 31.8341 345.568 31.1929C346.771 31.0692 347.969 30.9342 349.161 30.8779C349.297 30.8779 349.563 31.3841 349.552 31.5978C349.531 32.2165 349.458 33.1502 349.307 33.3414C348.932 33.8364 348.495 34.2301 348.094 34.2301C346.182 34.2301 344.354 35.1187 342.521 36.8285C341.766 37.5372 340.995 38.2234 340.198 38.4821C340.161 38.6058 340.12 38.7183 340.078 38.8196C340.12 39.8657 340.167 41.0581 340.208 42.0705C340.349 42.6441 340.448 43.0378 340.557 43.4091C341.667 47.3799 342.922 50.3383 344.891 50.1133C345.219 50.0796 345.563 50.4058 345.88 50.7995C345.984 50.7882 346.089 50.777 346.188 50.7657C346.698 50.6758 347.224 50.2371 347.714 50.4733C348.797 50.9795 349.911 50.1358 350.964 51.2944C350.813 52.2168 350.552 52.8918 350.203 52.858C349.115 52.723 348.036 52.723 346.953 52.7905C347.161 53.9491 347.115 55.119 347.135 56.2326C347.161 57.4588 347.141 58.6736 347.141 59.7648C347.906 62.6782 348.932 63.6793 350.109 63.6793C351.063 63.6793 352.005 63.4994 352.958 63.5443C353.901 63.6006 354.844 63.8706 355.792 63.9943C356.385 64.073 356.99 64.0955 357.583 64.1068C357.839 64.1068 358.104 63.9381 358.354 63.9943C362.224 64.8492 366.099 65.5916 369.969 66.6603C371.266 67.0315 372.604 67.2564 373.823 68.7075C374.135 68.7188 374.453 68.91 374.771 69.2812C375.073 69.6299 375.469 70.0236 375.74 69.7649C376.443 69.1237 377.052 69.2812 377.745 69.9224C378.594 70.6986 379.422 70.3161 380.083 68.1788C380.344 67.3239 380.792 66.874 381.182 66.424C381.661 65.8841 382.208 65.7379 382.651 65.0404C383.37 63.9156 384.083 63.6906 384.891 63.8593C385.948 64.073 386 63.8481 387.036 60.9009C386.844 59.6748 386.484 58.7636 386.047 59.0673C384.75 59.9335 383.484 59.1236 382.208 58.9436C381.714 58.8761 381.141 59.0673 380.703 59.7085C378.969 62.3295 377.031 62.2957 375.172 62.9932C373.474 63.6231 371.734 63.2519 369.443 62.352C372.391 61.1934 374.859 61.8683 377.156 59.2923C376.964 57.9537 376.526 57.605 376.099 57.5713C375.594 57.515 375.073 57.7625 374.563 57.9425C372 58.8536 369.432 59.7873 366.896 60.7097C366.229 59.8323 365.615 59.0336 365.005 58.2349C365.125 57.9537 365.234 57.4925 365.37 57.425C367.052 56.5139 368.734 55.434 370.474 56.5476C371.693 57.335 372.844 55.6252 374.036 55.2878C374.969 55.029 375.891 54.3991 376.844 54.3091C378.036 54.2079 379.229 54.0279 380.255 51.7106C380.641 50.8557 381.26 51.092 381.74 51.9244C382.099 52.5543 382.443 53.2405 382.792 53.9042C383.792 52.8805 384.641 51.2607 385.01 48.9322C385.703 44.6464 386.885 44.4552 388.224 44.8376C388.552 44.9276 388.901 45.2089 389.198 45.6588C389.536 46.1875 389.844 46.1088 390.182 45.85C390.865 45.3213 391.328 46.615 391.823 47.5149C392.172 48.1335 392.188 48.426 392.344 52.4081C391.682 55.524 390.089 55.7827 389.448 59.1911C390.839 62.1608 391.99 62.8132 393.12 60.316C393.953 58.4599 395.016 58.0549 395.724 55.9402C396.792 56.9076 397.172 59.416 397.693 61.5196C398.37 61.4183 398.849 62.0933 399.021 64.3543C398.505 66.0866 397.927 67.8751 397.432 69.8212C397.167 70.8673 397.219 72.1384 397.568 73.162C397.724 73.2745 397.896 73.5783 398.031 73.477C399.156 72.6559 399.568 73.1958 399.641 75.918C399.76 80.5187 400.036 85.1532 399.391 89.7315C399.651 91.5313 399.896 93.3086 400.177 95.2771C399.578 96.7957 399.021 98.1906 398.438 99.6641C396.51 99.0005 394.87 100.418 393.656 105.221C393.797 106.965 393.943 108.854 394.104 110.834C394.641 111.937 395.182 113.061 395.635 113.995C395.688 114.648 395.74 114.917 395.714 115.109C395.427 117.696 395.109 120.407 394.188 121.622C393.219 122.904 392.5 124.794 391.776 126.965C390.885 129.642 389.688 131.194 388.438 132.364C385.724 134.884 382.943 136.526 380.141 137.932C377.25 139.384 374.359 140.801 371.526 142.961C371.193 143.208 370.87 143.534 370.557 143.816C370.26 144.805 369.974 145.75 369.776 146.808C369.797 147.078 369.818 147.359 369.828 147.674C369.74 148.124 369.63 148.551 369.516 149.001C369.505 149.147 369.495 149.305 369.495 149.451C369.667 149.822 369.786 150.317 369.917 150.34C371.38 150.576 372.849 150.88 374.313 150.891C377.089 150.902 379.823 151.87 382.557 153.107C383.318 153.445 384.099 153.658 384.865 153.984C386.495 154.659 388.052 155.706 389.552 157.899C391.417 160.655 393.443 161.701 395.573 160.351C396.406 159.823 397.286 159.755 398.151 159.631C401.776 159.08 405.365 157.73 408.938 155.919C410.458 155.154 412.031 155.076 413.448 152.972C413.74 152.545 414.12 152.567 414.458 152.477C415.995 152.038 417.578 152.612 418.974 149.789C419.401 151.555 419.714 152.702 419.964 153.951C420.313 155.661 420.729 157.112 421.318 158.281C422.401 160.452 423.135 163.31 423.443 167.134C423.672 169.958 424.161 172.601 424.505 175.357C425.172 180.981 425.453 186.595 424.833 192.545ZM397.198 61.9695C397.224 62.127 397.255 62.2845 397.286 62.442C397.38 62.1945 397.479 61.9695 397.573 61.722C397.443 61.8008 397.318 61.8908 397.198 61.9695ZM137.26 15.9958C137.766 16.7832 138.151 16.4458 138.458 15.2421C138.036 15.1072 137.599 14.8034 137.26 15.9958ZM126.859 8.86409C127.995 8.94283 128.984 9.03282 129.974 9.05532C130.068 9.05532 130.167 8.66161 130.26 8.44788C129.177 9.49402 128.063 5.99565 126.859 8.86409ZM105.339 12.6437C106.76 12.4862 108.042 12.0475 109.302 12.2612C112.214 12.7337 115.104 11.7438 118.01 11.6538C118.349 11.6425 118.703 11.6088 119.031 11.3951C120.807 10.2814 122.609 10.1464 124.417 10.3714C124.724 10.4052 125.146 10.1577 124.771 8.49288C122.979 10.3039 121.281 7.75046 119.276 7.59298C118.422 9.34779 117.193 9.78649 116.031 8.86409C114.354 7.53673 112.818 8.11042 111.266 9.92147C110.703 10.5964 110.073 11.2263 109.516 10.4839C108.214 8.74035 106.99 10.4502 105.74 10.8889C105.615 10.9339 105.521 11.8338 105.339 12.6437ZM96.9427 13.0824C99.1875 13.2961 101.385 13.926 103.568 12.5762C102.24 10.6526 102.208 10.4389 101.688 11.0014C100.464 12.3175 99.1875 12.295 97.9167 12.4974C97.75 12.5199 97.5729 12.4862 97.4115 12.5874C97.25 12.6887 97.1042 12.9136 96.9427 13.0824ZM93.7448 14.241C93.8698 14.3197 93.9844 14.4547 94.1042 14.4885C94.2708 14.5222 94.4427 14.4997 94.6146 14.4997C94.6146 14.421 94.6198 14.3647 94.6198 14.2972C94.4115 14.2635 94.2083 14.2185 94 14.196C93.9167 14.196 93.8281 14.2298 93.7448 14.241ZM57.1511 42.2617C57.1042 42.1604 57.0573 41.9692 57.0052 41.958C56.9479 41.9355 56.8854 42.0592 56.8281 42.1267C56.9323 42.1604 57.0417 42.2167 57.1511 42.2617ZM69.6406 58.4374L69.4636 58.1449L69.4219 58.5386L69.6406 58.4374ZM45.0469 118.416C44.9844 118.371 44.9219 118.281 44.8594 118.281C44.7917 118.281 44.7344 118.371 44.6667 118.416C44.7292 118.472 44.7917 118.517 44.8542 118.573C44.9219 118.517 44.9844 118.472 45.0469 118.416ZM28.4583 303.402C28.4323 303.256 28.4011 303.087 28.3698 302.941C28.2761 303.177 28.1771 303.413 28.0886 303.649C28.2136 303.571 28.3386 303.481 28.4583 303.402ZM74.974 84.7483C74.7708 84.4671 74.6511 84.1746 74.5417 84.1746C74.3177 84.1858 74.099 84.3546 73.7969 84.5121C73.9948 84.8045 74.1146 85.1195 74.2292 85.1195C74.4427 85.097 74.6615 84.917 74.974 84.7483ZM81.3542 70.4848C81.625 70.5973 81.8698 70.7661 82.1302 70.7886C83.6875 70.9348 85.2448 71.0698 86.8073 71.2048C86.7396 70.5411 86.6563 69.9449 86.6511 69.3487C85.1875 69.3487 83.724 69.3262 82.2656 69.3375C82.0886 69.3375 81.9115 69.315 81.75 69.45C81.5886 69.5962 81.2656 69.3825 81.3542 70.4848ZM87.4375 84.827C87.2761 84.692 87.1198 84.4896 86.9583 84.4108C86.3386 84.0958 85.7188 83.9271 85.099 83.7921C85.0729 83.7921 85.0521 83.8034 85.0313 83.8034C85.0313 83.7921 85.0261 83.7921 85.0261 83.7809C84.0573 83.5897 83.0886 83.4659 82.1302 83.0835C80.4948 82.4423 78.9011 83.1172 77.1927 83.1172C77.6719 83.6346 78.0781 83.9609 78.4479 84.5008C78.8177 85.052 79.1563 85.8394 79.5886 86.6943C81.5104 86.5593 83.4844 86.4918 85.4583 86.2669C85.9688 86.1994 86.474 85.7157 86.974 85.3782C87.1354 85.277 87.2865 85.0182 87.4375 84.827ZM92.2761 22.6213C91.5625 22.7451 90.849 22.8913 90.1354 23.0263C90.8854 23.6225 91.6042 23.5887 92.2761 22.6213ZM99.2292 68.1563C98.0677 68.1788 96.8958 68.2126 95.7292 68.2801C96.1875 68.6625 96.6563 68.7413 97.1511 68.64C97.849 68.4826 98.5365 68.2913 99.2292 68.1563ZM292.151 15.9283C294.771 17.4806 297.245 17.9081 299.734 17.8968C300.589 17.8968 301.448 18.2906 302.297 18.583C303.557 19.0105 304.813 19.3929 306.167 19.0105C304.99 17.3007 303.833 16.952 302.615 16.8957C300.641 16.8057 298.667 16.2995 296.693 15.9508C296.177 15.8496 295.667 15.5909 295.156 15.5571C294.641 15.5121 294.125 15.6471 293.604 15.6808C293.182 15.7146 292.734 15.2084 292.151 15.9283ZM288.807 89.619C291.214 89.6077 293.615 89.5852 296.026 89.6077C297.229 89.619 298.495 89.2365 299.62 90.1477C301.13 91.3738 302.469 91.2388 303.865 89.4278C304.698 88.3366 305.542 88.5616 306.328 90.0464C306.479 90.3277 306.651 90.4964 306.849 90.7101C307.021 90.6201 307.203 90.5189 307.38 90.4289C307.49 90.2377 307.599 90.0464 307.708 89.8552C307.266 89.7877 306.885 89.7652 306.552 89.394C305.208 87.9204 303.88 87.9092 302.51 88.9441C302.198 89.1915 301.839 89.0116 301.5 88.9441C300.818 88.7978 300.12 88.2804 299.453 88.4716C298.219 88.8541 297.057 88.1229 295.693 87.2005C294.141 88.9891 292.583 88.3816 291.052 88.1004C290.214 87.9429 289.5 88.6404 288.807 89.619ZM290.927 295.269C290.974 295.213 291.021 295.134 291.063 295.067C290.776 295.246 290.49 295.438 290.203 295.64C289.906 295.843 289.609 296 289.307 296.146C289.87 297.114 290.464 297.294 291.089 296.585C291.036 296.101 290.984 295.696 290.927 295.269ZM287.833 296.54C287.974 296.563 288.115 296.608 288.255 296.641C288.49 296.686 288.729 296.473 288.964 296.27C288.589 296.416 288.208 296.506 287.833 296.54ZM286.943 299.499C287.047 299.645 287.141 299.858 287.255 299.937C287.323 299.993 287.411 299.847 287.495 299.791C287.391 299.622 287.286 299.465 287.182 299.296C287.099 299.364 287.021 299.42 286.943 299.499ZM285.307 23.4537C285.865 23.4537 286.443 23.4537 287.016 23.4537C286.99 23.2175 286.964 23.0038 286.932 22.7676C286.521 22.5313 286.115 22.2276 285.698 22.0814C285.432 22.0026 285.198 22.2839 285.307 23.4537ZM280.849 295.696C280.984 295.944 281.12 296.214 281.26 296.54C282.031 298.329 282.969 298.722 283.964 298.194C284.224 297.552 284.49 296.889 284.792 296.135C284.026 295.978 283.26 295.843 282.49 295.786C281.948 295.753 281.401 295.719 280.849 295.696ZM277.979 21.8002C278.047 21.8002 278.115 21.8114 278.182 21.7889C278.193 21.7889 278.193 21.6314 278.203 21.5415C278.141 21.5077 278.068 21.4852 278.005 21.4852C277.995 21.4852 277.984 21.6877 277.979 21.8002ZM275.531 81.1487C276.151 81.3624 276.771 81.6324 277.385 82.0148C278.208 82.5323 279.078 82.6448 279.953 82.2061C280.193 82.0823 280.443 82.0148 280.688 81.9811C278.974 81.6099 277.26 81.2837 275.531 81.1487ZM277.604 295.831C275.927 296.045 274.25 296.698 272.568 296.889C274.13 297.44 275.729 297.283 277.318 297.451C277.542 297.058 277.771 296.72 277.979 296.293C278.078 296.101 278.172 295.933 278.266 295.764C278.047 295.786 277.823 295.809 277.604 295.831ZM272.807 89.0341C273.599 89.1803 274.078 89.3715 274.557 89.3265C274.714 89.3265 274.87 89.4278 275.026 89.5403C275.38 89.5403 275.734 89.5403 276.083 89.529C276.125 89.4503 276.167 89.3603 276.214 89.2478C275.188 87.8079 275.188 87.8079 272.807 89.0341ZM269.865 19.3254C270.479 18.9317 270.958 18.628 271.411 18.3356C270.938 18.3131 270.422 17.8181 269.865 19.3254ZM252.328 48.336C252.422 48.6622 252.495 49.1459 252.599 49.2472C253.031 49.6184 253.479 50.1358 253.953 49.3597C253.922 49.3372 253.896 49.2922 253.87 49.2584C253.839 49.3372 253.807 49.4159 253.776 49.4271C253.651 49.4721 253.505 49.0897 253.37 48.8985C253.391 48.8197 253.417 48.741 253.438 48.6622C253.099 48.1898 252.755 47.8298 252.328 48.336ZM251.609 79.99C251.682 80.0688 251.75 80.2375 251.828 80.2263C252.068 80.1925 252.12 79.9338 251.958 79.6076C251.906 79.5063 251.797 79.5626 251.724 79.6188C251.677 79.6638 251.646 79.8663 251.609 79.99ZM249.833 44.9276C250.01 45.3776 250.151 45.7376 250.313 46.03C250.391 46.1763 250.594 45.8725 250.724 45.6926C250.755 45.6476 250.76 45.1976 250.724 45.0514C250.63 44.7027 250.536 44.3652 250.411 44.0952C250.214 44.3764 250.016 44.6352 249.833 44.9276ZM244.396 39.9894C244.63 40.1244 244.865 40.3156 245.094 40.4844C245.344 40.6644 245.589 41.0693 245.833 41.0468C246.021 41.0356 246.198 40.5069 246.38 40.2032C246.26 39.8657 246.161 39.292 246.031 39.2358C245.656 39.1008 245.281 38.9995 244.911 38.8983C244.917 38.9095 244.917 38.932 244.922 38.9433C244.755 39.4495 244.578 39.7982 244.396 39.9894ZM245.464 43.4765C245.135 43.4765 244.802 43.4765 244.474 43.4765C244.474 43.6678 244.479 43.859 244.479 44.039C244.813 43.9827 245.146 43.9153 245.479 43.859C245.469 43.7353 245.464 43.6003 245.464 43.4765ZM243.833 77.8865C242.375 77.5603 240.922 77.2791 239.464 76.9979C238.516 76.8179 237.568 76.5929 236.625 76.5142C235.833 76.4579 235.036 76.4129 234.245 76.5142C233.922 76.6604 233.594 76.6492 233.292 76.6942C232.448 76.9079 231.609 77.2566 230.771 77.5491C230.859 79.2364 231.589 78.9327 231.828 80.1588C231.401 80.3388 230.969 80.4175 230.552 80.6987C228.865 81.8461 227.177 82.521 225.427 82.2173C224.406 82.0373 223.328 82.2511 222.339 82.971C220.359 84.4108 218.385 84.0059 216.427 83.2072C215.391 82.7685 214.37 82.6335 213.339 82.7122C209.807 82.971 206.276 83.3759 202.745 83.6009C201.026 83.7134 199.297 84.2871 197.609 82.7122C197.297 82.4198 196.922 82.5998 196.578 82.5885C192.698 82.5098 188.818 82.4423 184.938 82.3523C180.625 82.2511 176.307 82.2061 172 81.9698C170.37 81.8798 168.734 81.0024 167.104 81.0812C165.469 81.1487 163.844 80.9349 162.229 80.4287C161.365 80.1475 160.495 79.9001 159.688 80.53C157.755 82.0486 155.781 82.1048 153.813 82.5435C152.984 82.7347 152.151 82.8922 151.323 83.0272C152.438 83.106 153.563 83.1959 154.682 83.2747C155.885 83.3647 157.094 83.5334 158.302 83.6009C161.839 83.8259 165.375 83.9496 168.911 84.2196C173.13 84.5458 177.359 84.9395 181.578 85.3895C185.276 85.7719 188.974 86.3569 192.667 86.6493C194.474 86.8068 196.323 87.0768 198.099 86.2781C200.682 85.1307 203.25 85.2207 205.839 85.5132C205.844 85.5244 205.849 85.5357 205.854 85.5469C206.651 83.8709 207.568 83.7809 208.51 83.9946C210.063 84.3433 211.615 84.9957 213.151 84.8045C214.385 84.6358 215.531 85.0745 216.708 85.9519C217.281 86.3793 217.932 86.7506 218.484 86.3906C219.87 85.4907 221.214 85.6932 222.583 86.4468C223.083 86.7168 223.615 86.6043 224.135 86.6156C226.464 86.6831 228.797 86.7731 231.125 86.7618C231.573 86.7618 232.068 87.133 232.5 86.1769C231.849 84.962 230.927 86.7056 230.224 83.7246C232.214 84.2758 233.99 83.2072 235.792 83.5897C237.766 83.9946 239.74 84.647 241.714 85.1532C242.224 85.2882 242.76 85.5469 243.25 85.2432C243.958 84.8158 244.62 85.0857 245.297 85.4794C248.453 87.313 251.656 86.6718 254.844 87.0205C257.594 87.3242 260.365 86.8968 263.115 87.3917C263.938 87.538 264.771 87.6505 265.599 87.8529C265.958 87.8642 266.318 87.8754 266.677 87.8979C268.609 88.0892 270.458 87.0768 272.292 85.6482C272.484 85.5019 272.62 84.692 272.984 83.5672C271.047 83.2072 269.38 86.0756 267.682 84.4446C265.891 85.6032 264.078 84.7708 262.391 85.2095C261.786 84.1296 261.13 83.8709 260.896 82.0486C260.974 81.6324 261.052 81.2499 261.182 80.62C262.135 81.5311 263.115 82.2398 264.115 80.5187C264.427 79.9788 264.99 80.1138 265.375 80.4737C266.552 81.5761 267.698 81.7899 268.891 80.6087C269.286 80.215 269.745 80.3388 270.172 80.3725C270.245 80.3725 270.313 80.3838 270.38 80.3838C269.781 80.2375 269.182 80.1025 268.578 80.0013C267.464 79.8213 266.286 80.2938 265.234 79.4839C265.125 79.4051 265.016 79.3601 264.901 79.2814C264.479 79.2814 264.057 79.2814 263.63 79.2814C262.557 79.2589 261.469 79.6526 260.406 78.8089C259.875 78.7864 259.349 78.7077 258.823 78.6177C258.286 78.7639 257.755 78.9327 257.224 79.1576C257.135 79.1914 257.063 79.6076 256.979 79.8551C257.573 81.0137 258.401 79.4951 258.896 81.4299C258.766 81.6774 258.646 82.1161 258.521 82.1273C257.401 82.2398 256.281 82.341 255.161 82.3298C253.87 82.296 252.583 82.0373 251.292 82.0598C249.13 82.0823 246.974 82.2623 244.818 82.341C243.609 82.3748 242.401 82.3748 241.193 82.2623C241.005 82.2511 240.828 81.4974 240.641 81.0812C241.245 79.0002 241.979 80.2375 242.625 80.0913C243.286 79.9563 243.995 80.3613 244.589 78.3815C244.271 78.179 244.057 77.9428 243.833 77.8865ZM219.469 279.149C219.443 279.116 219.37 279.296 219.318 279.374C219.453 279.464 219.583 279.543 219.719 279.633C219.635 279.464 219.552 279.296 219.469 279.149ZM205.943 85.7382C206.021 85.9069 206.104 86.0756 206.188 86.2219C206.214 86.2669 206.286 86.0756 206.339 85.9969C206.208 85.9069 206.073 85.8282 205.943 85.7382ZM153.089 68.4713C151.526 67.9201 149.927 68.0889 148.339 67.9089C148.115 68.3026 147.885 68.6513 147.677 69.0675C147.578 69.2587 147.484 69.4275 147.391 69.6074C147.609 69.5849 147.833 69.5737 148.052 69.5399C149.734 69.3262 151.411 68.6738 153.089 68.4713ZM176.13 77.3016C176.536 77.2678 176.948 76.9529 177.339 76.6042C177.458 76.5029 177.516 75.873 177.599 75.4905C177.542 75.3893 177.479 75.1868 177.417 75.1868C175.995 75.1643 174.568 75.1756 173.063 75.1756C173.063 75.8618 173.063 76.4692 173.063 77.3353C174.12 77.3353 175.125 77.3916 176.13 77.3016ZM230.604 77.4253C230.375 77.0991 230.172 76.3792 229.865 77.0654C230.083 77.7178 230.349 77.4591 230.604 77.4253ZM242.411 46.8287C242.484 46.8737 242.568 46.9074 242.635 46.8512C242.693 46.8174 242.74 46.6599 242.786 46.5475C242.646 46.5475 242.505 46.5475 242.37 46.5475C242.38 46.615 242.391 46.8174 242.411 46.8287ZM237.255 38.5946C237.365 38.6283 237.479 38.6396 237.589 38.6283C238.188 38.6171 238.698 39.7757 239.135 41.0468C239.49 42.0705 239.88 43.0716 240.318 43.7915C240.797 44.5564 241.292 44.4214 241.646 43.0378C242.036 42.6554 242.495 42.6441 242.745 41.4405C242.984 40.2482 243.359 39.8994 243.766 39.8544C243.75 39.8319 243.734 39.8094 243.724 39.787C242.958 38.2571 242.141 38.0771 241.26 38.1896C239.927 38.3471 238.589 38.4371 237.255 38.5946ZM234.969 38.9433C234.318 39.0783 233.661 39.2245 233.005 39.4382C231.313 39.9782 229.578 39.5845 227.859 39.5845C227.604 39.5845 227.297 39.1458 227.109 39.4157C226.375 40.4956 225.63 40.2819 224.896 39.9894C225.214 40.1807 225.38 40.7094 225.354 41.508C225.328 42.5092 225.01 43.2403 224.672 43.0941C224.307 42.9254 224.068 42.3517 223.995 41.3055C223.932 40.4506 224.24 39.8544 224.693 39.9219C224.703 39.9219 224.714 39.9332 224.724 39.9332C224.589 39.8769 224.448 39.8207 224.313 39.7757C223.625 39.562 222.99 38.9095 222.313 39.9894C222.109 40.3156 221.786 40.3269 221.557 40.1244C220.635 39.337 219.708 39.3595 218.786 39.607C218.75 40.9793 218.453 41.8792 218.063 42.4304C217.792 42.8129 217.411 42.8129 217.099 42.6554C216.911 42.5654 216.651 41.8792 216.63 41.3955C216.62 41.0693 216.667 40.6306 216.75 40.2482C215 40.6531 213.281 40.2482 211.547 39.5845C210.307 39.1008 209.063 39.0108 207.802 39.4495C208.01 39.7982 208.109 40.1582 208.365 41.0918C207.75 42.1604 207.135 42.1717 206.297 40.8218C206.469 40.4394 206.604 40.1357 206.729 39.8657C205.411 40.4056 204.089 40.9231 202.797 40.5969C202.26 40.4506 201.719 40.3944 201.177 40.3606C201.318 40.3606 201.453 40.5744 201.609 40.7206C201.474 40.8668 201.359 41.1031 201.24 41.1031C201.099 41.1031 200.964 40.8893 200.823 40.7768C200.938 40.6306 201.052 40.3719 201.167 40.3719C199.563 40.3044 197.964 40.6081 196.359 40.5181C195.62 40.4731 194.906 40.5744 194.177 40.8331C194.125 41.1031 194.068 41.3618 194.021 41.6205C193.964 41.3955 193.906 41.1705 193.849 40.9456C193.313 41.1143 192.771 41.1818 192.224 41.2268C192.401 41.778 192.625 42.2392 192.948 42.5092C193.229 42.3179 193.641 42.048 194.057 41.7667L194.01 41.6767C194.016 41.6542 194.016 41.643 194.021 41.6205C194.026 41.643 194.031 41.6767 194.036 41.688C194.516 42.1379 194.974 42.7341 195.464 42.9479C196.229 43.2853 197.005 43.3866 197.781 43.499C198.724 43.634 199.667 43.7578 200.615 43.769C201.042 43.769 201.521 43.0154 201.885 43.3641C203.266 44.6689 204.62 43.5553 205.984 43.4203C206.677 43.3641 207.328 43.499 208.016 43.724C209.635 44.2527 211.281 44.219 212.917 44.3652C213.516 44.4327 214.135 44.129 214.719 44.4327C216.859 45.5463 219.016 45.4788 221.177 45.6926C222.729 45.8388 224.281 46.0863 225.823 46.6712C226.948 47.1099 228.047 47.1099 229.172 46.6937C230.281 46.2887 231.458 45.4788 232.516 46.075C234.161 46.9749 235.771 46.4012 237.391 46.435C238.24 46.4462 239.078 47.6723 239.953 46.6937C239.885 46.435 239.854 46.1425 239.792 46.0863C238.99 45.4001 238.177 44.7477 237.349 44.0615C237.349 42.9141 237.349 41.778 237.349 40.6194C236.578 39.8544 235.693 40.1357 234.969 38.9433ZM231 34.2751C231.057 34.455 231.12 34.635 231.182 34.815C231.724 34.86 232.271 34.815 232.818 34.7925C233.286 34.77 233.76 34.7925 234.224 34.8375C233.24 34.365 232.26 33.8476 231.286 33.2739C231.224 33.2402 231.104 33.8926 231 34.2751ZM202.188 28.9544L202.193 29.4606L202.38 29.2131L202.188 28.9544ZM172.005 26.0072C173 28.032 173.125 28.347 173.802 27.7958C174.891 26.9071 175.984 26.6709 177.104 26.7046C179.849 26.7721 182.589 26.7271 185.328 26.6821C185.521 26.6821 185.865 27.0983 185.833 25.771C185.625 25.4673 185.417 25.0061 185.182 24.8486C183.859 23.9262 182.5 26.5022 181.172 24.5111C180.995 24.2524 180.682 24.6799 180.427 24.8261C180.344 24.8711 180.271 25.0398 180.188 25.0736C179.771 25.2873 179.354 25.6248 178.932 25.636C176.88 25.681 174.823 25.6135 172.766 25.6135C172.526 25.6135 172.276 25.861 172.005 26.0072ZM168.755 27.0084C168.854 27.2783 168.938 27.5933 169.047 27.7845C169.089 27.852 169.193 27.6383 169.271 27.5595C169.172 27.2671 169.068 26.9859 168.964 26.6934C168.896 26.8059 168.823 26.9071 168.755 27.0084ZM156.635 20.4503C156.714 20.4953 156.797 20.5966 156.875 20.5741C157.182 20.4841 157.198 20.2478 156.911 19.9666C156.839 19.8879 156.74 19.9441 156.667 20.0116C156.641 20.0341 156.641 20.3041 156.635 20.4503ZM143.078 27.6833L143.214 27.9083L143.224 27.537L143.078 27.6833ZM138.932 28.9319C139.036 29.0556 139.135 29.1794 139.234 29.3143C139.297 29.2356 139.365 29.1456 139.422 29.0556C139.318 28.9319 139.229 28.7632 139.12 28.6957C139.068 28.6732 139 28.8532 138.932 28.9319ZM131.604 29.2469C132.625 30.5855 133.443 29.3368 134.266 29.0781C133.453 29.0781 132.62 27.8408 131.604 29.2469ZM127.932 35.9736C127.974 37.3235 128.255 37.8859 128.552 38.1221C128.964 38.4371 129.406 38.7071 129.828 38.5946C131.458 38.1446 133.078 37.9534 134.714 38.2796C135.219 38.3809 135.74 38.0546 136.245 37.7397C136.995 37.256 137.729 36.6036 138.359 36.1086C139.401 36.7835 140.318 37.3797 141 37.8297C142.25 37.2335 143.26 36.7498 144.302 36.2548C145.688 38.3021 147.104 38.1896 148.578 37.2222C150.115 36.2211 151.682 36.9973 153.208 37.5484C154.156 37.8972 155.042 38.7746 155.932 37.0423C156.109 36.6935 156.469 36.6935 156.682 36.9523C157.688 38.2234 158.703 37.6609 159.734 37.4135C160.411 37.256 161.115 37.301 161.792 37.5934C163.51 38.3359 165.219 38.5496 166.88 36.986C167.724 37.9084 168.526 38.4933 169.422 38.2234C170.359 37.9422 171.318 38.1896 172.266 38.2009C173.724 38.2121 175.188 38.2009 176.432 38.2009C178.714 34.5113 178.714 34.5113 180.229 36.1648C179.917 36.8285 179.63 37.4247 179.302 38.1221C180.156 38.8983 181.01 38.1446 181.807 39.292C181.234 40.6306 180.484 39.5282 180.052 41.1256C180.536 41.2605 181.016 41.373 181.5 41.4743C181.578 41.0243 181.646 40.6981 181.74 40.6081C182.958 39.3483 184.25 39.337 185.526 39.2133C186.271 39.1458 187.01 39.1683 187.745 39.1345C187.37 38.6846 186.771 39.3595 186.557 37.7284C187.307 34.5 188.557 35.8949 189.589 35.0737C189.891 35.7824 190.125 36.5923 190.422 36.9748C190.698 37.3235 191.042 37.2222 191.271 37.2897C191.328 37.4585 191.38 37.6384 191.432 37.8184C192.547 37.481 193.667 37.5484 194.786 37.6497C196 37.7509 197.198 37.9984 198.396 37.2222C198.729 37.0085 199.115 36.6823 199.417 36.9523C200.625 38.0546 201.807 36.6261 202.974 36.8285C205.141 37.1885 207.266 35.9399 209.411 36.2773C211.479 36.6148 213.542 36.9185 215.599 37.3572C216.724 37.5934 217.828 37.4585 218.953 37.0535C221.344 36.1761 223.75 35.6024 226.151 34.8937C226.667 34.7363 227.172 34.4663 227.693 34.3201C228.047 34.2188 228.427 33.9938 228.781 33.9938C227.5 32.6215 226.167 32.329 224.854 32.4528C224.37 33.3639 223.953 34.1738 223.755 34.545C222.625 34.545 221.76 34.68 220.901 34.5113C219.193 34.2076 217.458 34.2976 215.885 31.8341C215.703 31.5529 215.417 31.8228 215.172 31.8341C215.005 31.8341 214.833 31.8116 214.667 31.7891C214.583 31.8341 214.51 31.8228 214.438 31.7666C214.177 31.7441 213.917 31.7666 213.672 31.9466C213.188 32.2953 212.755 33.2064 212.333 33.8364C211.771 32.9702 211.281 31.6203 210.755 31.4966C208.953 31.0804 207.13 30.6867 205.333 31.0917C204.13 31.3616 202.984 31.5529 201.776 31.1479C200.589 30.7429 199.37 31.3166 198.161 31.4629C196.708 31.6428 195.224 32.4753 193.807 31.8791C191.99 31.1254 190.198 31.5079 188.396 31.6091C186.849 31.6991 185.286 32.3965 183.75 32.0253C182.203 31.6541 180.667 31.8791 179.125 31.5754C178.271 31.4179 177.38 31.3279 176.552 31.8003C175.266 32.5315 173.99 32.5427 172.698 32.374C170.375 32.0703 168.052 32.0366 165.745 31.3841C164.083 30.9117 162.484 31.0804 160.938 32.3965C160.234 31.7103 159.589 31.0692 158.984 30.4842C158.193 31.2829 157.474 32.0253 156.682 32.824C155.823 31.5079 154.906 31.3054 153.943 31.9691C153.099 32.554 152.25 32.6102 151.391 31.9353C150.37 31.1367 149.375 31.2491 148.349 32.2503C147.464 33.1277 146.51 33.4764 145.729 33.9826C144.271 33.1502 142.927 32.374 141.781 31.7216C141.042 32.599 140.495 33.7689 139.948 33.7914C138.422 33.8476 136.906 34.59 135.375 34.4438C134.089 34.3201 132.807 34.8937 131.505 34.59C130.938 34.455 130.344 35.3324 129.75 35.5687C129.151 35.8161 128.552 35.8499 127.932 35.9736ZM134.729 70.1024C134.682 70.1699 134.635 70.2374 134.594 70.3049C134.88 70.1249 135.167 69.9337 135.453 69.7312C135.75 69.5287 136.047 69.3712 136.349 69.2362C135.786 68.2688 135.198 68.0889 134.568 68.7863C134.625 69.27 134.672 69.6862 134.729 70.1024ZM116.896 37.7622C117.422 38.7071 117.979 38.5271 118.443 38.1334C119.297 37.391 120.13 37.6722 120.969 38.0321C122.156 38.5271 123.328 38.9095 124.5 37.5484C124.854 37.1435 125.344 37.7397 125.766 37.7397C125.896 37.7397 126.026 37.2897 126.156 37.0535C126.036 36.7385 125.938 36.2323 125.807 36.1648C125.469 35.9961 125.12 35.8836 124.786 35.9849C123.922 36.2323 123.094 35.9511 122.229 35.6249C120.625 34.9837 118.995 35.7711 117.391 36.3561C117.214 36.4236 117.063 37.2672 116.896 37.7622ZM104.359 351.277C102.818 349.736 102.818 349.713 101.844 351.659C102.422 351.715 102.995 351.828 103.573 351.794C103.813 351.783 104.052 351.49 104.359 351.277ZM120.073 71.2048C121.354 71.441 122.625 72.2171 123.911 72.4534C124.672 72.5884 125.453 72.2171 126.219 71.9134C127.417 71.4297 128.599 71.1373 129.828 71.5422C131.245 72.0259 132.646 71.4972 134.026 70.6761C133.688 70.6761 133.339 70.6536 133 70.5411C132.578 70.4061 132.125 69.7087 131.75 69.9674C130.172 71.0698 128.724 69.7087 127.224 68.7413C126.24 68.1001 125.182 67.9651 124.167 68.2013C122.734 68.5501 121.313 69.4387 120.047 70.0236C117.797 67.5039 115.703 67.4252 113.583 69.2587L113.609 69.3375C113.464 69.09 113.328 68.6625 113.177 68.6063C111.047 67.8526 108.865 68.8425 106.76 67.1552C106.609 67.0315 106.427 67.3352 106.255 67.3802C105.401 67.6164 104.547 67.9764 103.698 68.0101C103.214 68.0326 102.724 68.0551 102.24 68.0664C102.594 68.1451 102.948 68.2688 103.302 68.4488C104.245 67.7964 105.089 68.1901 106.031 69.2362C106.849 70.1249 107.891 69.6187 108.823 69.4275C109.594 69.27 110.354 68.775 111.125 69.5287C112.703 71.0585 114.38 69.7649 115.979 70.7773C117.359 69.5849 118.714 70.9573 120.073 71.2048ZM133.505 349.454C130.885 347.902 128.411 347.463 125.922 347.475C125.068 347.475 124.214 347.081 123.359 346.788C122.099 346.372 120.844 345.99 119.49 346.361C120.667 348.071 121.823 348.419 123.042 348.487C125.016 348.577 126.99 349.083 128.964 349.432C129.479 349.522 129.99 349.781 130.505 349.826C131.016 349.859 131.531 349.736 132.052 349.691C132.474 349.657 132.922 350.163 133.505 349.454ZM136.849 275.752C134.448 275.775 132.036 275.797 129.63 275.775C128.427 275.764 127.161 276.146 126.036 275.224C124.526 273.998 123.188 274.144 121.792 275.955C120.958 277.035 120.115 276.81 119.328 275.325C119.177 275.044 119.005 274.875 118.807 274.661C118.635 274.751 118.453 274.852 118.276 274.942C118.167 275.134 118.057 275.325 117.948 275.516C118.391 275.595 118.771 275.606 119.104 275.989C120.448 277.451 121.776 277.462 123.151 276.427C123.458 276.18 123.818 276.371 124.156 276.439C124.839 276.574 125.536 277.102 126.203 276.9C127.438 276.529 128.599 277.248 129.964 278.182C131.521 276.382 133.073 277.001 134.604 277.271C135.443 277.428 136.156 276.742 136.849 275.752ZM137.823 68.8425C137.682 68.8088 137.547 68.7638 137.401 68.7413C137.167 68.685 136.927 68.8988 136.693 69.1012C137.068 68.955 137.448 68.865 137.823 68.8425ZM138.714 65.8841C138.609 65.7266 138.516 65.5129 138.401 65.4341C138.333 65.3891 138.245 65.5241 138.167 65.5916C138.266 65.7491 138.37 65.9066 138.474 66.0753C138.557 66.0078 138.635 65.9516 138.714 65.8841ZM140.349 341.918C139.792 341.918 139.214 341.918 138.641 341.918C138.667 342.154 138.698 342.379 138.724 342.604C139.135 342.851 139.542 343.144 139.958 343.29C140.224 343.369 140.458 343.087 140.349 341.918ZM144.807 69.6749C144.672 69.4275 144.536 69.1575 144.396 68.8425C143.625 67.0427 142.688 66.6603 141.693 67.1777C141.432 67.8189 141.167 68.4826 140.865 69.2362C141.63 69.3937 142.396 69.5287 143.167 69.5962C143.708 69.6187 144.26 69.6524 144.807 69.6749ZM147.677 343.571C147.609 343.571 147.542 343.56 147.474 343.582C147.469 343.582 147.464 343.74 147.453 343.83C147.516 343.864 147.589 343.897 147.651 343.897C147.661 343.897 147.672 343.684 147.677 343.571ZM150.125 284.223C149.505 284.02 148.885 283.739 148.271 283.357C147.448 282.85 146.583 282.727 145.703 283.165C145.464 283.289 145.214 283.357 144.969 283.39C146.682 283.761 148.401 284.099 150.125 284.223ZM152.849 276.349C152.057 276.191 151.578 276 151.099 276.045C150.943 276.056 150.786 275.955 150.63 275.831C150.276 275.831 149.922 275.831 149.573 275.842C149.531 275.921 149.49 276.011 149.443 276.124C150.469 277.563 150.469 277.563 152.849 276.349ZM155.792 346.046C155.177 346.44 154.698 346.743 154.245 347.036C154.719 347.07 155.234 347.553 155.792 346.046ZM173.328 317.035C173.234 316.72 173.161 316.237 173.057 316.135C172.625 315.764 172.177 315.236 171.703 316.012C171.734 316.045 171.76 316.079 171.786 316.113C171.818 316.034 171.849 315.967 171.88 315.955C172.01 315.899 172.151 316.282 172.286 316.473C172.266 316.552 172.24 316.642 172.219 316.72C172.557 317.193 172.901 317.542 173.328 317.035ZM174.047 285.381C173.974 285.303 173.906 285.145 173.828 285.156C173.589 285.179 173.536 285.449 173.698 285.764C173.75 285.865 173.859 285.82 173.932 285.753C173.979 285.708 174.01 285.505 174.047 285.381ZM175.823 320.455C175.646 319.994 175.505 319.634 175.344 319.341C175.266 319.195 175.068 319.51 174.932 319.69C174.901 319.724 174.896 320.185 174.932 320.32C175.026 320.669 175.12 321.017 175.245 321.276C175.443 320.995 175.641 320.747 175.823 320.455ZM181.26 325.382C181.026 325.258 180.792 325.067 180.563 324.887C180.313 324.707 180.073 324.302 179.823 324.325C179.635 324.336 179.458 324.876 179.276 325.168C179.396 325.506 179.495 326.091 179.63 326.136C180 326.282 180.375 326.383 180.745 326.484C180.74 326.462 180.74 326.439 180.734 326.428C180.901 325.922 181.078 325.573 181.26 325.382ZM180.193 321.906C180.521 321.906 180.854 321.906 181.182 321.906C181.182 321.715 181.177 321.524 181.177 321.332C180.844 321.4 180.51 321.456 180.177 321.524C180.188 321.636 180.193 321.771 180.193 321.906ZM181.823 287.485C183.281 287.811 184.734 288.092 186.193 288.373C187.141 288.553 188.089 288.79 189.031 288.857C189.823 288.913 190.62 288.958 191.411 288.868C191.734 288.711 192.063 288.722 192.365 288.688C193.208 288.463 194.047 288.126 194.885 287.834C194.797 286.135 194.068 286.439 193.828 285.213C194.255 285.044 194.693 284.965 195.104 284.684C196.792 283.537 198.479 282.862 200.229 283.165C201.25 283.345 202.328 283.12 203.318 282.4C205.297 280.961 207.271 281.366 209.229 282.175C210.266 282.603 211.286 282.738 212.318 282.67C215.849 282.4 219.38 282.007 222.911 281.77C224.63 281.658 226.365 281.084 228.047 282.67C228.359 282.963 228.734 282.783 229.078 282.783C232.964 282.873 236.839 282.929 240.719 283.019C245.031 283.12 249.349 283.165 253.656 283.402C255.292 283.492 256.927 284.369 258.552 284.301C260.188 284.223 261.813 284.436 263.427 284.954C264.292 285.224 265.161 285.471 265.969 284.841C267.901 283.334 269.875 283.267 271.844 282.828C272.672 282.637 273.505 282.49 274.339 282.344C273.219 282.265 272.094 282.187 270.974 282.108C269.771 282.018 268.563 281.838 267.354 281.77C263.818 281.545 260.281 281.433 256.75 281.152C252.526 280.837 248.297 280.432 244.078 279.993C240.38 279.611 236.682 279.026 232.99 278.722C231.182 278.565 229.333 278.295 227.557 279.093C224.974 280.241 222.406 280.151 219.818 279.858C219.813 279.847 219.807 279.836 219.807 279.824C219.005 281.5 218.089 281.59 217.146 281.377C215.599 281.039 214.047 280.387 212.505 280.578C211.271 280.736 210.125 280.297 208.953 279.431C208.38 278.992 207.724 278.621 207.172 278.981C205.786 279.892 204.443 279.689 203.073 278.936C202.573 278.666 202.042 278.767 201.521 278.756C199.193 278.688 196.859 278.598 194.531 278.61C194.083 278.61 193.589 278.25 193.156 279.194C193.807 280.409 194.729 278.666 195.432 281.647C193.443 281.096 191.667 282.164 189.865 281.793C187.891 281.377 185.917 280.724 183.943 280.218C183.432 280.094 182.896 279.824 182.406 280.128C181.698 280.567 181.036 280.286 180.359 279.903C177.203 278.07 174 278.7 170.813 278.362C168.063 278.058 165.292 278.475 162.542 277.991C161.719 277.833 160.891 277.721 160.057 277.518C159.698 277.518 159.339 277.507 158.979 277.473C157.052 277.293 155.198 278.295 153.365 279.723C153.172 279.881 153.036 280.679 152.672 281.815C154.615 282.164 156.276 279.307 157.974 280.927C159.766 279.768 161.578 280.601 163.266 280.162C163.87 281.242 164.526 281.512 164.76 283.334C164.682 283.739 164.604 284.121 164.479 284.763C163.521 283.84 162.542 283.143 161.542 284.864C161.229 285.393 160.672 285.269 160.281 284.898C159.104 283.795 157.958 283.582 156.766 284.774C156.375 285.156 155.911 285.033 155.484 284.999C155.411 284.999 155.344 284.988 155.276 284.988C155.88 285.145 156.474 285.269 157.078 285.37C158.193 285.55 159.37 285.078 160.422 285.888C160.536 285.966 160.641 286.022 160.755 286.09C161.177 286.09 161.599 286.09 162.026 286.101C163.099 286.124 164.188 285.73 165.25 286.574C165.781 286.596 166.307 286.664 166.833 286.765C167.37 286.607 167.901 286.439 168.432 286.225C168.521 286.18 168.599 285.764 168.677 285.516C168.083 284.358 167.255 285.876 166.76 283.941C166.891 283.694 167.01 283.255 167.135 283.255C168.255 283.143 169.375 283.03 170.495 283.053C171.786 283.075 173.073 283.345 174.365 283.323C176.526 283.289 178.682 283.109 180.839 283.042C182.047 282.997 183.26 282.997 184.464 283.109C184.651 283.132 184.828 283.874 185.016 284.301C184.411 286.382 183.677 285.145 183.031 285.28C182.37 285.426 181.661 285.01 181.068 286.99C181.385 287.192 181.599 287.44 181.823 287.485ZM249.531 288.07C249.12 288.115 248.708 288.418 248.318 288.778C248.203 288.88 248.141 289.498 248.057 289.881C248.115 289.982 248.177 290.185 248.24 290.185C249.661 290.207 251.089 290.196 252.594 290.196C252.594 289.51 252.594 288.902 252.594 288.036C251.536 288.036 250.531 287.98 249.531 288.07ZM195.052 287.946C195.281 288.272 195.49 288.992 195.797 288.317C195.573 287.654 195.307 287.924 195.052 287.946ZM183.245 318.554C183.172 318.498 183.089 318.464 183.021 318.52C182.964 318.554 182.917 318.723 182.87 318.835C183.01 318.835 183.151 318.835 183.286 318.835C183.276 318.756 183.266 318.554 183.245 318.554ZM188.401 326.788C188.292 326.754 188.177 326.732 188.068 326.743C187.469 326.766 186.958 325.596 186.521 324.325C186.167 323.301 185.776 322.3 185.339 321.591C184.859 320.815 184.37 320.95 184.016 322.334C183.62 322.716 183.161 322.727 182.911 323.931C182.672 325.123 182.297 325.472 181.891 325.528C181.906 325.539 181.922 325.562 181.932 325.584C182.698 327.114 183.516 327.294 184.396 327.182C185.729 327.024 187.068 326.934 188.401 326.788ZM190.688 326.428C191.339 326.304 191.995 326.147 192.651 325.933C194.344 325.393 196.078 325.798 197.797 325.798C198.052 325.798 198.359 326.226 198.547 325.956C199.276 324.876 200.026 325.089 200.76 325.382C200.448 325.191 200.276 324.673 200.307 323.863C200.333 322.862 200.651 322.131 200.995 322.289C201.359 322.446 201.599 323.031 201.672 324.077C201.734 324.921 201.422 325.528 200.974 325.449C200.964 325.449 200.953 325.449 200.943 325.449C201.078 325.494 201.219 325.551 201.354 325.596C202.042 325.821 202.677 326.462 203.354 325.382C203.552 325.067 203.88 325.056 204.109 325.258C205.031 326.034 205.958 326.023 206.875 325.764C206.917 324.392 207.214 323.492 207.604 322.952C207.875 322.57 208.255 322.57 208.568 322.716C208.755 322.806 209.016 323.492 209.036 323.976C209.047 324.302 209 324.741 208.917 325.123C210.667 324.718 212.385 325.134 214.12 325.798C215.359 326.271 216.604 326.372 217.865 325.922C217.656 325.573 217.557 325.224 217.302 324.291C217.922 323.211 218.531 323.2 219.365 324.561C219.198 324.943 219.063 325.247 218.938 325.517C220.25 324.966 221.578 324.46 222.865 324.775C223.406 324.921 223.948 324.977 224.484 325.011C224.344 325.011 224.208 324.797 224.052 324.662C224.188 324.505 224.302 324.28 224.422 324.28C224.563 324.28 224.703 324.493 224.839 324.595C224.724 324.741 224.604 324.999 224.495 324.999C226.099 325.067 227.698 324.775 229.302 324.864C230.042 324.898 230.755 324.797 231.484 324.538C231.536 324.28 231.589 324.01 231.641 323.751C231.698 323.987 231.755 324.201 231.813 324.426C232.349 324.257 232.891 324.201 233.438 324.145C233.26 323.605 233.036 323.143 232.714 322.862C232.432 323.053 232.021 323.335 231.604 323.616L231.646 323.706C231.641 323.728 231.641 323.728 231.635 323.751C231.635 323.728 231.625 323.706 231.62 323.683C231.146 323.245 230.682 322.637 230.193 322.424C229.427 322.097 228.651 321.996 227.875 321.884C226.938 321.737 225.99 321.625 225.042 321.614C224.615 321.614 224.135 322.367 223.771 322.007C222.391 320.702 221.036 321.816 219.677 321.951C218.979 322.007 218.328 321.872 217.641 321.647C216.021 321.13 214.375 321.152 212.74 321.006C212.141 320.95 211.521 321.242 210.938 320.95C208.797 319.825 206.641 319.904 204.479 319.69C202.932 319.533 201.375 319.285 199.833 318.7C198.708 318.273 197.609 318.273 196.484 318.678C195.375 319.083 194.203 319.904 193.141 319.308C191.5 318.396 189.885 318.97 188.266 318.936C187.417 318.936 186.578 317.699 185.703 318.678C185.771 318.936 185.802 319.229 185.865 319.285C186.672 319.983 187.479 320.635 188.307 321.321C188.307 322.469 188.307 323.593 188.307 324.763C189.078 325.528 189.964 325.247 190.688 326.428ZM194.656 331.096C194.599 330.916 194.536 330.736 194.474 330.556C193.932 330.523 193.385 330.556 192.839 330.59C192.37 330.613 191.901 330.59 191.432 330.534C192.417 331.006 193.396 331.524 194.37 332.097C194.432 332.142 194.552 331.479 194.656 331.096ZM223.469 336.417L223.464 335.911L223.276 336.158L223.469 336.417ZM253.651 339.364C252.656 337.339 252.531 337.024 251.854 337.587C250.771 338.464 249.672 338.7 248.552 338.667C245.807 338.599 243.068 338.644 240.323 338.689C240.135 338.689 239.786 338.273 239.818 339.612C240.026 339.904 240.234 340.377 240.469 340.534C241.792 341.445 243.151 338.869 244.479 340.86C244.656 341.13 244.969 340.692 245.224 340.557C245.307 340.5 245.38 340.343 245.464 340.298C245.88 340.084 246.297 339.747 246.719 339.735C248.776 339.702 250.828 339.769 252.885 339.758C253.13 339.758 253.38 339.51 253.651 339.364ZM256.901 338.363C256.802 338.093 256.719 337.789 256.609 337.598C256.568 337.519 256.464 337.733 256.391 337.812C256.49 338.104 256.594 338.386 256.698 338.678C256.76 338.565 256.833 338.464 256.901 338.363ZM269.021 344.921C268.943 344.876 268.859 344.775 268.781 344.797C268.474 344.887 268.458 345.135 268.745 345.416C268.818 345.483 268.917 345.438 268.99 345.36C269.016 345.348 269.016 345.067 269.021 344.921ZM282.578 337.688L282.443 337.474L282.432 337.834L282.578 337.688ZM286.724 336.451C286.62 336.316 286.521 336.192 286.422 336.068C286.359 336.147 286.297 336.237 286.234 336.316C286.339 336.451 286.432 336.619 286.536 336.676C286.589 336.698 286.656 336.529 286.724 336.451ZM294.052 336.136C293.031 334.786 292.214 336.046 291.391 336.293C292.203 336.293 293.036 337.531 294.052 336.136ZM297.724 329.398C297.682 328.048 297.401 327.485 297.104 327.26C296.693 326.934 296.25 326.676 295.828 326.788C294.198 327.227 292.578 327.429 290.943 327.092C290.438 326.991 289.917 327.317 289.411 327.643C288.661 328.127 287.927 328.779 287.297 329.274C286.255 328.599 285.339 327.992 284.656 327.553C283.406 328.138 282.396 328.622 281.354 329.117C279.969 327.069 278.552 327.182 277.078 328.149C275.542 329.162 273.974 328.385 272.448 327.834C271.5 327.474 270.615 326.597 269.729 328.329C269.552 328.689 269.188 328.689 268.979 328.419C267.969 327.159 266.953 327.722 265.922 327.958C265.245 328.127 264.542 328.07 263.865 327.778C262.146 327.047 260.438 326.822 258.776 328.397C257.938 327.463 257.13 326.878 256.234 327.159C255.297 327.44 254.339 327.182 253.391 327.17C251.932 327.17 250.469 327.17 249.224 327.17C246.943 330.871 246.943 330.871 245.427 329.207C245.74 328.543 246.026 327.947 246.354 327.26C245.5 326.484 244.651 327.227 243.849 326.079C244.422 324.752 245.172 325.843 245.604 324.246C245.12 324.111 244.641 324.01 244.156 323.908C244.078 324.347 244.01 324.685 243.917 324.775C242.698 326.023 241.406 326.034 240.13 326.158C239.385 326.226 238.646 326.214 237.911 326.237C238.286 326.687 238.885 326.023 239.099 327.643C238.349 330.883 237.099 329.476 236.068 330.309C235.766 329.589 235.531 328.79 235.234 328.408C234.958 328.048 234.615 328.149 234.385 328.082C234.328 327.924 234.276 327.744 234.224 327.553C233.109 327.89 231.99 327.834 230.87 327.733C229.656 327.632 228.458 327.373 227.26 328.149C226.927 328.363 226.542 328.7 226.24 328.419C225.036 327.317 223.849 328.745 222.682 328.543C220.516 328.183 218.391 329.443 216.245 329.094C214.182 328.768 212.115 328.453 210.057 328.025C208.932 327.778 207.828 327.924 206.703 328.318C204.313 329.195 201.906 329.769 199.505 330.489C198.99 330.635 198.484 330.905 197.969 331.051C197.609 331.153 197.229 331.378 196.875 331.378C198.156 332.75 199.49 333.042 200.802 332.919C201.286 332.007 201.703 331.198 201.901 330.826C203.031 330.826 203.896 330.703 204.755 330.86C206.464 331.175 208.203 331.085 209.771 333.537C209.953 333.819 210.24 333.56 210.484 333.549C210.651 333.537 210.823 333.571 210.99 333.582C211.073 333.549 211.146 333.56 211.219 333.605C211.479 333.627 211.745 333.605 211.984 333.425C212.469 333.087 212.901 332.165 213.323 331.546C213.885 332.412 214.375 333.762 214.901 333.875C216.708 334.291 218.526 334.685 220.323 334.28C221.526 334.01 222.672 333.819 223.88 334.235C225.068 334.628 226.286 334.055 227.495 333.909C228.948 333.729 230.438 332.907 231.849 333.492C233.672 334.246 235.458 333.864 237.26 333.774C238.813 333.672 240.37 332.986 241.906 333.346C243.453 333.717 244.99 333.492 246.531 333.796C247.385 333.965 248.276 334.055 249.109 333.582C250.396 332.84 251.672 332.829 252.964 333.009C255.286 333.301 257.609 333.335 259.917 333.987C261.578 334.46 263.172 334.291 264.724 332.986C265.427 333.672 266.073 334.302 266.677 334.898C267.469 334.088 268.188 333.357 268.979 332.547C269.839 333.864 270.755 334.066 271.719 333.402C272.563 332.817 273.411 332.761 274.271 333.436C275.292 334.246 276.286 334.133 277.313 333.121C278.198 332.244 279.151 331.895 279.932 331.389C281.391 332.232 282.734 333.009 283.88 333.661C284.62 332.772 285.167 331.603 285.714 331.58C287.24 331.524 288.755 330.793 290.286 330.928C291.573 331.051 292.854 330.489 294.156 330.793C294.724 330.916 295.318 330.039 295.911 329.803C296.505 329.555 297.104 329.533 297.724 329.398ZM308.76 327.609C308.234 326.676 307.677 326.856 307.214 327.249C306.359 327.98 305.526 327.699 304.688 327.35C303.5 326.856 302.333 326.473 301.156 327.834C300.802 328.228 300.313 327.643 299.891 327.643C299.766 327.643 299.63 328.082 299.5 328.318C299.62 328.633 299.719 329.139 299.854 329.207C300.188 329.375 300.536 329.488 300.87 329.386C301.734 329.15 302.563 329.42 303.427 329.746C305.036 330.388 306.661 329.6 308.266 329.015C308.448 328.948 308.594 328.115 308.76 327.609ZM323.422 297.305C323.068 297.226 322.714 297.103 322.359 296.923C321.417 297.575 320.573 297.17 319.63 296.135C318.813 295.235 317.771 295.753 316.839 295.944C316.068 296.09 315.307 296.585 314.536 295.843C312.958 294.313 311.281 295.595 309.682 294.583C308.302 295.798 306.948 294.425 305.594 294.167C304.307 293.942 303.042 293.154 301.755 292.918C300.995 292.783 300.208 293.154 299.448 293.469C298.25 293.953 297.063 294.245 295.839 293.829C294.422 293.345 293.021 293.874 291.641 294.707C291.979 294.695 292.323 294.729 292.667 294.83C293.089 294.965 293.542 295.674 293.917 295.404C295.495 294.302 296.943 295.674 298.443 296.641C299.427 297.271 300.484 297.417 301.495 297.17C302.932 296.833 304.354 295.933 305.615 295.348C307.87 297.879 309.964 297.957 312.083 296.113L312.057 296.034C312.203 296.281 312.339 296.72 312.49 296.765C314.62 297.519 316.802 296.54 318.906 298.216C319.057 298.34 319.24 298.036 319.411 297.991C320.266 297.766 321.115 297.406 321.969 297.361C322.448 297.328 322.938 297.316 323.422 297.305ZM323.813 13.7236C323.234 13.6561 322.661 13.5548 322.083 13.5773C321.844 13.5886 321.604 13.881 321.297 14.106C322.839 15.6471 322.839 15.6583 323.813 13.7236ZM329.927 297.091C329.469 296.709 329 296.641 328.505 296.743C327.807 296.889 327.12 297.08 326.427 297.226C327.589 297.204 328.755 297.159 329.927 297.091ZM288.396 349.376C287.891 348.599 287.5 348.926 287.198 350.129C287.62 350.264 288.057 350.568 288.396 349.376ZM298.792 356.519C297.656 356.44 296.667 356.35 295.682 356.316C295.583 356.316 295.484 356.721 295.391 356.923C296.479 355.877 297.594 359.387 298.792 356.519ZM320.318 352.728C318.896 352.896 317.615 353.324 316.354 353.11C313.443 352.638 310.552 353.639 307.651 353.718C307.307 353.729 306.953 353.763 306.625 353.976C304.849 355.101 303.047 355.225 301.24 355.011C300.932 354.966 300.516 355.214 300.885 356.878C302.677 355.067 304.375 357.621 306.38 357.79C307.234 356.024 308.464 355.585 309.625 356.507C311.302 357.835 312.839 357.261 314.391 355.45C314.958 354.786 315.583 354.145 316.141 354.899C317.443 356.631 318.667 354.921 319.917 354.482C320.042 354.438 320.141 353.549 320.318 352.728ZM328.714 352.289C326.469 352.075 324.271 351.457 322.089 352.806C323.417 354.719 323.448 354.932 323.969 354.37C325.193 353.065 326.469 353.088 327.74 352.885C327.906 352.851 328.083 352.896 328.245 352.795C328.406 352.694 328.557 352.458 328.714 352.289ZM331.911 351.13C331.792 351.052 331.672 350.917 331.552 350.894C331.385 350.849 331.214 350.883 331.042 350.883C331.042 350.95 331.036 351.007 331.036 351.085C331.245 351.108 331.448 351.164 331.656 351.187C331.74 351.187 331.828 351.153 331.911 351.13ZM335.516 342.356C334.771 341.749 334.052 341.794 333.38 342.761C334.094 342.626 334.802 342.48 335.516 342.356ZM344.302 294.887C344.031 294.774 343.786 294.605 343.531 294.583C341.969 294.448 340.411 294.302 338.849 294.167C338.917 294.83 339 295.426 339.01 296.023C340.474 296.023 341.932 296.056 343.396 296.045C343.568 296.045 343.75 296.068 343.906 295.921C344.068 295.786 344.391 295.989 344.302 294.887ZM348.458 282.254C347.979 281.737 347.573 281.422 347.208 280.871C346.833 280.319 346.5 279.532 346.063 278.677C344.146 278.812 342.167 278.88 340.193 279.116C339.682 279.172 339.182 279.656 338.677 280.004C338.521 280.106 338.37 280.364 338.219 280.544C338.38 280.679 338.536 280.882 338.703 280.961C339.318 281.276 339.938 281.444 340.563 281.579C340.583 281.579 340.604 281.568 340.625 281.568C340.625 281.579 340.63 281.579 340.63 281.59C341.599 281.793 342.568 281.917 343.531 282.299C345.156 282.94 346.75 282.254 348.458 282.254ZM351.859 280.871C351.661 280.578 351.547 280.274 351.427 280.274C351.208 280.286 350.99 280.477 350.677 280.634C350.885 280.916 351 281.208 351.109 281.208C351.339 281.186 351.557 281.017 351.859 280.871ZM368.505 323.11C368.557 323.222 368.599 323.402 368.651 323.425C368.708 323.436 368.771 323.323 368.828 323.245C368.724 323.211 368.615 323.155 368.505 323.11ZM356.021 306.934L356.198 307.226L356.234 306.833L356.021 306.934ZM380.99 246.956C380.927 246.899 380.865 246.854 380.802 246.809C380.74 246.854 380.677 246.899 380.609 246.956C380.672 247.001 380.74 247.091 380.797 247.091C380.859 247.091 380.922 247.001 380.99 246.956ZM359.177 51.0807C359.344 51.002 359.521 51.1032 359.688 51.2157C360.63 51.9019 361.557 51.2607 362.495 51.0245C364.182 50.5858 365.854 49.9896 367.573 50.2033C369.359 50.417 371.188 50.2258 372.948 49.4046C374.589 48.6397 376.177 48.3248 377.776 49.7309C378.979 48.1898 380.167 46.8624 381.479 46.6599C381.656 46.6375 381.818 45.7713 381.984 45.2314C380.917 44.0952 379.833 44.1177 378.729 44.7927C377.286 45.6701 375.823 45.6026 374.359 45.3888C374.016 45.3326 373.62 44.9276 373.344 45.2651C371.932 46.9862 370.438 45.9513 369 46.5137C367.729 47.0199 366.432 47.5374 365.167 47.3124C363.865 47.0649 362.599 47.3461 361.307 47.7398C359.682 48.2348 358.036 48.291 356.401 48.6285C354.859 48.9547 353.318 49.3596 351.771 49.7759C351.438 49.8658 351.135 50.2146 351.01 51.2157C353.719 50.9682 356.453 52.3743 359.177 51.0807ZM350.995 51.2269C350.979 51.2269 350.964 51.2269 350.948 51.2269C350.943 51.2494 350.938 51.2719 350.932 51.3057C350.948 51.3282 350.964 51.3282 350.974 51.3507C350.984 51.2944 350.99 51.2607 350.995 51.2269ZM377.542 280.004C376.349 280.308 375.167 280.871 373.979 281.354C372.625 281.905 371.266 282.412 369.922 283.053C369.557 283.222 369.354 283.975 369.62 285.404C371.167 286.259 372.766 286.112 374.38 285.258C375.88 284.459 377.339 282.985 378.896 282.929C379.396 282.907 379.896 282.277 380.385 281.86C380.922 281.41 381.583 282.389 382.078 280.634C381.495 278.925 380.938 277.192 380.016 276.99C379.297 278.666 378.505 279.768 377.542 280.004ZM380.021 276.978C380.031 276.945 380.047 276.911 380.068 276.877C380.068 276.877 380.068 276.877 380.063 276.877C380.042 276.911 380.031 276.945 380.01 276.978C380.016 276.978 380.016 276.978 380.021 276.978ZM201.536 356.384C200.703 355.866 199.865 355.416 199.021 355.056C198.885 355 198.719 355.405 198.573 355.607C198.589 355.855 198.568 356.215 198.615 356.305C199.51 357.902 200.521 357.913 201.526 358.015C201.589 358.026 201.708 357.666 201.698 357.531C201.672 357.115 201.62 356.44 201.536 356.384ZM223.417 352.739C224.354 352.908 225.12 354.089 225.927 353.256C226.13 351.614 225.531 351.299 225.438 350.264C224.875 350.41 224.307 350.478 223.755 350.782C223.63 350.838 223.573 351.805 223.417 352.739ZM225.438 350.253C225.453 350.253 225.469 350.242 225.479 350.242C225.469 350.208 225.453 350.163 225.432 350.129C225.432 350.129 225.432 350.129 225.427 350.129C225.432 350.174 225.432 350.219 225.438 350.253ZM111.797 353.605C113.802 355.101 113.802 355.101 114.938 353.763C113.911 352.458 112.974 353.234 111.797 353.605ZM375.089 43.2066C373.396 41.5868 373.396 41.5868 372.677 43.679C373.521 44.7477 374.307 43.9827 375.089 43.2066ZM279.542 361.704C280.781 361.805 281.849 361.884 282.917 361.963C281.849 360.276 281.156 360.197 279.542 361.704ZM282.917 361.963C282.943 361.997 282.969 362.042 282.995 362.087C283.021 362.087 283.036 362.064 283.063 362.064C283.052 362.03 283.036 361.997 283.026 361.974C282.984 361.974 282.953 361.974 282.917 361.963ZM248.349 353.324C247.859 353.403 247.323 352.705 246.813 354.055C247.583 354.854 248.281 355.101 249.188 353.999C248.792 353.661 248.568 353.29 248.349 353.324ZM351.25 32.8352C351.385 32.4528 351.589 32.0253 351.698 31.4516C351.74 31.2491 351.609 30.5067 351.5 30.3492C351.198 29.9218 350.849 30.5067 350.755 31.5978C350.729 31.9241 350.854 32.4078 350.938 32.7565C350.974 32.8802 351.099 32.8015 351.25 32.8352ZM395.047 296.675C395.229 297.991 395.667 298.047 396.057 298.239C396.177 298.295 396.385 298.025 396.443 297.721C396.495 297.474 396.422 296.799 396.333 296.619C395.917 295.798 395.474 295.415 395.047 296.675ZM283.057 362.064C283.172 362.368 283.286 362.795 283.417 362.84C284.417 363.133 284.453 363.065 285.823 360.861C284.75 359.893 283.943 361.783 283.057 362.064ZM243.286 355.776C243.724 355.9 244.115 356.024 244.505 356.091C244.568 356.102 244.698 355.787 244.688 355.697C244.651 355.292 244.609 354.719 244.51 354.584C244.057 354.033 243.583 353.661 243.286 355.776ZM223.604 364.055C224.073 365.27 224.568 365.383 225.156 364.483C224.651 362.998 224.141 363.268 223.604 364.055ZM381.536 32.7565C380.422 32.5877 380.422 32.599 380.089 34.4438C380.458 34.4775 380.771 34.5675 381.078 34.5225C381.458 34.455 381.714 34.0276 381.536 32.7565ZM359.781 34.95C359.891 34.8937 359.974 34.3313 360.073 34.0163C359.953 33.7464 359.828 33.2627 359.708 33.2739C359.391 33.3302 359.083 33.5551 358.771 33.7351C358.943 35.1637 359.359 35.1637 359.781 34.95ZM168.365 351.243C168.714 351.243 169.005 351.243 169.396 351.243C169 350.264 168.708 350.107 168.365 351.243ZM362.031 40.8218C362.26 40.8106 362.49 40.6644 362.714 40.4956C362.745 40.4731 362.74 40.0569 362.75 39.8432C362.698 39.6632 362.635 39.3145 362.589 39.337C362.354 39.4382 362.135 39.6182 361.906 39.7757C361.948 40.1469 361.99 40.8218 362.031 40.8218ZM227.505 353.988C228.214 354.719 228.214 354.719 228.578 353.47C228.177 353.166 227.792 352.615 227.505 353.988ZM196.26 355.079C196.172 355.236 196.099 355.461 196.021 355.652C196.089 355.72 196.151 355.776 196.219 355.855C196.281 355.731 196.339 355.619 196.396 355.495C196.349 355.36 196.271 355.056 196.26 355.079ZM248.755 356.721C248.792 356.912 248.823 357.261 248.865 357.272C249.016 357.295 249.167 357.205 249.313 357.148C249.26 356.822 249.208 356.485 249.151 356.159C249.016 356.35 248.885 356.541 248.755 356.721ZM268.536 359.533C268.536 359.533 268.536 359.893 268.536 360.084C268.682 360.084 268.828 360.084 268.974 360.062C268.979 360.062 268.974 359.702 268.979 359.511C268.833 359.511 268.682 359.499 268.536 359.533ZM382.703 45.7151C382.766 45.6363 382.797 45.4001 382.844 45.2201C382.724 45.0289 382.599 44.6464 382.484 44.6802C382.339 44.7252 382.203 45.0176 382.063 45.2314C382.198 45.4113 382.328 45.6138 382.464 45.76C382.536 45.8275 382.641 45.805 382.703 45.7151ZM382.063 45.2314C382.042 45.2089 382.026 45.1864 382.005 45.1526C381.995 45.1751 381.99 45.2089 381.979 45.2314C382 45.2539 382.016 45.2651 382.031 45.2876C382.042 45.2651 382.052 45.2539 382.063 45.2314ZM243.531 349.263C243.474 349.173 243.385 349.229 243.323 349.274C243.281 349.308 243.245 349.466 243.208 349.556C243.286 349.623 243.349 349.736 243.417 349.724C243.641 349.702 243.682 349.499 243.531 349.263ZM354.604 34.2413L354.594 34.5788L354.745 34.455L354.604 34.2413ZM343.734 31.3504L343.578 31.5304L343.734 31.6991V31.3504ZM258.083 347.756L258.073 348.228L258.271 348.037L258.083 347.756ZM235.266 350.827C235.281 350.973 235.297 351.209 235.313 351.209C235.375 351.232 235.443 351.153 235.505 351.097C235.49 350.962 235.474 350.703 235.453 350.703C235.396 350.703 235.328 350.782 235.266 350.827ZM247.031 350.669C246.99 350.557 246.906 350.568 246.833 350.523C246.849 350.804 246.865 351.085 246.875 351.367C246.932 351.299 246.995 351.232 247.052 351.175C247.052 350.995 247.068 350.759 247.031 350.669ZM144.63 352.66L144.656 352.244L144.464 352.379L144.63 352.66ZM146.182 352.705L146.344 352.559L146.198 352.311L146.182 352.705ZM205.62 358.307L205.844 358.543V358.071L205.62 358.307ZM207.76 358.51L207.943 358.352L207.776 358.116L207.76 358.51ZM358.719 33.7576C358.734 33.7464 358.75 33.7464 358.766 33.7351C358.766 33.7014 358.76 33.6789 358.755 33.6451C358.688 33.5664 358.62 33.4989 358.552 33.4201C358.609 33.5326 358.667 33.6451 358.719 33.7576ZM377.182 41.5868L377.047 41.6992L377.161 41.9242L377.182 41.5868ZM199.964 282.142C199.823 281.973 199.688 281.692 199.547 281.647C199.391 281.613 199.234 281.804 198.745 282.097C199.26 282.434 199.422 282.637 199.568 282.614C199.703 282.592 199.828 282.31 199.964 282.142ZM197.328 282.299C197.37 282.265 197.391 282.018 197.422 281.883C197.349 281.793 197.281 281.59 197.219 281.613C196.99 281.68 196.943 281.973 197.104 282.299C197.156 282.4 197.26 282.378 197.328 282.299ZM238.589 79.2026C237.667 79.2139 236.755 79.5176 235.844 79.6976C235.807 80.26 235.781 80.8112 235.75 81.3849C236.969 82.3073 238.203 82.4648 239.495 81.5424C239.401 79.7876 238.99 79.2026 238.589 79.2026ZM255.109 85.6032C255.047 85.5582 254.979 85.457 254.922 85.4682C254.896 85.4682 254.88 85.7044 254.859 85.8507C254.922 85.8956 254.984 85.9856 255.047 85.9856C255.068 85.9856 255.083 85.7382 255.109 85.6032ZM195.755 323.627C196.531 324.685 197.427 324.347 198.25 323.346C198.073 321.332 197.51 321.321 197.021 321.276C195.047 321.119 193.063 321.051 191.089 320.995C190.927 320.995 190.76 321.242 190.484 321.479C190.661 322.041 190.797 322.851 190.958 322.896C191.458 323.042 191.974 323.008 192.474 322.851C193.583 322.48 194.656 322.142 195.755 323.627ZM205.391 324.752C204.797 321.715 204.047 322.693 203.219 322.84C203.859 324.077 204.359 325.224 205.391 324.752ZM225.714 329.094C226.359 329.69 226.359 329.69 226.948 329.117C226.323 328.509 226.323 328.509 225.714 329.094ZM263.792 330.691L263.974 330.489L263.802 330.23L263.792 330.691ZM273.047 330.455L273.229 330.658V330.253L273.047 330.455ZM184.438 323.717C184.307 323.346 184.177 322.975 184.047 322.603C184.099 323.2 184.229 323.56 184.438 323.717ZM184.021 322.311L183.984 322.424C184.01 322.48 184.026 322.547 184.052 322.603C184.036 322.502 184.026 322.424 184.021 322.311ZM184.609 324.111L184.531 323.796C184.5 323.785 184.469 323.74 184.438 323.728C184.458 323.785 184.474 323.83 184.5 323.897L184.609 324.111ZM241.635 43.0603C241.641 43.0603 241.646 43.0491 241.646 43.0491C241.651 43.0154 241.661 42.9929 241.672 42.9479L241.635 43.0603ZM66.4792 314.291C66.3177 314.369 66.1354 314.268 65.9688 314.156C65.0261 313.481 64.1042 314.111 63.1615 314.347C61.474 314.786 59.8021 315.393 58.0833 315.179C56.2969 314.954 54.4688 315.146 52.7083 315.978C51.0677 316.743 49.4844 317.047 47.8802 315.641C46.6771 317.182 45.4896 318.509 44.1771 318.711C44 318.745 43.8386 319.611 43.6719 320.14C44.7396 321.276 45.8229 321.254 46.9271 320.579C48.3698 319.701 49.8333 319.78 51.2969 319.994C51.6406 320.039 52.0365 320.455 52.3177 320.106C53.724 318.385 55.2188 319.42 56.6615 318.858C57.9271 318.363 59.224 317.834 60.4896 318.07C61.7969 318.306 63.0573 318.025 64.349 317.632C65.974 317.137 67.625 317.08 69.2552 316.743C70.7969 316.428 72.3386 316.012 73.8854 315.596C74.2188 315.506 74.5208 315.157 74.6458 314.156C71.9375 314.414 69.2031 313.008 66.4792 314.291ZM74.6615 314.156C74.6771 314.156 74.6927 314.156 74.7083 314.156C74.7136 314.122 74.7188 314.099 74.724 314.066C74.7083 314.054 74.6927 314.054 74.6823 314.032C74.6719 314.077 74.6667 314.111 74.6615 314.156ZM48.1146 85.367C49.3073 85.0632 50.4896 84.5008 51.6771 84.0171C53.0313 83.4772 54.3906 82.9597 55.7344 82.3298C56.099 82.1498 56.3073 81.4074 56.0365 79.9676C54.4896 79.1126 52.8906 79.2701 51.2761 80.125C49.7761 80.9124 48.3177 82.386 46.7604 82.4423C46.2604 82.4648 45.7604 83.106 45.2761 83.5109C44.7344 83.9721 44.0729 82.9935 43.5781 84.737C44.1615 86.4581 44.7188 88.1791 45.6406 88.3816C46.3594 86.7168 47.1511 85.6032 48.1146 85.367ZM45.6354 88.3929C45.625 88.4266 45.6094 88.4716 45.5886 88.4941C45.5886 88.4941 45.5886 88.4941 45.5938 88.4941C45.6146 88.4716 45.6302 88.4266 45.6458 88.3929C45.6406 88.3929 45.6406 88.3929 45.6354 88.3929ZM224.12 8.98782C224.953 9.50527 225.792 9.95522 226.635 10.3152C226.771 10.3827 226.938 9.96647 227.083 9.76399C227.073 9.52776 227.089 9.15656 227.042 9.06657C226.146 7.46924 225.135 7.45799 224.13 7.35675C224.068 7.3455 223.948 7.71671 223.958 7.84045C223.984 8.25665 224.036 8.94283 224.12 8.98782ZM200.219 15.1184C200.203 15.1184 200.188 15.1297 200.177 15.1297C200.188 15.1746 200.203 15.2084 200.224 15.2534C200.229 15.2534 200.229 15.2534 200.229 15.2534C200.229 15.1971 200.224 15.1634 200.219 15.1184ZM202.24 12.6324C201.302 12.4637 200.536 11.2826 199.729 12.1262C199.526 13.7573 200.125 14.0723 200.219 15.1072C200.781 14.9722 201.349 14.8934 201.901 14.601C202.026 14.5335 202.089 13.5661 202.24 12.6324ZM313.859 11.7663C311.854 10.2702 311.854 10.2702 310.719 11.62C311.745 12.9136 312.682 12.1375 313.859 11.7663ZM50.5677 322.176C52.2604 323.785 52.2604 323.785 52.9844 321.704C52.1354 320.624 51.349 321.4 50.5677 322.176ZM146.115 3.66716C144.875 3.57717 143.807 3.49843 142.745 3.41969C143.807 5.107 144.5 5.17449 146.115 3.66716ZM142.74 3.41969C142.714 3.37469 142.688 3.32969 142.661 3.29595C142.641 3.29595 142.62 3.31845 142.599 3.31845C142.609 3.34094 142.62 3.37469 142.635 3.40844C142.672 3.40844 142.703 3.40844 142.74 3.41969ZM177.307 12.0475C177.797 11.9688 178.333 12.6774 178.844 11.3276C178.078 10.5177 177.375 10.2814 176.469 11.3726C176.865 11.7213 177.089 12.0925 177.307 12.0475ZM74.4063 332.536C74.2708 332.919 74.0677 333.346 73.9583 333.92C73.9167 334.133 74.0469 334.865 74.1563 335.022C74.4583 335.45 74.8073 334.865 74.9011 333.774C74.9271 333.447 74.8021 332.975 74.7188 332.626C74.6875 332.502 74.5573 332.57 74.4063 332.536ZM30.6094 68.6963C30.4271 67.3802 29.9896 67.3239 29.599 67.1327C29.4792 67.0765 29.2708 67.3464 29.2136 67.6501C29.1667 67.8976 29.2344 68.5725 29.3229 68.7638C29.7396 69.5737 30.1823 69.9561 30.6094 68.6963ZM142.599 3.31845C142.484 3.01473 142.37 2.57603 142.245 2.54228C141.24 2.24981 141.203 2.30606 139.833 4.51081C140.906 5.48946 141.714 3.59967 142.599 3.31845ZM182.37 9.59526C181.932 9.47152 181.542 9.34778 181.151 9.28029C181.089 9.26904 180.958 9.58401 180.969 9.674C181.005 10.079 181.047 10.6639 181.146 10.7876C181.599 11.3501 182.073 11.7213 182.37 9.59526ZM202.052 1.31616C201.583 0.101298 201.089 -0.0111896 200.5 0.899963C201.005 2.37355 201.516 2.10358 202.052 1.31616ZM44.1198 332.626C45.2344 332.795 45.2344 332.772 45.5677 330.928C45.1979 330.905 44.8854 330.804 44.5781 330.849C44.1979 330.916 43.9427 331.344 44.1198 332.626ZM65.875 330.421C65.7656 330.489 65.6823 331.04 65.5833 331.366C65.7031 331.625 65.8281 332.12 65.9479 332.097C66.2656 332.052 66.5729 331.816 66.8854 331.647C66.7136 330.219 66.2969 330.219 65.875 330.421ZM257.292 14.1285C256.943 14.1285 256.651 14.1285 256.26 14.1285C256.656 15.1072 256.948 15.2759 257.292 14.1285ZM63.625 324.561C63.3958 324.572 63.1667 324.707 62.9427 324.876C62.9115 324.898 62.9167 325.314 62.9063 325.539C62.9583 325.719 63.0261 326.057 63.0677 326.034C63.3021 325.933 63.5261 325.753 63.75 325.596C63.7083 325.236 63.6667 324.561 63.625 324.561ZM198.151 11.3838C197.443 10.6526 197.443 10.6526 197.083 11.9125C197.479 12.2162 197.865 12.7674 198.151 11.3838ZM229.396 10.3039C229.484 10.1352 229.557 9.92147 229.641 9.73024C229.568 9.6515 229.505 9.59526 229.438 9.52777C229.375 9.64025 229.318 9.75274 229.26 9.87648C229.307 10.0115 229.385 10.3152 229.396 10.3039ZM176.901 8.66161C176.865 8.47038 176.833 8.11042 176.792 8.09917C176.641 8.08792 176.49 8.17791 176.344 8.22291C176.396 8.56037 176.448 8.88658 176.505 9.22405C176.641 9.03282 176.771 8.84159 176.901 8.66161ZM156.682 5.88316C156.823 5.88316 156.969 5.88316 157.115 5.83817C157.12 5.83817 157.115 5.48946 157.115 5.29823C156.969 5.29823 156.823 5.28698 156.682 5.32073C156.682 5.33197 156.682 5.69194 156.682 5.88316ZM42.9531 319.656C42.8906 319.735 42.8594 319.983 42.8125 320.151C42.9323 320.354 43.0625 320.725 43.1719 320.691C43.3177 320.657 43.4583 320.365 43.5938 320.14C43.4583 319.96 43.3281 319.758 43.1927 319.611C43.1198 319.544 43.0156 319.566 42.9531 319.656ZM43.5938 320.14C43.6146 320.174 43.6354 320.185 43.6511 320.219C43.6615 320.196 43.6667 320.174 43.6771 320.14C43.6563 320.118 43.6406 320.106 43.625 320.095C43.6146 320.106 43.6042 320.118 43.5938 320.14ZM182.125 16.1195C182.182 16.1983 182.271 16.142 182.333 16.097C182.375 16.0633 182.411 15.9171 182.448 15.8158C182.375 15.7596 182.307 15.6471 182.245 15.6583C182.016 15.6696 181.974 15.8721 182.125 16.1195ZM71.0521 331.13L71.0625 330.804L70.9115 330.916L71.0521 331.13ZM81.9219 334.032L82.0781 333.852L81.9219 333.672V334.032ZM167.573 17.6156L167.583 17.1432L167.385 17.3344L167.573 17.6156ZM190.396 14.5447C190.375 14.4097 190.359 14.1623 190.344 14.1623C190.281 14.1398 190.219 14.2298 190.151 14.2747C190.172 14.421 190.182 14.6685 190.203 14.6685C190.26 14.6797 190.328 14.601 190.396 14.5447ZM178.625 14.7022C178.667 14.8147 178.75 14.8034 178.823 14.8484C178.807 14.5672 178.792 14.2972 178.786 14.016C178.724 14.0723 178.661 14.1398 178.604 14.2073C178.604 14.376 178.589 14.6122 178.625 14.7022ZM281.026 12.7112L281 13.1274L281.193 12.9924L281.026 12.7112ZM279.474 12.6774L279.313 12.8124L279.458 13.0711L279.474 12.6774ZM220.036 7.06428L219.813 6.83931V7.31176L220.036 7.06428ZM217.896 6.86181L217.714 7.03054L217.88 7.25551L217.896 6.86181ZM66.9375 331.614C66.9219 331.625 66.9063 331.636 66.8906 331.647C66.8906 331.67 66.8958 331.692 66.9011 331.726C66.9688 331.805 67.0365 331.872 67.1042 331.951C67.0469 331.85 66.9896 331.737 66.9375 331.614ZM48.474 323.785L48.6094 323.672L48.4948 323.447L48.474 323.785ZM225.698 83.2297C225.833 83.3984 225.969 83.6796 226.109 83.7246C226.266 83.7696 226.422 83.5784 226.911 83.2859C226.396 82.9372 226.234 82.7347 226.089 82.7572C225.953 82.791 225.828 83.061 225.698 83.2297ZM228.328 83.0722C228.286 83.106 228.266 83.3534 228.234 83.4884C228.307 83.5897 228.375 83.7809 228.438 83.7696C228.667 83.6909 228.714 83.3984 228.552 83.0722C228.5 82.971 228.396 83.0047 228.328 83.0722ZM187.073 286.169C187.99 286.157 188.901 285.854 189.818 285.674C189.849 285.111 189.875 284.56 189.906 283.998C188.688 283.064 187.453 282.907 186.161 283.829C186.255 285.584 186.667 286.169 187.073 286.169ZM170.547 279.768C170.609 279.813 170.677 279.914 170.734 279.903C170.76 279.903 170.776 279.667 170.797 279.521C170.734 279.476 170.672 279.386 170.609 279.386C170.594 279.397 170.573 279.633 170.547 279.768ZM229.906 41.7442C229.125 40.6869 228.229 41.0243 227.406 42.0255C227.583 44.039 228.146 44.0615 228.635 44.0952C230.615 44.264 232.594 44.3202 234.568 44.3765C234.734 44.3765 234.896 44.129 235.172 43.8928C234.995 43.3303 234.859 42.5317 234.698 42.4754C234.203 42.3404 233.682 42.3629 233.182 42.5317C232.073 42.9029 231 43.2291 229.906 41.7442ZM220.266 40.6306C220.859 43.6565 221.609 42.6779 222.438 42.5429C221.797 41.3055 221.297 40.1582 220.266 40.6306ZM199.943 36.2773C199.297 35.6812 199.297 35.6812 198.708 36.2548C199.333 36.8735 199.333 36.8735 199.943 36.2773ZM161.865 34.6913L161.682 34.8937L161.854 35.1525L161.865 34.6913ZM152.609 34.9162L152.432 34.7138V35.1187L152.609 34.9162ZM241.635 43.0603L241.672 42.9479C241.646 42.8916 241.63 42.8354 241.604 42.7679C241.615 42.8691 241.63 42.9479 241.635 43.0603ZM241.219 41.6655C241.349 42.0367 241.479 42.3967 241.609 42.7679C241.557 42.1717 241.427 41.8117 241.219 41.6655ZM241.047 41.2718L241.125 41.5868C241.156 41.5868 241.188 41.6318 241.219 41.6542C241.203 41.5868 241.182 41.5418 241.156 41.4855L241.047 41.2718Z" fill="#E6E9F5"/>
</g>
</svg>
