<svg width="187" height="36" viewBox="0 0 187 36" fill="none" xmlns="http://www.w3.org/2000/svg">
<path d="M9.632 30.32C8.416 30.32 7.296 30.096 6.272 29.648C5.26933 29.1787 4.384 28.5387 3.616 27.728C2.86933 26.9173 2.28267 25.9893 1.856 24.944C1.45067 23.8987 1.248 22.7893 1.248 21.616C1.248 20.0373 1.6 18.5973 2.304 17.296C3.008 15.9947 3.98933 14.96 5.248 14.192C6.50667 13.424 7.95733 13.04 9.6 13.04C11.1573 13.04 12.5333 13.4027 13.728 14.128C14.9227 14.832 15.808 15.792 16.384 17.008L14.272 17.68C13.8027 16.8267 13.1413 16.1653 12.288 15.696C11.456 15.2053 10.528 14.96 9.504 14.96C8.39467 14.96 7.38133 15.248 6.464 15.824C5.54667 16.4 4.81067 17.1893 4.256 18.192C3.72267 19.1947 3.456 20.336 3.456 21.616C3.456 22.8747 3.73333 24.016 4.288 25.04C4.84267 26.064 5.57867 26.8853 6.496 27.504C7.41333 28.1013 8.42667 28.4 9.536 28.4C10.2613 28.4 10.9547 28.272 11.616 28.016C12.2987 27.76 12.8853 27.4187 13.376 26.992C13.888 26.544 14.2293 26.064 14.4 25.552L16.544 26.192C16.2453 26.9813 15.744 27.696 15.04 28.336C14.3573 28.9547 13.5467 29.4453 12.608 29.808C11.6907 30.1493 10.6987 30.32 9.632 30.32ZM26.0425 15.248C24.5918 15.2907 23.3118 15.696 22.2025 16.464C21.1145 17.232 20.3465 18.288 19.8985 19.632V30H17.7225V13.328H19.7705V17.328C20.3465 16.1547 21.1038 15.2053 22.0425 14.48C23.0025 13.7547 24.0158 13.3493 25.0825 13.264C25.2958 13.2427 25.4772 13.232 25.6265 13.232C25.7972 13.232 25.9358 13.2427 26.0425 13.264V15.248ZM33.4013 30.32C32.2066 30.32 31.0973 30.096 30.0733 29.648C29.0493 29.1787 28.1639 28.5493 27.4173 27.76C26.6706 26.9493 26.0839 26.0213 25.6573 24.976C25.2519 23.9307 25.0493 22.8107 25.0493 21.616C25.0493 20.0587 25.4013 18.6293 26.1053 17.328C26.8306 16.0267 27.8226 14.992 29.0813 14.224C30.3399 13.4347 31.7693 13.04 33.3693 13.04C35.0119 13.04 36.4413 13.4347 37.6573 14.224C38.8946 15.0133 39.8653 16.0587 40.5693 17.36C41.2733 18.64 41.6253 20.048 41.6253 21.584C41.6253 21.7547 41.6253 21.9253 41.6253 22.096C41.6253 22.2453 41.6146 22.3627 41.5933 22.448H27.3213C27.4279 23.6427 27.7586 24.7093 28.3133 25.648C28.8893 26.5653 29.6253 27.3013 30.5213 27.856C31.4386 28.3893 32.4306 28.656 33.4973 28.656C34.5853 28.656 35.6093 28.3787 36.5693 27.824C37.5506 27.2693 38.2333 26.544 38.6173 25.648L40.5053 26.16C40.1639 26.9493 39.6413 27.664 38.9373 28.304C38.2333 28.944 37.4013 29.4453 36.4413 29.808C35.5026 30.1493 34.4893 30.32 33.4013 30.32ZM27.2573 20.88H39.5773C39.4919 19.664 39.1613 18.5973 38.5853 17.68C38.0306 16.7627 37.2946 16.048 36.3773 15.536C35.4813 15.0027 34.4893 14.736 33.4013 14.736C32.3133 14.736 31.3213 15.0027 30.4253 15.536C29.5293 16.048 28.7933 16.7733 28.2173 17.712C27.6626 18.6293 27.3426 19.6853 27.2573 20.88ZM41.3985 25.2C41.3985 24.1547 41.6972 23.2587 42.2945 22.512C42.8918 21.744 43.7132 21.1573 44.7585 20.752C45.8252 20.3253 47.0518 20.112 48.4385 20.112C49.2492 20.112 50.0918 20.176 50.9665 20.304C51.8412 20.432 52.6198 20.624 53.3025 20.88V19.472C53.3025 18.064 52.8865 16.944 52.0545 16.112C51.2225 15.28 50.0705 14.864 48.5985 14.864C47.7025 14.864 46.8172 15.0347 45.9425 15.376C45.0892 15.696 44.1932 16.176 43.2545 16.816L42.4225 15.28C43.5105 14.5333 44.5772 13.9787 45.6225 13.616C46.6678 13.232 47.7345 13.04 48.8225 13.04C50.8705 13.04 52.4918 13.6267 53.6865 14.8C54.8812 15.9733 55.4785 17.5947 55.4785 19.664V27.376C55.4785 27.6747 55.5425 27.8987 55.6705 28.048C55.7985 28.176 56.0012 28.2507 56.2785 28.272V30C56.0438 30.0213 55.8412 30.0427 55.6705 30.064C55.4998 30.0853 55.3718 30.0853 55.2865 30.064C54.7532 30.0427 54.3478 29.872 54.0705 29.552C53.7932 29.232 53.6438 28.8907 53.6225 28.528L53.5905 27.312C52.8438 28.272 51.8732 29.0187 50.6785 29.552C49.4838 30.064 48.2678 30.32 47.0305 30.32C45.9638 30.32 44.9932 30.096 44.1185 29.648C43.2652 29.1787 42.5932 28.56 42.1025 27.792C41.6332 27.0027 41.3985 26.1387 41.3985 25.2ZM52.5665 26.48C52.8012 26.1813 52.9825 25.8933 53.1105 25.616C53.2385 25.3387 53.3025 25.0933 53.3025 24.88V22.448C52.5772 22.1707 51.8198 21.9573 51.0305 21.808C50.2625 21.6587 49.4838 21.584 48.6945 21.584C47.1372 21.584 45.8785 21.8933 44.9185 22.512C43.9585 23.1307 43.4785 23.9733 43.4785 25.04C43.4785 25.6587 43.6385 26.2453 43.9585 26.8C44.2785 27.3333 44.7478 27.7813 45.3665 28.144C45.9852 28.4853 46.7105 28.656 47.5425 28.656C48.5878 28.656 49.5585 28.4533 50.4545 28.048C51.3718 27.6427 52.0758 27.12 52.5665 26.48ZM65.815 29.2C65.6443 29.264 65.3777 29.3813 65.015 29.552C64.6523 29.7227 64.215 29.872 63.703 30C63.191 30.128 62.6363 30.192 62.039 30.192C61.4203 30.192 60.8337 30.0747 60.279 29.84C59.7457 29.6053 59.319 29.2533 58.999 28.784C58.679 28.2933 58.519 27.696 58.519 26.992V15.056H56.215V13.328H58.519V7.696H60.695V13.328H64.535V15.056H60.695V26.384C60.7377 26.9813 60.951 27.4293 61.335 27.728C61.7403 28.0267 62.199 28.176 62.711 28.176C63.3083 28.176 63.8523 28.08 64.343 27.888C64.8337 27.6747 65.1323 27.5253 65.239 27.44L65.815 29.2ZM73.1165 30.32C71.9218 30.32 70.8125 30.096 69.7885 29.648C68.7858 29.1787 67.9112 28.5493 67.1645 27.76C66.4392 26.9493 65.8738 26.032 65.4685 25.008C65.0632 23.9627 64.8605 22.864 64.8605 21.712C64.8605 20.5173 65.0632 19.408 65.4685 18.384C65.8738 17.3387 66.4498 16.4213 67.1965 15.632C67.9432 14.8213 68.8178 14.192 69.8205 13.744C70.8445 13.2747 71.9538 13.04 73.1485 13.04C74.3432 13.04 75.4418 13.2747 76.4445 13.744C77.4472 14.192 78.3218 14.8213 79.0685 15.632C79.8152 16.4213 80.3912 17.3387 80.7965 18.384C81.2018 19.408 81.4045 20.5173 81.4045 21.712C81.4045 22.864 81.2018 23.9627 80.7965 25.008C80.3912 26.032 79.8152 26.9493 79.0685 27.76C78.3432 28.5493 77.4685 29.1787 76.4445 29.648C75.4418 30.096 74.3325 30.32 73.1165 30.32ZM67.0685 21.744C67.0685 22.9813 67.3352 24.112 67.8685 25.136C68.4232 26.1387 69.1592 26.9387 70.0765 27.536C70.9938 28.112 72.0072 28.4 73.1165 28.4C74.2258 28.4 75.2392 28.1013 76.1565 27.504C77.0738 26.9067 77.8098 26.096 78.3645 25.072C78.9192 24.0267 79.1965 22.896 79.1965 21.68C79.1965 20.4427 78.9192 19.312 78.3645 18.288C77.8098 17.264 77.0738 16.4533 76.1565 15.856C75.2392 15.2587 74.2258 14.96 73.1165 14.96C72.0072 14.96 70.9938 15.2693 70.0765 15.888C69.1805 16.5067 68.4552 17.328 67.9005 18.352C67.3458 19.3547 67.0685 20.4853 67.0685 21.744ZM91.1237 15.248C89.6731 15.2907 88.3931 15.696 87.2837 16.464C86.1957 17.232 85.4277 18.288 84.9797 19.632V30H82.8037V13.328H84.8517V17.328C85.4277 16.1547 86.1851 15.2053 87.1237 14.48C88.0837 13.7547 89.0971 13.3493 90.1637 13.264C90.3771 13.2427 90.5584 13.232 90.7077 13.232C90.8784 13.232 91.0171 13.2427 91.1237 13.264V15.248Z" fill="black"/>
<path d="M113.12 30H109.6V20.624C109.6 19.1093 109.323 17.9787 108.768 17.232C108.213 16.4853 107.435 16.112 106.432 16.112C105.813 16.112 105.173 16.2827 104.512 16.624C103.851 16.9653 103.264 17.4347 102.752 18.032C102.24 18.608 101.867 19.28 101.632 20.048V30H98.112V6.64H101.632V16.624C102.272 15.4933 103.147 14.608 104.256 13.968C105.365 13.3067 106.56 12.976 107.84 12.976C108.885 12.976 109.749 13.1573 110.432 13.52C111.115 13.8827 111.648 14.384 112.032 15.024C112.437 15.6427 112.715 16.368 112.864 17.2C113.035 18.0107 113.12 18.8747 113.12 19.792V30ZM125.686 30.32C124.363 30.32 123.179 30.096 122.134 29.648C121.088 29.1787 120.182 28.5387 119.414 27.728C118.667 26.9173 118.091 26 117.686 24.976C117.28 23.9307 117.078 22.8213 117.078 21.648C117.078 20.4747 117.28 19.3653 117.686 18.32C118.091 17.2747 118.667 16.3573 119.414 15.568C120.182 14.7573 121.088 14.128 122.134 13.68C123.2 13.2107 124.384 12.976 125.686 12.976C126.987 12.976 128.16 13.2107 129.206 13.68C130.272 14.128 131.179 14.7573 131.926 15.568C132.694 16.3573 133.28 17.2747 133.686 18.32C134.091 19.3653 134.294 20.4747 134.294 21.648C134.294 22.8213 134.091 23.9307 133.686 24.976C133.28 26 132.694 26.9173 131.926 27.728C131.179 28.5387 130.272 29.1787 129.206 29.648C128.16 30.096 126.987 30.32 125.686 30.32ZM120.694 21.68C120.694 22.7467 120.918 23.7067 121.366 24.56C121.814 25.4133 122.411 26.0853 123.158 26.576C123.904 27.0667 124.747 27.312 125.686 27.312C126.603 27.312 127.435 27.0667 128.182 26.576C128.95 26.064 129.558 25.3813 130.006 24.528C130.454 23.6533 130.678 22.6933 130.678 21.648C130.678 20.5813 130.454 19.6213 130.006 18.768C129.558 17.9147 128.95 17.2427 128.182 16.752C127.435 16.24 126.603 15.984 125.686 15.984C124.747 15.984 123.904 16.24 123.158 16.752C122.411 17.264 121.814 17.9467 121.366 18.8C120.918 19.632 120.694 20.592 120.694 21.68ZM163.976 30H160.456V20.624C160.456 19.0667 160.2 17.9253 159.688 17.2C159.176 16.4747 158.429 16.112 157.448 16.112C156.466 16.112 155.549 16.4853 154.696 17.232C153.864 17.9573 153.277 18.9067 152.936 20.08V30H149.416V20.624C149.416 19.0667 149.16 17.9253 148.648 17.2C148.136 16.4747 147.4 16.112 146.44 16.112C145.458 16.112 144.541 16.4747 143.688 17.2C142.856 17.9253 142.258 18.8747 141.896 20.048V30H138.376V13.264H141.576V16.624C142.237 15.4507 143.101 14.5547 144.168 13.936C145.256 13.296 146.493 12.976 147.88 12.976C149.266 12.976 150.354 13.3387 151.144 14.064C151.954 14.7893 152.456 15.696 152.648 16.784C153.373 15.5467 154.258 14.608 155.304 13.968C156.37 13.3067 157.586 12.976 158.952 12.976C159.933 12.976 160.754 13.1573 161.416 13.52C162.077 13.8827 162.589 14.384 162.952 15.024C163.314 15.6427 163.57 16.368 163.72 17.2C163.89 18.0107 163.976 18.8747 163.976 19.792V30ZM176.576 30.32C175.275 30.32 174.091 30.096 173.024 29.648C171.979 29.1787 171.072 28.5493 170.304 27.76C169.536 26.9493 168.939 26.032 168.512 25.008C168.107 23.9627 167.904 22.8533 167.904 21.68C167.904 20.1013 168.267 18.6613 168.992 17.36C169.717 16.0373 170.731 14.9813 172.032 14.192C173.333 13.3813 174.859 12.976 176.608 12.976C178.357 12.976 179.861 13.3813 181.12 14.192C182.4 14.9813 183.392 16.0267 184.096 17.328C184.8 18.6293 185.152 20.0267 185.152 21.52C185.152 21.776 185.141 22.0213 185.12 22.256C185.099 22.4693 185.077 22.6507 185.056 22.8H171.648C171.712 23.7813 171.979 24.6453 172.448 25.392C172.939 26.1173 173.557 26.6933 174.304 27.12C175.051 27.5253 175.851 27.728 176.704 27.728C177.643 27.728 178.528 27.4933 179.36 27.024C180.213 26.5547 180.789 25.936 181.088 25.168L184.096 26.032C183.733 26.8427 183.179 27.5787 182.432 28.24C181.707 28.88 180.843 29.392 179.84 29.776C178.837 30.1387 177.749 30.32 176.576 30.32ZM171.552 20.464H181.664C181.6 19.504 181.323 18.6613 180.832 17.936C180.363 17.1893 179.755 16.6133 179.008 16.208C178.283 15.7813 177.472 15.568 176.576 15.568C175.701 15.568 174.891 15.7813 174.144 16.208C173.419 16.6133 172.821 17.1893 172.352 17.936C171.883 18.6613 171.616 19.504 171.552 20.464Z" fill="#1A2980"/>
</svg>
